M48
METRIC,LZ,000.000
;FILE_FORMAT=3:3
;TYPE=PLATED
;Layer: PTH_Through
;EasyEDA v6.5.3, 2022-05-11 10:11:48
;0613da1d9abe436da45d8866ec44bb36,be635ba5e1a24524a6f9dddda72dafc0,10
;Gerber Generator version 0.2
;Holesize 1 = 0.891 mm
T01C0.891
;Holesize 2 = 1.000 mm
T02C1.000
;Holesize 3 = 1.016 mm
T03C1.016
%
G05
G90
T01
X-833120Y657860
X-830580Y657860
X-830580Y655320
X-833120Y655320
X-830580Y652780
X-833120Y652780
X-830580Y650240
X-833120Y650240
X-830580Y647700
X-833120Y647700
X-830580Y645160
X-833120Y645160
X-830580Y642620
X-833120Y642620
X-830580Y640080
X-833120Y640080
X-830580Y637540
X-833120Y637540
X-830580Y635000
X-833120Y635000
X-830580Y632460
X-833120Y632460
X-830580Y629920
X-833120Y629920
X-830580Y627380
X-833120Y627380
X-830580Y624840
X-833120Y624840
X-830580Y622300
X-833120Y622300
X-830580Y619760
X-833120Y619760
X-830580Y617220
X-833120Y617220
X-830580Y614680
X-833120Y614680
T02
X-863600Y657860
X-866140Y657860
X-868680Y657860
X-871220Y657860
X-873760Y657860
X-876300Y657860
X-878840Y657860
X-881380Y657860
X-885444Y657860
X-887984Y657860
X-890524Y657860
X-893064Y657860
X-895604Y657860
X-898144Y657860
X-900684Y657860
X-903224Y657860
X-825246Y657860
X-825246Y655320
X-825246Y652780
X-825246Y650240
X-825246Y647700
X-825246Y645160
X-825246Y642620
X-825246Y640080
X-825246Y637540
X-825246Y635000
X-825246Y632460
X-825246Y629920
X-825246Y627380
X-825246Y624840
X-825246Y622300
X-825246Y619760
X-825246Y617220
X-825246Y614680
X-825246Y612140
X-825246Y609600
T03
X-838200Y622046
X-838200Y624586
X-838200Y627126
X-838200Y629666
X-838200Y632206
X-838200Y634746
X-838200Y639826
X-838200Y642366
X-838200Y644906
X-838200Y647446
X-838200Y649986
X-838200Y652526
M30
