G04 Layer: BottomSilkscreenLayer*
G04 EasyEDA v6.5.3, 2022-05-11 10:11:48*
G04 0613da1d9abe436da45d8866ec44bb36,be635ba5e1a24524a6f9dddda72dafc0,10*
G04 Gerber Generator version 0.2*
G04 Scale: 100 percent, Rotated: No, Reflected: No *
G04 Dimensions in millimeters *
G04 leading zeros omitted , absolute positions ,4 integer and 5 decimal *
%FSLAX45Y45*%
%MOMM*%

%ADD10C,0.2540*%

%LPD*%
G36*
X-84730844Y64241172D02*
G01*
X-84730844Y64220598D01*
X-84641588Y64188594D01*
X-84617814Y64180466D01*
X-84617814Y64179450D01*
X-84649564Y64169036D01*
X-84730844Y64140079D01*
X-84730844Y64119252D01*
X-84582000Y64119252D01*
X-84582000Y64135000D01*
X-84672830Y64134949D01*
X-84695030Y64133933D01*
X-84711032Y64132968D01*
X-84711032Y64133729D01*
X-84677250Y64145668D01*
X-84597240Y64174624D01*
X-84597240Y64186307D01*
X-84677250Y64215518D01*
X-84711032Y64227202D01*
X-84711032Y64227964D01*
X-84678113Y64226135D01*
X-84667852Y64225931D01*
X-84582000Y64225931D01*
X-84582000Y64241172D01*
G37*
G36*
X-84610194Y64086486D02*
G01*
X-84614562Y64086231D01*
X-84618677Y64085470D01*
X-84622487Y64084250D01*
X-84626043Y64082472D01*
X-84629345Y64080186D01*
X-84632393Y64077342D01*
X-84635238Y64073989D01*
X-84637829Y64070077D01*
X-84640166Y64065607D01*
X-84642350Y64060578D01*
X-84644280Y64055040D01*
X-84646058Y64048894D01*
X-84647633Y64042137D01*
X-84649056Y64034822D01*
X-84651342Y64018414D01*
X-84640166Y64018414D01*
X-84638946Y64027608D01*
X-84637473Y64035787D01*
X-84635797Y64042950D01*
X-84633968Y64049198D01*
X-84631885Y64054532D01*
X-84629599Y64059003D01*
X-84627110Y64062711D01*
X-84624367Y64065607D01*
X-84621420Y64067791D01*
X-84618220Y64069315D01*
X-84614816Y64070179D01*
X-84611210Y64070484D01*
X-84602726Y64068858D01*
X-84596986Y64064540D01*
X-84593684Y64058038D01*
X-84592668Y64050164D01*
X-84593633Y64042036D01*
X-84596579Y64034314D01*
X-84601354Y64026542D01*
X-84607908Y64018414D01*
X-84651342Y64018414D01*
X-84656828Y64018566D01*
X-84662162Y64019277D01*
X-84667140Y64020649D01*
X-84671611Y64022884D01*
X-84675370Y64025932D01*
X-84678266Y64030047D01*
X-84680145Y64035279D01*
X-84680806Y64041781D01*
X-84679739Y64051383D01*
X-84676894Y64060222D01*
X-84672982Y64068198D01*
X-84668614Y64075055D01*
X-84680044Y64081660D01*
X-84684971Y64073531D01*
X-84687410Y64068705D01*
X-84689645Y64063473D01*
X-84691626Y64057834D01*
X-84693150Y64051840D01*
X-84694166Y64045541D01*
X-84694522Y64038988D01*
X-84694166Y64032688D01*
X-84693048Y64027050D01*
X-84691270Y64022071D01*
X-84688883Y64017652D01*
X-84685835Y64013791D01*
X-84682177Y64010540D01*
X-84678012Y64007847D01*
X-84673338Y64005663D01*
X-84668156Y64003986D01*
X-84662518Y64002818D01*
X-84656472Y64002107D01*
X-84650072Y64001904D01*
X-84582000Y64001904D01*
X-84582000Y64015620D01*
X-84595462Y64016890D01*
X-84595462Y64017652D01*
X-84592210Y64021665D01*
X-84589213Y64025881D01*
X-84586470Y64030250D01*
X-84584133Y64034822D01*
X-84582203Y64039546D01*
X-84580730Y64044423D01*
X-84579764Y64049402D01*
X-84579460Y64054481D01*
X-84579968Y64061035D01*
X-84581492Y64067080D01*
X-84583981Y64072516D01*
X-84587384Y64077240D01*
X-84591753Y64081101D01*
X-84597036Y64083996D01*
X-84603183Y64085825D01*
G37*
G36*
X-84690712Y63982346D02*
G01*
X-84691728Y63965074D01*
X-84722716Y63963042D01*
X-84722716Y63949326D01*
X-84691728Y63949326D01*
X-84691728Y63919100D01*
X-84678012Y63919100D01*
X-84678012Y63949326D01*
X-84614512Y63949326D01*
X-84605469Y63948462D01*
X-84598662Y63945668D01*
X-84594395Y63940334D01*
X-84592922Y63932054D01*
X-84593176Y63928853D01*
X-84594852Y63922148D01*
X-84595970Y63919100D01*
X-84583524Y63916052D01*
X-84580730Y63925704D01*
X-84579815Y63930631D01*
X-84579460Y63935355D01*
X-84580120Y63943280D01*
X-84582000Y63949884D01*
X-84585098Y63955168D01*
X-84589213Y63959282D01*
X-84594395Y63962279D01*
X-84600440Y63964312D01*
X-84607349Y63965480D01*
X-84615020Y63965836D01*
X-84678012Y63965836D01*
X-84678012Y63982346D01*
G37*
G36*
X-84691728Y63893700D02*
G01*
X-84691728Y63880492D01*
X-84671662Y63878714D01*
X-84671662Y63878205D01*
X-84676589Y63875208D01*
X-84681009Y63871855D01*
X-84684920Y63868249D01*
X-84688222Y63864388D01*
X-84690915Y63860324D01*
X-84692896Y63856006D01*
X-84694115Y63851586D01*
X-84694522Y63846964D01*
X-84694420Y63843763D01*
X-84694064Y63840868D01*
X-84693353Y63838175D01*
X-84692236Y63835534D01*
X-84677758Y63838836D01*
X-84679129Y63843712D01*
X-84679536Y63848996D01*
X-84679180Y63852602D01*
X-84678164Y63856311D01*
X-84676386Y63860121D01*
X-84673744Y63863880D01*
X-84670188Y63867588D01*
X-84665718Y63871094D01*
X-84660232Y63874396D01*
X-84653628Y63877444D01*
X-84582000Y63877444D01*
X-84582000Y63893700D01*
G37*
G36*
X-84726780Y63820040D02*
G01*
X-84731402Y63819227D01*
X-84734958Y63816890D01*
X-84737194Y63813181D01*
X-84737956Y63808355D01*
X-84737194Y63803936D01*
X-84734958Y63800380D01*
X-84731402Y63798043D01*
X-84726780Y63797179D01*
X-84722004Y63798043D01*
X-84718398Y63800380D01*
X-84716112Y63803936D01*
X-84715350Y63808355D01*
X-84716112Y63813181D01*
X-84718398Y63816890D01*
X-84722004Y63819227D01*
G37*
G36*
X-84691728Y63816738D02*
G01*
X-84691728Y63800228D01*
X-84582000Y63800228D01*
X-84582000Y63816738D01*
G37*
G36*
X-84582000Y63778384D02*
G01*
X-84639404Y63742062D01*
X-84691728Y63775590D01*
X-84691728Y63757555D01*
X-84648548Y63731140D01*
X-84648548Y63730124D01*
X-84662264Y63722605D01*
X-84691728Y63705740D01*
X-84691728Y63688468D01*
X-84637626Y63721996D01*
X-84582000Y63685674D01*
X-84582000Y63703707D01*
X-84608670Y63720726D01*
X-84628482Y63732664D01*
X-84628482Y63733679D01*
X-84582000Y63760857D01*
G37*
G36*
X-84690712Y63682372D02*
G01*
X-84691728Y63665100D01*
X-84722716Y63663068D01*
X-84722716Y63649098D01*
X-84691728Y63649098D01*
X-84691728Y63618872D01*
X-84678012Y63618872D01*
X-84678012Y63649098D01*
X-84614512Y63649098D01*
X-84605469Y63648234D01*
X-84598662Y63645440D01*
X-84594395Y63640106D01*
X-84592922Y63631826D01*
X-84593176Y63628625D01*
X-84593887Y63625272D01*
X-84594852Y63622021D01*
X-84595970Y63619126D01*
X-84583524Y63615824D01*
X-84580730Y63625628D01*
X-84579815Y63630606D01*
X-84579460Y63635381D01*
X-84580120Y63643255D01*
X-84582000Y63649758D01*
X-84585098Y63654990D01*
X-84589213Y63659054D01*
X-84594395Y63662052D01*
X-84600440Y63664084D01*
X-84607349Y63665252D01*
X-84615020Y63665607D01*
X-84678012Y63665607D01*
X-84678012Y63682372D01*
G37*
G36*
X-84636864Y63605155D02*
G01*
X-84643366Y63604902D01*
X-84649564Y63604089D01*
X-84655406Y63602819D01*
X-84660892Y63601092D01*
X-84665972Y63598907D01*
X-84670747Y63596367D01*
X-84675065Y63593421D01*
X-84679028Y63590220D01*
X-84682533Y63586664D01*
X-84685632Y63582854D01*
X-84688324Y63578841D01*
X-84690508Y63574625D01*
X-84692236Y63570205D01*
X-84693506Y63565684D01*
X-84694268Y63561061D01*
X-84694506Y63556134D01*
X-84681060Y63556134D01*
X-84680450Y63562128D01*
X-84678672Y63567818D01*
X-84675726Y63573101D01*
X-84671662Y63577876D01*
X-84666582Y63581940D01*
X-84660486Y63585191D01*
X-84653424Y63587579D01*
X-84645500Y63588900D01*
X-84645500Y63527686D01*
X-84653729Y63528194D01*
X-84660892Y63529616D01*
X-84667039Y63531953D01*
X-84672017Y63535153D01*
X-84675980Y63539217D01*
X-84678774Y63544094D01*
X-84680501Y63549733D01*
X-84681060Y63556134D01*
X-84694506Y63556134D01*
X-84694115Y63549784D01*
X-84692947Y63543637D01*
X-84690966Y63538049D01*
X-84688273Y63532918D01*
X-84684870Y63528397D01*
X-84680755Y63524384D01*
X-84676030Y63520980D01*
X-84670646Y63518135D01*
X-84664600Y63515900D01*
X-84658047Y63514274D01*
X-84650884Y63513309D01*
X-84643214Y63512954D01*
X-84637778Y63513157D01*
X-84633308Y63513716D01*
X-84633308Y63588900D01*
X-84627364Y63588341D01*
X-84621827Y63587274D01*
X-84616645Y63585648D01*
X-84611921Y63583566D01*
X-84607654Y63580975D01*
X-84603844Y63577927D01*
X-84600542Y63574422D01*
X-84597798Y63570561D01*
X-84595563Y63566243D01*
X-84593988Y63561620D01*
X-84593023Y63556642D01*
X-84592668Y63551307D01*
X-84593277Y63543484D01*
X-84595004Y63536271D01*
X-84597798Y63529616D01*
X-84601558Y63523368D01*
X-84590636Y63517272D01*
X-84586318Y63524841D01*
X-84584438Y63528905D01*
X-84582762Y63533223D01*
X-84581390Y63537795D01*
X-84580323Y63542621D01*
X-84579714Y63547802D01*
X-84579460Y63553340D01*
X-84579714Y63558674D01*
X-84580425Y63563804D01*
X-84581644Y63568783D01*
X-84583371Y63573558D01*
X-84585505Y63578079D01*
X-84588096Y63582346D01*
X-84591144Y63586360D01*
X-84594649Y63590017D01*
X-84598560Y63593370D01*
X-84602828Y63596316D01*
X-84607552Y63598907D01*
X-84612683Y63601092D01*
X-84618169Y63602819D01*
X-84624062Y63604089D01*
X-84630260Y63604902D01*
G37*
G36*
X-84594446Y63497968D02*
G01*
X-84605622Y63489586D01*
X-84600237Y63482372D01*
X-84596071Y63474701D01*
X-84593379Y63466167D01*
X-84592414Y63456566D01*
X-84593836Y63446558D01*
X-84597748Y63439446D01*
X-84603539Y63435128D01*
X-84610702Y63433705D01*
X-84614816Y63434315D01*
X-84618372Y63435941D01*
X-84621471Y63438531D01*
X-84624164Y63441884D01*
X-84626551Y63445796D01*
X-84628634Y63450114D01*
X-84634476Y63465303D01*
X-84636965Y63471094D01*
X-84639810Y63476581D01*
X-84643163Y63481508D01*
X-84647125Y63485725D01*
X-84651850Y63489027D01*
X-84657336Y63491110D01*
X-84663788Y63491872D01*
X-84670087Y63491211D01*
X-84675878Y63489382D01*
X-84681110Y63486284D01*
X-84685632Y63482067D01*
X-84689340Y63476733D01*
X-84692134Y63470332D01*
X-84693912Y63462916D01*
X-84694522Y63454534D01*
X-84693556Y63444881D01*
X-84691016Y63435992D01*
X-84687105Y63428016D01*
X-84682330Y63421260D01*
X-84671662Y63429388D01*
X-84675421Y63435026D01*
X-84678469Y63441021D01*
X-84680552Y63447472D01*
X-84681314Y63454534D01*
X-84679993Y63463982D01*
X-84676386Y63470637D01*
X-84671154Y63474549D01*
X-84664804Y63475870D01*
X-84657641Y63473888D01*
X-84652408Y63468554D01*
X-84648446Y63460884D01*
X-84642604Y63445694D01*
X-84640013Y63439700D01*
X-84637067Y63434010D01*
X-84633663Y63428829D01*
X-84629548Y63424409D01*
X-84624621Y63421005D01*
X-84618626Y63418770D01*
X-84611464Y63417957D01*
X-84605063Y63418618D01*
X-84599068Y63420498D01*
X-84593633Y63423647D01*
X-84588908Y63428016D01*
X-84584946Y63433553D01*
X-84582000Y63440259D01*
X-84580120Y63448082D01*
X-84579460Y63457074D01*
X-84579764Y63462916D01*
X-84580577Y63468656D01*
X-84581949Y63474193D01*
X-84583727Y63479527D01*
X-84585911Y63484607D01*
X-84588451Y63489382D01*
X-84591347Y63493853D01*
G37*
G36*
X-84690712Y63409068D02*
G01*
X-84691728Y63391796D01*
X-84722716Y63389764D01*
X-84722716Y63376048D01*
X-84691728Y63376048D01*
X-84691728Y63345822D01*
X-84678012Y63345822D01*
X-84678012Y63376048D01*
X-84614512Y63376048D01*
X-84605469Y63375184D01*
X-84598662Y63372390D01*
X-84594395Y63367056D01*
X-84592922Y63358776D01*
X-84593176Y63355575D01*
X-84593887Y63352222D01*
X-84594852Y63348971D01*
X-84595970Y63346076D01*
X-84583524Y63342774D01*
X-84580730Y63352578D01*
X-84579815Y63357556D01*
X-84579460Y63362331D01*
X-84580120Y63370205D01*
X-84582000Y63376708D01*
X-84585098Y63381940D01*
X-84589213Y63386004D01*
X-84594395Y63389002D01*
X-84600440Y63391034D01*
X-84607349Y63392202D01*
X-84615020Y63392557D01*
X-84678012Y63392557D01*
X-84678012Y63409068D01*
G37*
G36*
X-84636864Y63332105D02*
G01*
X-84643366Y63331852D01*
X-84649564Y63331039D01*
X-84655406Y63329769D01*
X-84660892Y63328042D01*
X-84665972Y63325857D01*
X-84670747Y63323317D01*
X-84675065Y63320371D01*
X-84679028Y63317120D01*
X-84682533Y63313564D01*
X-84685632Y63309754D01*
X-84688324Y63305690D01*
X-84690508Y63301473D01*
X-84692236Y63297054D01*
X-84693506Y63292481D01*
X-84694268Y63287808D01*
X-84694522Y63283084D01*
X-84681060Y63283084D01*
X-84680450Y63289078D01*
X-84678672Y63294717D01*
X-84675726Y63300000D01*
X-84671662Y63304724D01*
X-84666582Y63308788D01*
X-84660486Y63312040D01*
X-84653424Y63314427D01*
X-84645500Y63315850D01*
X-84645500Y63254636D01*
X-84653729Y63255144D01*
X-84660892Y63256566D01*
X-84667039Y63258903D01*
X-84672017Y63262103D01*
X-84675980Y63266167D01*
X-84678774Y63271044D01*
X-84680501Y63276683D01*
X-84681060Y63283084D01*
X-84694522Y63283084D01*
X-84694115Y63276479D01*
X-84692947Y63270384D01*
X-84690966Y63264745D01*
X-84688273Y63259716D01*
X-84684870Y63255194D01*
X-84680755Y63251232D01*
X-84676030Y63247828D01*
X-84670646Y63244984D01*
X-84664600Y63242799D01*
X-84658047Y63241174D01*
X-84650884Y63240208D01*
X-84640420Y63239954D01*
X-84635390Y63240310D01*
X-84633308Y63240666D01*
X-84633308Y63315596D01*
X-84627364Y63315088D01*
X-84621827Y63313970D01*
X-84616645Y63312395D01*
X-84611921Y63310312D01*
X-84607654Y63307722D01*
X-84603844Y63304724D01*
X-84600542Y63301219D01*
X-84597798Y63297358D01*
X-84595563Y63293040D01*
X-84593988Y63288367D01*
X-84593023Y63283388D01*
X-84592668Y63278004D01*
X-84593277Y63270333D01*
X-84595004Y63263221D01*
X-84597798Y63256566D01*
X-84601558Y63250318D01*
X-84590636Y63244222D01*
X-84586318Y63251638D01*
X-84584438Y63255652D01*
X-84582762Y63259919D01*
X-84581390Y63264491D01*
X-84580323Y63269317D01*
X-84579714Y63274498D01*
X-84579460Y63280036D01*
X-84579714Y63285370D01*
X-84580425Y63290602D01*
X-84581644Y63295580D01*
X-84583371Y63300406D01*
X-84585505Y63304928D01*
X-84588096Y63309246D01*
X-84591144Y63313259D01*
X-84594649Y63316916D01*
X-84598560Y63320269D01*
X-84602828Y63323266D01*
X-84607552Y63325857D01*
X-84612683Y63328042D01*
X-84618169Y63329769D01*
X-84624062Y63331039D01*
X-84630260Y63331852D01*
G37*
G36*
X-84691728Y63211964D02*
G01*
X-84691728Y63198755D01*
X-84671662Y63196978D01*
X-84671662Y63196470D01*
X-84676589Y63193472D01*
X-84681009Y63190120D01*
X-84684920Y63186513D01*
X-84688222Y63182652D01*
X-84690915Y63178588D01*
X-84692896Y63174270D01*
X-84694115Y63169850D01*
X-84694522Y63165228D01*
X-84694420Y63162027D01*
X-84694064Y63159131D01*
X-84693353Y63156439D01*
X-84692236Y63153798D01*
X-84677758Y63157100D01*
X-84679129Y63161976D01*
X-84679536Y63167260D01*
X-84679180Y63170866D01*
X-84678164Y63174575D01*
X-84676386Y63178385D01*
X-84673744Y63182144D01*
X-84670188Y63185852D01*
X-84665718Y63189357D01*
X-84660232Y63192660D01*
X-84653628Y63195707D01*
X-84582000Y63195707D01*
X-84582000Y63211964D01*
G37*
G36*
X-84656422Y63097155D02*
G01*
X-84663432Y63096952D01*
X-84670188Y63096343D01*
X-84676640Y63095327D01*
X-84682787Y63093955D01*
X-84688578Y63092228D01*
X-84694115Y63090145D01*
X-84699297Y63087757D01*
X-84704123Y63085014D01*
X-84708644Y63081966D01*
X-84712810Y63078614D01*
X-84716620Y63075007D01*
X-84720023Y63071095D01*
X-84723122Y63066929D01*
X-84725764Y63062561D01*
X-84728050Y63057938D01*
X-84729980Y63053112D01*
X-84731453Y63048083D01*
X-84732520Y63042850D01*
X-84733180Y63037415D01*
X-84733384Y63031878D01*
X-84732977Y63025324D01*
X-84731910Y63019127D01*
X-84730132Y63013386D01*
X-84727897Y63008052D01*
X-84725205Y63003176D01*
X-84722157Y62998807D01*
X-84718804Y62994895D01*
X-84715350Y62991492D01*
X-84704428Y63000636D01*
X-84710168Y63006986D01*
X-84714689Y63014250D01*
X-84717585Y63022429D01*
X-84718652Y63031624D01*
X-84718398Y63036957D01*
X-84717585Y63041987D01*
X-84716213Y63046813D01*
X-84714384Y63051385D01*
X-84711997Y63055652D01*
X-84709152Y63059614D01*
X-84705850Y63063272D01*
X-84702040Y63066625D01*
X-84697824Y63069622D01*
X-84693150Y63072264D01*
X-84688070Y63074499D01*
X-84682533Y63076429D01*
X-84676640Y63077902D01*
X-84670341Y63079020D01*
X-84663686Y63079680D01*
X-84656676Y63079884D01*
X-84649665Y63079680D01*
X-84642960Y63079020D01*
X-84636660Y63078004D01*
X-84630717Y63076581D01*
X-84625180Y63074753D01*
X-84620049Y63072568D01*
X-84615324Y63069978D01*
X-84611057Y63067082D01*
X-84607196Y63063780D01*
X-84603844Y63060173D01*
X-84600948Y63056262D01*
X-84598560Y63052045D01*
X-84596681Y63047473D01*
X-84595309Y63042647D01*
X-84594496Y63037516D01*
X-84594192Y63032131D01*
X-84594496Y63026950D01*
X-84595309Y63022022D01*
X-84596681Y63017349D01*
X-84598611Y63012878D01*
X-84601050Y63008662D01*
X-84603945Y63004649D01*
X-84607349Y63000788D01*
X-84611210Y62997079D01*
X-84600796Y62987681D01*
X-84595919Y62992203D01*
X-84591652Y62996978D01*
X-84587994Y63002109D01*
X-84584997Y63007544D01*
X-84582609Y63013336D01*
X-84580882Y63019533D01*
X-84579815Y63026137D01*
X-84579460Y63033148D01*
X-84579663Y63038583D01*
X-84580323Y63043816D01*
X-84581390Y63048946D01*
X-84582812Y63053874D01*
X-84584692Y63058598D01*
X-84586978Y63063120D01*
X-84589620Y63067387D01*
X-84592668Y63071502D01*
X-84596071Y63075312D01*
X-84599830Y63078868D01*
X-84603996Y63082170D01*
X-84608466Y63085167D01*
X-84613343Y63087859D01*
X-84618525Y63090247D01*
X-84624011Y63092279D01*
X-84629904Y63094006D01*
X-84636051Y63095378D01*
X-84642553Y63096343D01*
X-84649310Y63096952D01*
G37*
G36*
X-84636864Y62969394D02*
G01*
X-84643518Y62969140D01*
X-84649818Y62968327D01*
X-84655761Y62967057D01*
X-84661298Y62965279D01*
X-84666429Y62963094D01*
X-84671204Y62960504D01*
X-84675522Y62957557D01*
X-84679383Y62954255D01*
X-84682888Y62950648D01*
X-84685936Y62946737D01*
X-84688527Y62942571D01*
X-84690661Y62938202D01*
X-84692337Y62933630D01*
X-84693556Y62928906D01*
X-84694268Y62924080D01*
X-84694522Y62919102D01*
X-84680552Y62919102D01*
X-84680196Y62923877D01*
X-84679129Y62928347D01*
X-84677351Y62932564D01*
X-84674964Y62936424D01*
X-84671966Y62939929D01*
X-84668410Y62943079D01*
X-84664296Y62945822D01*
X-84659724Y62948108D01*
X-84654644Y62949937D01*
X-84649106Y62951258D01*
X-84643163Y62952071D01*
X-84636864Y62952376D01*
X-84630514Y62952071D01*
X-84624519Y62951258D01*
X-84618982Y62949937D01*
X-84613902Y62948108D01*
X-84609279Y62945822D01*
X-84605215Y62943079D01*
X-84601659Y62939929D01*
X-84598713Y62936424D01*
X-84596325Y62932564D01*
X-84594598Y62928347D01*
X-84593531Y62923877D01*
X-84593176Y62919102D01*
X-84593531Y62914276D01*
X-84594598Y62909754D01*
X-84596325Y62905487D01*
X-84598713Y62901626D01*
X-84601659Y62898070D01*
X-84605215Y62894921D01*
X-84609279Y62892178D01*
X-84613902Y62889841D01*
X-84618982Y62888012D01*
X-84624519Y62886691D01*
X-84630514Y62885878D01*
X-84636864Y62885574D01*
X-84643163Y62885878D01*
X-84649106Y62886691D01*
X-84654644Y62888012D01*
X-84659724Y62889841D01*
X-84664296Y62892178D01*
X-84668410Y62894921D01*
X-84671966Y62898070D01*
X-84674964Y62901626D01*
X-84677351Y62905487D01*
X-84679129Y62909754D01*
X-84680196Y62914276D01*
X-84680552Y62919102D01*
X-84694522Y62919102D01*
X-84694268Y62914072D01*
X-84693556Y62909196D01*
X-84692337Y62904420D01*
X-84690661Y62899848D01*
X-84688527Y62895429D01*
X-84685936Y62891263D01*
X-84682888Y62887352D01*
X-84679383Y62883745D01*
X-84675522Y62880443D01*
X-84671204Y62877446D01*
X-84666429Y62874855D01*
X-84661298Y62872670D01*
X-84655761Y62870892D01*
X-84649818Y62869622D01*
X-84643518Y62868810D01*
X-84636864Y62868555D01*
X-84630209Y62868810D01*
X-84623960Y62869622D01*
X-84618068Y62870892D01*
X-84612581Y62872670D01*
X-84607450Y62874855D01*
X-84602726Y62877446D01*
X-84598408Y62880443D01*
X-84594547Y62883745D01*
X-84591093Y62887352D01*
X-84588045Y62891263D01*
X-84585454Y62895429D01*
X-84583320Y62899848D01*
X-84581644Y62904420D01*
X-84580425Y62909196D01*
X-84579714Y62914072D01*
X-84579460Y62919102D01*
X-84579714Y62924080D01*
X-84580425Y62928906D01*
X-84581644Y62933630D01*
X-84583320Y62938202D01*
X-84585454Y62942571D01*
X-84588045Y62946737D01*
X-84591093Y62950648D01*
X-84594547Y62954255D01*
X-84598408Y62957557D01*
X-84602726Y62960504D01*
X-84607450Y62963094D01*
X-84612581Y62965279D01*
X-84618068Y62967057D01*
X-84623960Y62968327D01*
X-84630209Y62969140D01*
G37*
G36*
X-84691728Y62838584D02*
G01*
X-84691728Y62825122D01*
X-84675726Y62823598D01*
X-84675726Y62822836D01*
X-84679536Y62818873D01*
X-84683041Y62814809D01*
X-84686241Y62810542D01*
X-84689035Y62806122D01*
X-84691321Y62801500D01*
X-84693048Y62796623D01*
X-84694166Y62791441D01*
X-84694522Y62786005D01*
X-84694217Y62780468D01*
X-84693302Y62775490D01*
X-84691778Y62771020D01*
X-84689645Y62767057D01*
X-84686952Y62763552D01*
X-84683650Y62760555D01*
X-84679739Y62758066D01*
X-84675268Y62756034D01*
X-84670188Y62754459D01*
X-84664550Y62753341D01*
X-84658352Y62752681D01*
X-84651596Y62752478D01*
X-84582000Y62752478D01*
X-84582000Y62768988D01*
X-84649564Y62768988D01*
X-84656980Y62769292D01*
X-84663330Y62770257D01*
X-84668563Y62771883D01*
X-84672779Y62774220D01*
X-84676030Y62777217D01*
X-84678266Y62780976D01*
X-84679586Y62785498D01*
X-84680044Y62790831D01*
X-84679739Y62795048D01*
X-84678926Y62799010D01*
X-84677504Y62802820D01*
X-84675522Y62806529D01*
X-84673033Y62810237D01*
X-84669985Y62813996D01*
X-84662264Y62822074D01*
X-84582000Y62822074D01*
X-84582000Y62838584D01*
G37*
G36*
X-84690712Y62729364D02*
G01*
X-84691728Y62712092D01*
X-84722716Y62710060D01*
X-84722716Y62696090D01*
X-84691728Y62696090D01*
X-84691728Y62665864D01*
X-84678012Y62665864D01*
X-84678012Y62696090D01*
X-84614512Y62696090D01*
X-84605469Y62695226D01*
X-84598662Y62692432D01*
X-84594395Y62687098D01*
X-84592922Y62678818D01*
X-84593176Y62675617D01*
X-84593887Y62672264D01*
X-84594852Y62669013D01*
X-84595970Y62666118D01*
X-84583524Y62662816D01*
X-84580730Y62672620D01*
X-84579815Y62677598D01*
X-84579460Y62682374D01*
X-84580120Y62690248D01*
X-84582000Y62696750D01*
X-84585098Y62701982D01*
X-84589213Y62706046D01*
X-84594395Y62709044D01*
X-84600440Y62711076D01*
X-84607349Y62712244D01*
X-84615020Y62712600D01*
X-84678012Y62712600D01*
X-84678012Y62729364D01*
G37*
G36*
X-84691728Y62640718D02*
G01*
X-84691728Y62627255D01*
X-84671662Y62625731D01*
X-84671662Y62624970D01*
X-84676589Y62622023D01*
X-84681009Y62618772D01*
X-84684920Y62615216D01*
X-84688222Y62611406D01*
X-84690915Y62607291D01*
X-84692896Y62603024D01*
X-84694115Y62598604D01*
X-84694522Y62593981D01*
X-84694420Y62590679D01*
X-84694064Y62587784D01*
X-84693353Y62585041D01*
X-84692236Y62582298D01*
X-84677758Y62585600D01*
X-84679129Y62590527D01*
X-84679536Y62596014D01*
X-84679180Y62599620D01*
X-84678164Y62603329D01*
X-84676386Y62607037D01*
X-84673744Y62610796D01*
X-84670188Y62614403D01*
X-84665718Y62617908D01*
X-84660232Y62621210D01*
X-84653628Y62624207D01*
X-84582000Y62624207D01*
X-84582000Y62640718D01*
G37*
G36*
X-84636864Y62574424D02*
G01*
X-84643518Y62574170D01*
X-84649818Y62573357D01*
X-84655761Y62572087D01*
X-84661298Y62570309D01*
X-84666429Y62568124D01*
X-84671204Y62565534D01*
X-84675522Y62562587D01*
X-84679383Y62559285D01*
X-84682888Y62555678D01*
X-84685936Y62551767D01*
X-84688527Y62547601D01*
X-84690661Y62543232D01*
X-84692337Y62538660D01*
X-84693556Y62533936D01*
X-84694268Y62529110D01*
X-84694522Y62524131D01*
X-84680552Y62524131D01*
X-84680196Y62528907D01*
X-84679129Y62533377D01*
X-84677351Y62537594D01*
X-84674964Y62541454D01*
X-84671966Y62544960D01*
X-84668410Y62548109D01*
X-84664296Y62550852D01*
X-84659724Y62553138D01*
X-84654644Y62554967D01*
X-84649106Y62556288D01*
X-84643163Y62557101D01*
X-84636864Y62557405D01*
X-84630514Y62557101D01*
X-84624519Y62556288D01*
X-84618982Y62554967D01*
X-84613902Y62553138D01*
X-84609279Y62550852D01*
X-84605215Y62548109D01*
X-84601659Y62544960D01*
X-84598713Y62541454D01*
X-84596325Y62537594D01*
X-84594598Y62533377D01*
X-84593531Y62528907D01*
X-84593176Y62524131D01*
X-84593531Y62519305D01*
X-84594598Y62514784D01*
X-84596325Y62510517D01*
X-84598713Y62506656D01*
X-84601659Y62503100D01*
X-84605215Y62499951D01*
X-84609279Y62497207D01*
X-84613902Y62494871D01*
X-84618982Y62493042D01*
X-84624519Y62491721D01*
X-84630514Y62490908D01*
X-84636864Y62490604D01*
X-84643163Y62490908D01*
X-84649106Y62491721D01*
X-84654644Y62493042D01*
X-84659724Y62494871D01*
X-84664296Y62497207D01*
X-84668410Y62499951D01*
X-84671966Y62503100D01*
X-84674964Y62506656D01*
X-84677351Y62510517D01*
X-84679129Y62514784D01*
X-84680196Y62519305D01*
X-84680552Y62524131D01*
X-84694522Y62524131D01*
X-84694268Y62519102D01*
X-84693556Y62514226D01*
X-84692337Y62509450D01*
X-84690661Y62504828D01*
X-84688527Y62500408D01*
X-84685936Y62496242D01*
X-84682888Y62492280D01*
X-84679383Y62488622D01*
X-84675522Y62485320D01*
X-84671204Y62482323D01*
X-84666429Y62479681D01*
X-84661298Y62477497D01*
X-84655761Y62475719D01*
X-84649818Y62474398D01*
X-84643518Y62473586D01*
X-84636864Y62473331D01*
X-84630209Y62473586D01*
X-84623960Y62474398D01*
X-84618068Y62475719D01*
X-84612581Y62477497D01*
X-84607450Y62479681D01*
X-84602726Y62482323D01*
X-84598408Y62485320D01*
X-84594547Y62488622D01*
X-84591093Y62492280D01*
X-84588045Y62496242D01*
X-84585454Y62500408D01*
X-84583320Y62504828D01*
X-84581644Y62509450D01*
X-84580425Y62514226D01*
X-84579714Y62519102D01*
X-84579460Y62524131D01*
X-84579714Y62529110D01*
X-84580425Y62533936D01*
X-84581644Y62538660D01*
X-84583320Y62543232D01*
X-84585454Y62547601D01*
X-84588045Y62551767D01*
X-84591093Y62555678D01*
X-84594547Y62559285D01*
X-84598408Y62562587D01*
X-84602726Y62565534D01*
X-84607450Y62568124D01*
X-84612581Y62570309D01*
X-84618068Y62572087D01*
X-84623960Y62573357D01*
X-84630209Y62574170D01*
G37*
G36*
X-84743798Y62443614D02*
G01*
X-84743798Y62427104D01*
X-84600796Y62427104D01*
X-84597341Y62426697D01*
X-84595004Y62425630D01*
X-84593633Y62424005D01*
X-84593176Y62421262D01*
X-84593684Y62418214D01*
X-84580730Y62415674D01*
X-84579815Y62419941D01*
X-84579460Y62425579D01*
X-84580933Y62433758D01*
X-84585352Y62439346D01*
X-84592414Y62442598D01*
X-84602066Y62443614D01*
G37*
G36*
X-84743798Y62386972D02*
G01*
X-84743798Y62370462D01*
X-84600796Y62370462D01*
X-84597341Y62370055D01*
X-84595004Y62368988D01*
X-84593633Y62367363D01*
X-84593176Y62364620D01*
X-84593684Y62361572D01*
X-84580730Y62359031D01*
X-84579815Y62363248D01*
X-84579460Y62368938D01*
X-84580933Y62377116D01*
X-84585352Y62382704D01*
X-84592414Y62385955D01*
X-84602066Y62386972D01*
G37*
G36*
X-84636864Y62338712D02*
G01*
X-84643366Y62338457D01*
X-84649564Y62337645D01*
X-84655406Y62336324D01*
X-84660892Y62334597D01*
X-84665972Y62332412D01*
X-84670747Y62329822D01*
X-84675065Y62326875D01*
X-84679028Y62323624D01*
X-84682533Y62320068D01*
X-84685632Y62316258D01*
X-84688324Y62312194D01*
X-84690508Y62307978D01*
X-84692236Y62303558D01*
X-84693506Y62299037D01*
X-84694268Y62294363D01*
X-84694506Y62289436D01*
X-84681060Y62289436D01*
X-84680450Y62295430D01*
X-84678672Y62301120D01*
X-84675726Y62306403D01*
X-84671662Y62311178D01*
X-84666582Y62315293D01*
X-84660486Y62318595D01*
X-84653424Y62321033D01*
X-84645500Y62322455D01*
X-84645500Y62260988D01*
X-84653729Y62261496D01*
X-84660892Y62262918D01*
X-84667039Y62265305D01*
X-84672017Y62268557D01*
X-84675980Y62272621D01*
X-84678774Y62277498D01*
X-84680501Y62283086D01*
X-84681060Y62289436D01*
X-84694506Y62289436D01*
X-84694115Y62283086D01*
X-84692947Y62276990D01*
X-84690966Y62271351D01*
X-84688273Y62266322D01*
X-84684870Y62261800D01*
X-84680755Y62257838D01*
X-84676030Y62254434D01*
X-84670646Y62251590D01*
X-84664600Y62249405D01*
X-84658047Y62247779D01*
X-84650884Y62246814D01*
X-84640420Y62246560D01*
X-84635390Y62246916D01*
X-84633308Y62247272D01*
X-84633308Y62322202D01*
X-84627364Y62321694D01*
X-84621827Y62320576D01*
X-84616645Y62319001D01*
X-84611921Y62316918D01*
X-84607654Y62314328D01*
X-84603844Y62311330D01*
X-84600542Y62307825D01*
X-84597798Y62303964D01*
X-84595563Y62299646D01*
X-84593988Y62294973D01*
X-84593023Y62289994D01*
X-84592668Y62284610D01*
X-84593277Y62276939D01*
X-84595004Y62269827D01*
X-84597798Y62263172D01*
X-84601558Y62256924D01*
X-84590636Y62250828D01*
X-84586318Y62258244D01*
X-84584438Y62262257D01*
X-84582762Y62266525D01*
X-84581390Y62271097D01*
X-84580323Y62275923D01*
X-84579714Y62281104D01*
X-84579460Y62286642D01*
X-84579714Y62291976D01*
X-84580425Y62297208D01*
X-84581644Y62302186D01*
X-84583371Y62307012D01*
X-84585505Y62311534D01*
X-84588096Y62315852D01*
X-84591144Y62319865D01*
X-84594649Y62323522D01*
X-84598560Y62326875D01*
X-84602828Y62329872D01*
X-84607552Y62332463D01*
X-84612683Y62334648D01*
X-84618169Y62336375D01*
X-84624062Y62337645D01*
X-84630260Y62338457D01*
G37*
G36*
X-84691728Y62218570D02*
G01*
X-84691728Y62205107D01*
X-84671662Y62203584D01*
X-84671662Y62203076D01*
X-84676589Y62200078D01*
X-84681009Y62196726D01*
X-84684920Y62193119D01*
X-84688222Y62189258D01*
X-84690915Y62185194D01*
X-84692896Y62180876D01*
X-84694115Y62176456D01*
X-84694522Y62171834D01*
X-84694420Y62168633D01*
X-84694064Y62165738D01*
X-84693353Y62163045D01*
X-84692236Y62160404D01*
X-84677758Y62163452D01*
X-84679129Y62168481D01*
X-84679536Y62173866D01*
X-84679180Y62177472D01*
X-84678164Y62181181D01*
X-84676386Y62184991D01*
X-84673744Y62188750D01*
X-84670188Y62192357D01*
X-84665718Y62195862D01*
X-84660232Y62199113D01*
X-84653628Y62202060D01*
X-84582000Y62202060D01*
X-84582000Y62218570D01*
G37*
G36*
X-84730844Y62115192D02*
G01*
X-84730844Y62097412D01*
X-84605926Y62059870D01*
X-84599526Y62057788D01*
X-84599526Y62057026D01*
X-84730844Y62017655D01*
X-84730844Y62000638D01*
X-84582000Y62048136D01*
X-84582000Y62067440D01*
G37*
G36*
X-84711540Y61992255D02*
G01*
X-84716264Y61987734D01*
X-84720531Y61983061D01*
X-84724240Y61978184D01*
X-84727440Y61973053D01*
X-84729929Y61967618D01*
X-84731809Y61961877D01*
X-84732977Y61955679D01*
X-84733384Y61949076D01*
X-84733028Y61942675D01*
X-84732012Y61936731D01*
X-84730336Y61931245D01*
X-84727999Y61926266D01*
X-84725052Y61921796D01*
X-84721547Y61917834D01*
X-84717534Y61914430D01*
X-84712962Y61911585D01*
X-84707882Y61909350D01*
X-84702345Y61907724D01*
X-84696350Y61906759D01*
X-84689950Y61906404D01*
X-84685428Y61906556D01*
X-84680856Y61907115D01*
X-84676335Y61907928D01*
X-84667191Y61910620D01*
X-84657946Y61914531D01*
X-84648649Y61919662D01*
X-84639251Y61925911D01*
X-84629701Y61933226D01*
X-84619998Y61941557D01*
X-84610143Y61950803D01*
X-84594954Y61966348D01*
X-84595868Y61953851D01*
X-84596224Y61941964D01*
X-84596224Y61899292D01*
X-84582000Y61899292D01*
X-84582000Y61991240D01*
X-84591906Y61991240D01*
X-84603996Y61977778D01*
X-84615477Y61965890D01*
X-84626348Y61955476D01*
X-84636660Y61946586D01*
X-84646465Y61939119D01*
X-84655761Y61933124D01*
X-84660282Y61930635D01*
X-84668969Y61926673D01*
X-84677300Y61924082D01*
X-84685327Y61922812D01*
X-84689188Y61922660D01*
X-84695538Y61923066D01*
X-84701380Y61924336D01*
X-84706612Y61926470D01*
X-84711133Y61929518D01*
X-84714842Y61933429D01*
X-84717585Y61938306D01*
X-84719312Y61944097D01*
X-84719922Y61950854D01*
X-84719566Y61955426D01*
X-84718601Y61959845D01*
X-84716975Y61964112D01*
X-84714892Y61968176D01*
X-84712302Y61972037D01*
X-84709304Y61975746D01*
X-84706002Y61979251D01*
X-84702396Y61982604D01*
G37*
G36*
X-84645246Y61834268D02*
G01*
X-84645246Y61782705D01*
X-84632292Y61782705D01*
X-84632292Y61834268D01*
G37*
G36*
X-84730844Y61707776D02*
G01*
X-84730844Y61690504D01*
X-84634324Y61634116D01*
X-84603844Y61618114D01*
X-84603844Y61617098D01*
X-84627008Y61618622D01*
X-84638743Y61619180D01*
X-84650326Y61619384D01*
X-84730844Y61619384D01*
X-84730844Y61603381D01*
X-84582000Y61603381D01*
X-84582000Y61620907D01*
X-84678266Y61676788D01*
X-84708746Y61693044D01*
X-84708746Y61694060D01*
X-84680755Y61692383D01*
X-84669325Y61692078D01*
X-84582000Y61692028D01*
X-84582000Y61707776D01*
G37*
G36*
X-84656930Y61570616D02*
G01*
X-84663889Y61570412D01*
X-84670595Y61569854D01*
X-84676996Y61568939D01*
X-84683142Y61567618D01*
X-84688934Y61565993D01*
X-84694369Y61564012D01*
X-84699551Y61561726D01*
X-84704377Y61559135D01*
X-84708847Y61556239D01*
X-84712962Y61553039D01*
X-84716721Y61549584D01*
X-84720176Y61545876D01*
X-84723173Y61541914D01*
X-84725865Y61537646D01*
X-84728100Y61533227D01*
X-84729980Y61528553D01*
X-84731453Y61523676D01*
X-84732520Y61518596D01*
X-84733180Y61513313D01*
X-84733384Y61507878D01*
X-84718652Y61507878D01*
X-84718398Y61512907D01*
X-84717585Y61517682D01*
X-84716213Y61522254D01*
X-84714384Y61526572D01*
X-84711997Y61530585D01*
X-84709152Y61534294D01*
X-84705850Y61537748D01*
X-84702091Y61540898D01*
X-84697874Y61543692D01*
X-84693201Y61546181D01*
X-84688121Y61548314D01*
X-84682634Y61550092D01*
X-84676792Y61551515D01*
X-84670544Y61552531D01*
X-84663889Y61553140D01*
X-84656930Y61553344D01*
X-84649970Y61553140D01*
X-84643315Y61552531D01*
X-84637016Y61551515D01*
X-84631072Y61550092D01*
X-84625484Y61548314D01*
X-84620354Y61546181D01*
X-84615578Y61543692D01*
X-84611260Y61540898D01*
X-84607400Y61537748D01*
X-84603996Y61534294D01*
X-84601050Y61530585D01*
X-84598611Y61526572D01*
X-84596732Y61522254D01*
X-84595309Y61517682D01*
X-84594496Y61512907D01*
X-84594192Y61507878D01*
X-84594496Y61502798D01*
X-84595309Y61497972D01*
X-84596732Y61493400D01*
X-84598611Y61489031D01*
X-84601050Y61485018D01*
X-84603996Y61481258D01*
X-84607400Y61477804D01*
X-84611260Y61474654D01*
X-84615578Y61471810D01*
X-84620354Y61469320D01*
X-84625484Y61467187D01*
X-84631072Y61465409D01*
X-84637016Y61463986D01*
X-84643315Y61462970D01*
X-84649970Y61462361D01*
X-84656930Y61462157D01*
X-84663889Y61462361D01*
X-84670544Y61462970D01*
X-84676792Y61463986D01*
X-84682634Y61465409D01*
X-84688121Y61467187D01*
X-84693201Y61469320D01*
X-84697874Y61471810D01*
X-84702091Y61474654D01*
X-84705850Y61477804D01*
X-84709152Y61481258D01*
X-84711997Y61485018D01*
X-84714384Y61489031D01*
X-84716213Y61493400D01*
X-84717585Y61497972D01*
X-84718398Y61502798D01*
X-84718652Y61507878D01*
X-84733384Y61507878D01*
X-84733180Y61502391D01*
X-84732520Y61497108D01*
X-84731453Y61491977D01*
X-84729980Y61487100D01*
X-84728100Y61482376D01*
X-84725865Y61477905D01*
X-84723173Y61473689D01*
X-84720176Y61469676D01*
X-84716721Y61465968D01*
X-84712962Y61462462D01*
X-84708847Y61459262D01*
X-84704377Y61456366D01*
X-84699551Y61453776D01*
X-84694369Y61451490D01*
X-84688934Y61449508D01*
X-84683142Y61447883D01*
X-84676996Y61446562D01*
X-84670595Y61445648D01*
X-84663889Y61445089D01*
X-84656930Y61444886D01*
X-84649919Y61445089D01*
X-84643214Y61445648D01*
X-84636762Y61446562D01*
X-84630615Y61447883D01*
X-84624773Y61449508D01*
X-84619236Y61451490D01*
X-84614054Y61453776D01*
X-84609127Y61456366D01*
X-84604606Y61459262D01*
X-84600389Y61462462D01*
X-84596528Y61465968D01*
X-84593074Y61469676D01*
X-84589924Y61473689D01*
X-84587232Y61477905D01*
X-84584895Y61482376D01*
X-84582965Y61487100D01*
X-84581441Y61491977D01*
X-84580323Y61497108D01*
X-84579663Y61502391D01*
X-84579460Y61507878D01*
X-84579663Y61513313D01*
X-84580323Y61518596D01*
X-84581441Y61523676D01*
X-84582965Y61528553D01*
X-84584895Y61533227D01*
X-84587232Y61537646D01*
X-84589924Y61541914D01*
X-84593074Y61545876D01*
X-84596528Y61549584D01*
X-84600389Y61553039D01*
X-84604606Y61556239D01*
X-84609127Y61559135D01*
X-84614054Y61561726D01*
X-84619236Y61564012D01*
X-84624773Y61565993D01*
X-84630615Y61567618D01*
X-84636762Y61568939D01*
X-84643214Y61569854D01*
X-84649919Y61570412D01*
G37*
G36*
X-84730844Y61412120D02*
G01*
X-84730844Y61394848D01*
X-84634324Y61338460D01*
X-84603844Y61322457D01*
X-84603844Y61321442D01*
X-84627008Y61322966D01*
X-84638743Y61323524D01*
X-84650326Y61323728D01*
X-84730844Y61323728D01*
X-84730844Y61307726D01*
X-84582000Y61307726D01*
X-84582000Y61325252D01*
X-84678266Y61381131D01*
X-84708746Y61397388D01*
X-84708746Y61398404D01*
X-84680755Y61396727D01*
X-84669325Y61396422D01*
X-84582000Y61396372D01*
X-84582000Y61412120D01*
G37*
G36*
X-84645246Y61277500D02*
G01*
X-84645246Y61226192D01*
X-84632292Y61226192D01*
X-84632292Y61277500D01*
G37*
G36*
X-84730844Y61196474D02*
G01*
X-84730844Y61179710D01*
X-84582000Y61179710D01*
X-84582000Y61196474D01*
G37*
G36*
X-84711540Y61150754D02*
G01*
X-84716264Y61146232D01*
X-84720531Y61141559D01*
X-84724240Y61136733D01*
X-84727440Y61131653D01*
X-84729929Y61126217D01*
X-84731809Y61120477D01*
X-84732977Y61114279D01*
X-84733384Y61107574D01*
X-84733028Y61101173D01*
X-84732012Y61095229D01*
X-84730336Y61089743D01*
X-84727999Y61084764D01*
X-84725052Y61080294D01*
X-84721547Y61076331D01*
X-84717534Y61072928D01*
X-84712962Y61070083D01*
X-84707882Y61067848D01*
X-84702345Y61066222D01*
X-84696350Y61065257D01*
X-84689950Y61064902D01*
X-84685428Y61065054D01*
X-84680856Y61065613D01*
X-84676335Y61066476D01*
X-84671763Y61067645D01*
X-84667191Y61069169D01*
X-84662568Y61070998D01*
X-84653323Y61075519D01*
X-84643976Y61081259D01*
X-84634476Y61088066D01*
X-84624875Y61095890D01*
X-84615121Y61104678D01*
X-84605114Y61114330D01*
X-84594954Y61124846D01*
X-84595868Y61112450D01*
X-84596224Y61100462D01*
X-84596224Y61057790D01*
X-84582000Y61057790D01*
X-84582000Y61149738D01*
X-84591906Y61149738D01*
X-84603996Y61136276D01*
X-84615477Y61124388D01*
X-84626348Y61113974D01*
X-84636660Y61105084D01*
X-84646465Y61097617D01*
X-84655761Y61091622D01*
X-84660282Y61089133D01*
X-84668969Y61085171D01*
X-84677300Y61082580D01*
X-84685327Y61081310D01*
X-84689188Y61081157D01*
X-84695538Y61081564D01*
X-84701380Y61082834D01*
X-84706612Y61084968D01*
X-84711133Y61088016D01*
X-84714842Y61091927D01*
X-84717585Y61096804D01*
X-84719312Y61102595D01*
X-84719922Y61109352D01*
X-84719566Y61113924D01*
X-84718601Y61118343D01*
X-84716975Y61122610D01*
X-84714892Y61126674D01*
X-84712302Y61130535D01*
X-84709304Y61134244D01*
X-84706002Y61137749D01*
X-84702396Y61141102D01*
G37*
G36*
X-84656422Y61035438D02*
G01*
X-84663432Y61035234D01*
X-84670188Y61034625D01*
X-84676640Y61033609D01*
X-84682787Y61032237D01*
X-84688578Y61030510D01*
X-84694115Y61028427D01*
X-84699297Y61026040D01*
X-84704123Y61023296D01*
X-84708644Y61020248D01*
X-84712810Y61016896D01*
X-84716620Y61013289D01*
X-84720023Y61009377D01*
X-84723122Y61005212D01*
X-84725764Y61000843D01*
X-84728050Y60996220D01*
X-84729980Y60991394D01*
X-84731453Y60986365D01*
X-84732520Y60981132D01*
X-84733180Y60975697D01*
X-84733384Y60970160D01*
X-84732977Y60963606D01*
X-84731910Y60957409D01*
X-84730132Y60951668D01*
X-84727897Y60946334D01*
X-84725205Y60941457D01*
X-84722157Y60937089D01*
X-84718804Y60933177D01*
X-84715350Y60929774D01*
X-84704428Y60939172D01*
X-84710168Y60945369D01*
X-84714689Y60952532D01*
X-84717585Y60960711D01*
X-84718652Y60969905D01*
X-84718398Y60975240D01*
X-84717585Y60980370D01*
X-84716213Y60985196D01*
X-84714384Y60989768D01*
X-84711997Y60994036D01*
X-84709152Y60997998D01*
X-84705850Y61001655D01*
X-84702040Y61005008D01*
X-84697824Y61007955D01*
X-84693150Y61010596D01*
X-84688070Y61012831D01*
X-84682533Y61014711D01*
X-84676640Y61016235D01*
X-84670341Y61017302D01*
X-84663686Y61017962D01*
X-84656676Y61018166D01*
X-84649665Y61017962D01*
X-84642960Y61017302D01*
X-84636660Y61016286D01*
X-84630717Y61014864D01*
X-84625180Y61013035D01*
X-84620049Y61010850D01*
X-84615324Y61008260D01*
X-84611057Y61005364D01*
X-84607196Y61002113D01*
X-84603844Y60998557D01*
X-84600948Y60994645D01*
X-84598560Y60990429D01*
X-84596681Y60985907D01*
X-84595309Y60981081D01*
X-84594496Y60976002D01*
X-84594192Y60970668D01*
X-84594496Y60965384D01*
X-84595309Y60960457D01*
X-84596681Y60955732D01*
X-84598611Y60951313D01*
X-84601050Y60947046D01*
X-84603945Y60943032D01*
X-84607349Y60939121D01*
X-84611210Y60935362D01*
X-84600796Y60925964D01*
X-84595919Y60930485D01*
X-84591652Y60935260D01*
X-84587994Y60940391D01*
X-84584997Y60945826D01*
X-84582609Y60951618D01*
X-84580882Y60957815D01*
X-84579815Y60964419D01*
X-84579460Y60971429D01*
X-84579663Y60976865D01*
X-84580323Y60982148D01*
X-84581390Y60987279D01*
X-84582812Y60992207D01*
X-84584692Y60996982D01*
X-84586978Y61001503D01*
X-84589620Y61005821D01*
X-84592668Y61009885D01*
X-84596071Y61013695D01*
X-84599830Y61017251D01*
X-84603996Y61020502D01*
X-84608466Y61023500D01*
X-84613343Y61026192D01*
X-84618525Y61028579D01*
X-84624011Y61030612D01*
X-84629904Y61032339D01*
X-84636051Y61033660D01*
X-84642553Y61034625D01*
X-84649310Y61035234D01*
G37*
G36*
X-84451444Y64241172D02*
G01*
X-84451444Y64224407D01*
X-84316316Y64224407D01*
X-84316316Y64206120D01*
X-84316570Y64199566D01*
X-84317382Y64193470D01*
X-84318703Y64187781D01*
X-84320583Y64182548D01*
X-84322869Y64177722D01*
X-84325714Y64173303D01*
X-84328965Y64169340D01*
X-84332724Y64165784D01*
X-84336890Y64162686D01*
X-84341512Y64159993D01*
X-84346542Y64157707D01*
X-84351977Y64155828D01*
X-84357819Y64154405D01*
X-84364017Y64153338D01*
X-84370621Y64152729D01*
X-84377530Y64152526D01*
X-84384489Y64152729D01*
X-84391042Y64153338D01*
X-84397189Y64154405D01*
X-84402980Y64155828D01*
X-84408314Y64157707D01*
X-84413242Y64159993D01*
X-84417712Y64162686D01*
X-84421776Y64165784D01*
X-84425383Y64169340D01*
X-84428533Y64173303D01*
X-84431225Y64177722D01*
X-84433460Y64182548D01*
X-84435188Y64187781D01*
X-84436458Y64193470D01*
X-84437220Y64199566D01*
X-84437474Y64206120D01*
X-84437474Y64224407D01*
X-84451444Y64224407D01*
X-84451444Y64204596D01*
X-84451240Y64197890D01*
X-84450631Y64191540D01*
X-84449615Y64185495D01*
X-84448243Y64179805D01*
X-84446465Y64174471D01*
X-84444332Y64169442D01*
X-84441792Y64164768D01*
X-84438896Y64160450D01*
X-84435645Y64156437D01*
X-84431987Y64152779D01*
X-84428025Y64149478D01*
X-84423758Y64146480D01*
X-84419084Y64143890D01*
X-84414106Y64141604D01*
X-84408772Y64139673D01*
X-84403184Y64138098D01*
X-84397240Y64136828D01*
X-84390941Y64135965D01*
X-84384388Y64135406D01*
X-84377530Y64135254D01*
X-84370672Y64135406D01*
X-84364068Y64135965D01*
X-84357768Y64136828D01*
X-84351774Y64138048D01*
X-84346084Y64139673D01*
X-84340750Y64141553D01*
X-84335670Y64143839D01*
X-84330946Y64146480D01*
X-84326577Y64149427D01*
X-84322513Y64152729D01*
X-84318856Y64156336D01*
X-84315503Y64160349D01*
X-84312556Y64164616D01*
X-84309966Y64169290D01*
X-84307730Y64174268D01*
X-84305902Y64179551D01*
X-84304479Y64185190D01*
X-84303412Y64191184D01*
X-84302803Y64197484D01*
X-84302600Y64204088D01*
X-84302600Y64241172D01*
G37*
G36*
X-84357464Y64112394D02*
G01*
X-84363966Y64112140D01*
X-84370164Y64111327D01*
X-84376006Y64110057D01*
X-84381492Y64108329D01*
X-84386572Y64106145D01*
X-84391347Y64103605D01*
X-84395665Y64100659D01*
X-84399628Y64097407D01*
X-84403133Y64093852D01*
X-84406232Y64090042D01*
X-84408924Y64085978D01*
X-84411108Y64081761D01*
X-84412836Y64077342D01*
X-84414106Y64072770D01*
X-84414868Y64068096D01*
X-84415122Y64063372D01*
X-84401660Y64063372D01*
X-84401050Y64069366D01*
X-84399272Y64075005D01*
X-84396326Y64080288D01*
X-84392262Y64085012D01*
X-84387182Y64089076D01*
X-84381086Y64092328D01*
X-84374024Y64094715D01*
X-84366100Y64096138D01*
X-84366100Y64034924D01*
X-84374329Y64035431D01*
X-84381492Y64036854D01*
X-84387639Y64039191D01*
X-84392617Y64042391D01*
X-84396580Y64046455D01*
X-84399374Y64051332D01*
X-84401101Y64056971D01*
X-84401660Y64063372D01*
X-84415122Y64063372D01*
X-84414715Y64056768D01*
X-84413547Y64050672D01*
X-84411566Y64045033D01*
X-84408873Y64040004D01*
X-84405470Y64035482D01*
X-84401355Y64031520D01*
X-84396630Y64028116D01*
X-84391246Y64025272D01*
X-84385200Y64023087D01*
X-84378647Y64021462D01*
X-84371484Y64020496D01*
X-84361020Y64020242D01*
X-84355990Y64020598D01*
X-84353908Y64020954D01*
X-84353908Y64095884D01*
X-84347964Y64095376D01*
X-84342427Y64094258D01*
X-84337245Y64092683D01*
X-84332521Y64090600D01*
X-84328254Y64088010D01*
X-84324444Y64085012D01*
X-84321142Y64081507D01*
X-84318398Y64077646D01*
X-84316163Y64073328D01*
X-84314588Y64068655D01*
X-84313623Y64063676D01*
X-84313268Y64058292D01*
X-84313877Y64050621D01*
X-84315604Y64043509D01*
X-84318398Y64036854D01*
X-84322158Y64030605D01*
X-84311236Y64024510D01*
X-84306918Y64031926D01*
X-84305038Y64035940D01*
X-84303362Y64040207D01*
X-84301990Y64044779D01*
X-84300923Y64049605D01*
X-84300314Y64054786D01*
X-84300060Y64060324D01*
X-84300314Y64065657D01*
X-84301025Y64070890D01*
X-84302244Y64075868D01*
X-84303971Y64080694D01*
X-84306105Y64085216D01*
X-84308696Y64089534D01*
X-84311744Y64093547D01*
X-84315249Y64097204D01*
X-84319160Y64100557D01*
X-84323428Y64103554D01*
X-84328152Y64106145D01*
X-84333283Y64108329D01*
X-84338769Y64110057D01*
X-84344662Y64111327D01*
X-84350860Y64112140D01*
G37*
G36*
X-84315046Y64005205D02*
G01*
X-84326222Y63996824D01*
X-84320837Y63989508D01*
X-84316671Y63981838D01*
X-84313979Y63973405D01*
X-84313014Y63963804D01*
X-84314436Y63953796D01*
X-84318348Y63946684D01*
X-84324139Y63942366D01*
X-84331302Y63940944D01*
X-84335416Y63941553D01*
X-84338972Y63943179D01*
X-84342071Y63945770D01*
X-84344764Y63949122D01*
X-84347151Y63953034D01*
X-84349234Y63957352D01*
X-84355076Y63972440D01*
X-84357565Y63978231D01*
X-84360410Y63983717D01*
X-84363763Y63988645D01*
X-84367725Y63992912D01*
X-84372450Y63996214D01*
X-84377936Y63998348D01*
X-84384388Y63999110D01*
X-84390687Y63998449D01*
X-84396478Y63996620D01*
X-84401710Y63993522D01*
X-84406232Y63989305D01*
X-84409940Y63983971D01*
X-84412734Y63977570D01*
X-84414512Y63970154D01*
X-84415122Y63961772D01*
X-84414156Y63952120D01*
X-84411616Y63943179D01*
X-84407705Y63935152D01*
X-84402930Y63928244D01*
X-84392262Y63936372D01*
X-84396021Y63942112D01*
X-84399069Y63948106D01*
X-84401152Y63954609D01*
X-84401914Y63961772D01*
X-84400593Y63971220D01*
X-84396986Y63977875D01*
X-84391754Y63981787D01*
X-84385404Y63983107D01*
X-84378241Y63981126D01*
X-84373008Y63975792D01*
X-84369046Y63968122D01*
X-84363204Y63952932D01*
X-84360613Y63946938D01*
X-84357667Y63941248D01*
X-84354263Y63936067D01*
X-84350148Y63931647D01*
X-84345221Y63928244D01*
X-84339226Y63926008D01*
X-84332064Y63925196D01*
X-84325663Y63925856D01*
X-84319668Y63927736D01*
X-84314233Y63930885D01*
X-84309508Y63935254D01*
X-84305546Y63940791D01*
X-84302600Y63947497D01*
X-84300720Y63955320D01*
X-84300060Y63964312D01*
X-84300364Y63970154D01*
X-84301177Y63975894D01*
X-84302549Y63981431D01*
X-84304327Y63986765D01*
X-84306511Y63991845D01*
X-84309051Y63996620D01*
X-84311947Y64001091D01*
G37*
G36*
X-84447380Y63901574D02*
G01*
X-84452002Y63900710D01*
X-84455558Y63898322D01*
X-84457794Y63894614D01*
X-84458556Y63889890D01*
X-84457794Y63885419D01*
X-84455558Y63881812D01*
X-84452002Y63879374D01*
X-84447380Y63878460D01*
X-84442604Y63879374D01*
X-84438998Y63881812D01*
X-84436712Y63885419D01*
X-84435950Y63889890D01*
X-84436712Y63894614D01*
X-84438998Y63898322D01*
X-84442604Y63900710D01*
G37*
G36*
X-84412328Y63898272D02*
G01*
X-84412328Y63881762D01*
X-84302600Y63881762D01*
X-84302600Y63898272D01*
G37*
G36*
X-84281264Y63852298D02*
G01*
X-84288223Y63851180D01*
X-84294878Y63847979D01*
X-84301025Y63842849D01*
X-84306410Y63836042D01*
X-84307172Y63836042D01*
X-84310270Y63840055D01*
X-84314334Y63843204D01*
X-84319364Y63845236D01*
X-84325460Y63845948D01*
X-84331911Y63844830D01*
X-84337499Y63841934D01*
X-84342173Y63838023D01*
X-84345780Y63833755D01*
X-84346542Y63833755D01*
X-84351672Y63838988D01*
X-84358530Y63843560D01*
X-84366811Y63846760D01*
X-84376260Y63847979D01*
X-84381949Y63847624D01*
X-84387232Y63846506D01*
X-84392211Y63844779D01*
X-84396732Y63842392D01*
X-84400796Y63839496D01*
X-84404454Y63836042D01*
X-84407603Y63832130D01*
X-84410245Y63827812D01*
X-84412328Y63823138D01*
X-84413852Y63818109D01*
X-84414817Y63812826D01*
X-84415122Y63807340D01*
X-84402676Y63807340D01*
X-84402218Y63812318D01*
X-84400847Y63816992D01*
X-84398662Y63821157D01*
X-84395665Y63824815D01*
X-84391855Y63827812D01*
X-84387334Y63830047D01*
X-84382152Y63831470D01*
X-84376260Y63831978D01*
X-84370265Y63831470D01*
X-84364880Y63829996D01*
X-84360207Y63827660D01*
X-84356244Y63824612D01*
X-84353095Y63820954D01*
X-84350758Y63816738D01*
X-84349336Y63812166D01*
X-84348828Y63807340D01*
X-84349336Y63802514D01*
X-84350758Y63797942D01*
X-84353095Y63793827D01*
X-84356244Y63790220D01*
X-84360207Y63787172D01*
X-84364880Y63784886D01*
X-84370265Y63783464D01*
X-84376260Y63782955D01*
X-84382051Y63783464D01*
X-84387232Y63784886D01*
X-84391754Y63787172D01*
X-84395564Y63790220D01*
X-84398612Y63793827D01*
X-84400847Y63797942D01*
X-84402218Y63802514D01*
X-84402676Y63807340D01*
X-84415122Y63807340D01*
X-84414918Y63802971D01*
X-84414309Y63798957D01*
X-84412328Y63792100D01*
X-84412328Y63754254D01*
X-84399628Y63754254D01*
X-84399628Y63777368D01*
X-84395056Y63773507D01*
X-84389417Y63770459D01*
X-84382914Y63768427D01*
X-84375752Y63767716D01*
X-84370113Y63768071D01*
X-84364779Y63769138D01*
X-84359902Y63770814D01*
X-84355432Y63773100D01*
X-84351368Y63775894D01*
X-84347812Y63779247D01*
X-84344713Y63783057D01*
X-84342173Y63787223D01*
X-84340090Y63791846D01*
X-84338617Y63796722D01*
X-84337702Y63801904D01*
X-84337398Y63807340D01*
X-84337652Y63811657D01*
X-84338363Y63816026D01*
X-84339633Y63820344D01*
X-84341462Y63824357D01*
X-84338718Y63827202D01*
X-84335620Y63829590D01*
X-84331962Y63831165D01*
X-84327492Y63831724D01*
X-84322564Y63830758D01*
X-84318703Y63827558D01*
X-84317901Y63825628D01*
X-84303108Y63825628D01*
X-84298383Y63831063D01*
X-84293405Y63834873D01*
X-84288325Y63837108D01*
X-84283296Y63837820D01*
X-84278927Y63837261D01*
X-84275015Y63835534D01*
X-84271612Y63832790D01*
X-84268665Y63829031D01*
X-84266379Y63824307D01*
X-84264652Y63818617D01*
X-84263585Y63812115D01*
X-84263230Y63804800D01*
X-84263738Y63796976D01*
X-84265262Y63789966D01*
X-84267548Y63783768D01*
X-84270545Y63778587D01*
X-84274152Y63774370D01*
X-84278114Y63771272D01*
X-84282432Y63769392D01*
X-84286852Y63768731D01*
X-84293557Y63770205D01*
X-84297977Y63774523D01*
X-84300364Y63781686D01*
X-84301076Y63791592D01*
X-84301076Y63811657D01*
X-84301634Y63818058D01*
X-84303108Y63825628D01*
X-84317901Y63825628D01*
X-84316214Y63821564D01*
X-84315300Y63812166D01*
X-84315300Y63790068D01*
X-84314893Y63781228D01*
X-84313725Y63773608D01*
X-84311794Y63767106D01*
X-84309000Y63761823D01*
X-84305343Y63757759D01*
X-84300822Y63754812D01*
X-84295437Y63753034D01*
X-84289138Y63752476D01*
X-84284261Y63752933D01*
X-84279486Y63754203D01*
X-84274914Y63756336D01*
X-84270596Y63759232D01*
X-84266582Y63762890D01*
X-84262925Y63767309D01*
X-84259674Y63772389D01*
X-84256880Y63778129D01*
X-84254644Y63784530D01*
X-84252968Y63791490D01*
X-84251901Y63799008D01*
X-84251546Y63807086D01*
X-84251749Y63813639D01*
X-84252460Y63819786D01*
X-84253527Y63825526D01*
X-84255051Y63830758D01*
X-84257032Y63835534D01*
X-84259369Y63839801D01*
X-84262112Y63843458D01*
X-84265211Y63846557D01*
X-84268665Y63848996D01*
X-84272526Y63850824D01*
X-84276742Y63851942D01*
G37*
G36*
X-84412328Y63730378D02*
G01*
X-84412328Y63716916D01*
X-84396326Y63715392D01*
X-84396326Y63714884D01*
X-84400136Y63710820D01*
X-84403641Y63706705D01*
X-84406841Y63702438D01*
X-84409635Y63697967D01*
X-84411921Y63693294D01*
X-84413648Y63688417D01*
X-84414766Y63683235D01*
X-84415122Y63677800D01*
X-84414817Y63672313D01*
X-84413902Y63667386D01*
X-84412378Y63662915D01*
X-84410245Y63658953D01*
X-84407552Y63655448D01*
X-84404250Y63652450D01*
X-84400339Y63649961D01*
X-84395868Y63647878D01*
X-84390788Y63646304D01*
X-84385150Y63645186D01*
X-84378952Y63644475D01*
X-84372196Y63644272D01*
X-84302600Y63644272D01*
X-84302600Y63661036D01*
X-84370164Y63661036D01*
X-84377580Y63661340D01*
X-84383930Y63662255D01*
X-84389163Y63663829D01*
X-84393379Y63666116D01*
X-84396630Y63669113D01*
X-84398866Y63672821D01*
X-84400186Y63677342D01*
X-84400644Y63682626D01*
X-84400339Y63686842D01*
X-84399526Y63690855D01*
X-84398104Y63694716D01*
X-84396122Y63698424D01*
X-84393633Y63702133D01*
X-84390585Y63705892D01*
X-84386978Y63709804D01*
X-84382864Y63713868D01*
X-84302600Y63713868D01*
X-84302600Y63730378D01*
G37*
G36*
X-84365846Y63572136D02*
G01*
X-84365846Y63520828D01*
X-84352892Y63520828D01*
X-84352892Y63572136D01*
G37*
G36*
X-84451444Y63445644D02*
G01*
X-84451444Y63428879D01*
X-84376514Y63428879D01*
X-84376514Y63406020D01*
X-84376717Y63399517D01*
X-84377326Y63393624D01*
X-84378342Y63388290D01*
X-84379816Y63383515D01*
X-84381746Y63379350D01*
X-84384083Y63375743D01*
X-84386928Y63372746D01*
X-84390230Y63370256D01*
X-84393989Y63368326D01*
X-84398256Y63366954D01*
X-84402980Y63366142D01*
X-84408264Y63365888D01*
X-84413547Y63366192D01*
X-84418220Y63367056D01*
X-84422284Y63368478D01*
X-84425840Y63370460D01*
X-84428838Y63373050D01*
X-84431378Y63376200D01*
X-84433460Y63379908D01*
X-84435035Y63384176D01*
X-84436254Y63389052D01*
X-84437118Y63394488D01*
X-84437575Y63400482D01*
X-84437728Y63428879D01*
X-84451444Y63428879D01*
X-84451291Y63398349D01*
X-84450885Y63392507D01*
X-84450224Y63386919D01*
X-84449208Y63381686D01*
X-84447888Y63376810D01*
X-84446211Y63372238D01*
X-84444230Y63368072D01*
X-84441842Y63364211D01*
X-84439099Y63360807D01*
X-84436000Y63357810D01*
X-84432444Y63355220D01*
X-84428533Y63353086D01*
X-84424113Y63351359D01*
X-84419287Y63350140D01*
X-84414004Y63349378D01*
X-84408264Y63349124D01*
X-84402625Y63349378D01*
X-84397392Y63350140D01*
X-84392566Y63351359D01*
X-84388096Y63353035D01*
X-84383981Y63355118D01*
X-84380273Y63357709D01*
X-84376920Y63360655D01*
X-84373923Y63364059D01*
X-84371281Y63367818D01*
X-84368995Y63371933D01*
X-84367116Y63376454D01*
X-84365541Y63381280D01*
X-84364322Y63386411D01*
X-84363458Y63391897D01*
X-84362950Y63397688D01*
X-84362798Y63428879D01*
X-84302600Y63428879D01*
X-84302600Y63445644D01*
G37*
G36*
X-84330794Y63336931D02*
G01*
X-84335162Y63336678D01*
X-84339277Y63335966D01*
X-84343087Y63334696D01*
X-84346643Y63332918D01*
X-84349945Y63330683D01*
X-84352993Y63327838D01*
X-84355838Y63324486D01*
X-84358429Y63320625D01*
X-84360766Y63316154D01*
X-84362950Y63311176D01*
X-84364880Y63305588D01*
X-84366658Y63299441D01*
X-84368233Y63292685D01*
X-84369656Y63285370D01*
X-84371942Y63268860D01*
X-84360766Y63268860D01*
X-84359546Y63278054D01*
X-84358073Y63286233D01*
X-84356397Y63293396D01*
X-84354568Y63299644D01*
X-84352485Y63304978D01*
X-84350199Y63309449D01*
X-84347710Y63313157D01*
X-84344967Y63316053D01*
X-84342020Y63318237D01*
X-84338820Y63319761D01*
X-84335416Y63320625D01*
X-84331810Y63320929D01*
X-84323326Y63319304D01*
X-84317586Y63314986D01*
X-84314284Y63308484D01*
X-84313268Y63300610D01*
X-84314233Y63292481D01*
X-84317179Y63284760D01*
X-84321954Y63276988D01*
X-84328508Y63268860D01*
X-84371942Y63268860D01*
X-84377428Y63269114D01*
X-84382762Y63269876D01*
X-84387740Y63271298D01*
X-84392211Y63273482D01*
X-84395970Y63276581D01*
X-84398866Y63280645D01*
X-84400745Y63285827D01*
X-84401406Y63292228D01*
X-84400339Y63301879D01*
X-84397494Y63310820D01*
X-84393582Y63318847D01*
X-84389214Y63325755D01*
X-84400644Y63332360D01*
X-84405571Y63324130D01*
X-84408010Y63319304D01*
X-84410245Y63314072D01*
X-84412226Y63308433D01*
X-84413750Y63302489D01*
X-84414766Y63296241D01*
X-84415122Y63289688D01*
X-84414766Y63283338D01*
X-84413648Y63277699D01*
X-84411870Y63272619D01*
X-84409483Y63268199D01*
X-84406435Y63264389D01*
X-84402777Y63261138D01*
X-84398612Y63258446D01*
X-84393938Y63256312D01*
X-84388756Y63254636D01*
X-84383118Y63253518D01*
X-84377072Y63252807D01*
X-84370672Y63252604D01*
X-84302600Y63252604D01*
X-84302600Y63266066D01*
X-84316062Y63267590D01*
X-84316062Y63268098D01*
X-84312810Y63272162D01*
X-84309813Y63276429D01*
X-84307070Y63280848D01*
X-84304733Y63285420D01*
X-84302803Y63290145D01*
X-84301330Y63294971D01*
X-84300364Y63300000D01*
X-84300060Y63305181D01*
X-84300568Y63311735D01*
X-84302092Y63317729D01*
X-84304581Y63323165D01*
X-84307984Y63327838D01*
X-84312353Y63331648D01*
X-84317636Y63334493D01*
X-84323783Y63336322D01*
G37*
G36*
X-84411312Y63233046D02*
G01*
X-84412328Y63215774D01*
X-84443316Y63213742D01*
X-84443316Y63199772D01*
X-84412328Y63199772D01*
X-84412328Y63169546D01*
X-84398612Y63169546D01*
X-84398612Y63199772D01*
X-84335112Y63199772D01*
X-84326069Y63198908D01*
X-84319262Y63196114D01*
X-84314995Y63190780D01*
X-84313522Y63182500D01*
X-84313776Y63179299D01*
X-84314487Y63175946D01*
X-84315452Y63172695D01*
X-84316570Y63169800D01*
X-84304124Y63166498D01*
X-84301330Y63176302D01*
X-84300415Y63181280D01*
X-84300060Y63186055D01*
X-84300720Y63193929D01*
X-84302600Y63200432D01*
X-84305698Y63205664D01*
X-84309813Y63209728D01*
X-84314995Y63212726D01*
X-84321040Y63214757D01*
X-84327949Y63215926D01*
X-84335620Y63216281D01*
X-84398612Y63216281D01*
X-84398612Y63233046D01*
G37*
G36*
X-84412328Y63144400D02*
G01*
X-84412328Y63130938D01*
X-84392262Y63129414D01*
X-84392262Y63128652D01*
X-84397189Y63125705D01*
X-84401609Y63122454D01*
X-84405520Y63118898D01*
X-84408822Y63115088D01*
X-84411515Y63110973D01*
X-84413496Y63106706D01*
X-84414715Y63102286D01*
X-84415122Y63097664D01*
X-84415020Y63094463D01*
X-84414664Y63091517D01*
X-84413953Y63088774D01*
X-84412836Y63085979D01*
X-84398358Y63089281D01*
X-84399729Y63094311D01*
X-84400136Y63099696D01*
X-84399780Y63103302D01*
X-84398764Y63107011D01*
X-84396986Y63110821D01*
X-84394344Y63114580D01*
X-84390788Y63118187D01*
X-84386318Y63121692D01*
X-84380832Y63124943D01*
X-84374228Y63127890D01*
X-84302600Y63127890D01*
X-84302600Y63144400D01*
G37*
G36*
X-84447380Y63070740D02*
G01*
X-84452002Y63069876D01*
X-84455558Y63067488D01*
X-84457794Y63063780D01*
X-84458556Y63059055D01*
X-84457794Y63054484D01*
X-84455558Y63050877D01*
X-84452002Y63048489D01*
X-84447380Y63047626D01*
X-84442604Y63048489D01*
X-84438998Y63050877D01*
X-84436712Y63054484D01*
X-84435950Y63059055D01*
X-84436712Y63063780D01*
X-84438998Y63067488D01*
X-84442604Y63069876D01*
G37*
G36*
X-84412328Y63067438D02*
G01*
X-84412328Y63050928D01*
X-84302600Y63050928D01*
X-84302600Y63067438D01*
G37*
G36*
X-84357464Y63021210D02*
G01*
X-84364118Y63020905D01*
X-84370418Y63020092D01*
X-84376361Y63018771D01*
X-84381898Y63016942D01*
X-84387029Y63014707D01*
X-84391804Y63012015D01*
X-84396122Y63008967D01*
X-84399983Y63005563D01*
X-84403488Y63001804D01*
X-84406536Y62997791D01*
X-84409127Y62993473D01*
X-84411261Y62988952D01*
X-84412937Y62984227D01*
X-84414156Y62979350D01*
X-84414868Y62974270D01*
X-84415122Y62969140D01*
X-84414055Y62959081D01*
X-84411159Y62950547D01*
X-84406994Y62943231D01*
X-84401914Y62936881D01*
X-84391246Y62945772D01*
X-84395259Y62950699D01*
X-84398408Y62956033D01*
X-84400440Y62961875D01*
X-84401152Y62968378D01*
X-84400796Y62973407D01*
X-84399729Y62978182D01*
X-84397951Y62982652D01*
X-84395564Y62986818D01*
X-84392566Y62990577D01*
X-84389010Y62993981D01*
X-84384896Y62996978D01*
X-84380324Y62999467D01*
X-84375244Y63001499D01*
X-84369706Y63002972D01*
X-84363763Y63003887D01*
X-84357464Y63004192D01*
X-84351114Y63003887D01*
X-84345119Y63003023D01*
X-84339582Y63001652D01*
X-84334502Y62999721D01*
X-84329879Y62997334D01*
X-84325815Y62994438D01*
X-84322259Y62991136D01*
X-84319313Y62987428D01*
X-84316925Y62983313D01*
X-84315198Y62978842D01*
X-84314131Y62974016D01*
X-84313776Y62968886D01*
X-84314639Y62961266D01*
X-84317078Y62954204D01*
X-84320634Y62947804D01*
X-84324952Y62942216D01*
X-84314030Y62934850D01*
X-84310880Y62938660D01*
X-84308086Y62942673D01*
X-84305698Y62946889D01*
X-84303717Y62951258D01*
X-84302142Y62955779D01*
X-84300974Y62960453D01*
X-84300314Y62965228D01*
X-84300060Y62970155D01*
X-84300314Y62975490D01*
X-84301025Y62980671D01*
X-84302244Y62985599D01*
X-84303920Y62990374D01*
X-84306054Y62994844D01*
X-84308645Y62999010D01*
X-84311693Y63002922D01*
X-84315147Y63006528D01*
X-84319008Y63009779D01*
X-84323326Y63012675D01*
X-84328050Y63015215D01*
X-84333181Y63017298D01*
X-84338668Y63018974D01*
X-84344560Y63020194D01*
X-84350809Y63020955D01*
G37*
G36*
X-84464398Y62909957D02*
G01*
X-84464398Y62893702D01*
X-84352384Y62893702D01*
X-84352384Y62892940D01*
X-84412328Y62844679D01*
X-84412328Y62826138D01*
X-84368132Y62862460D01*
X-84302600Y62821057D01*
X-84302600Y62839092D01*
X-84356956Y62872366D01*
X-84331810Y62893702D01*
X-84302600Y62893702D01*
X-84302600Y62909957D01*
G37*
G36*
X-84451444Y62752731D02*
G01*
X-84451444Y62735968D01*
X-84388452Y62735968D01*
X-84388452Y62664340D01*
X-84451444Y62664340D01*
X-84451444Y62647322D01*
X-84302600Y62647322D01*
X-84302600Y62664340D01*
X-84373720Y62664340D01*
X-84373720Y62735968D01*
X-84302600Y62735968D01*
X-84302600Y62752731D01*
G37*
G36*
X-84357464Y62616079D02*
G01*
X-84363966Y62615826D01*
X-84370164Y62615013D01*
X-84376006Y62613692D01*
X-84381492Y62611965D01*
X-84386572Y62609780D01*
X-84391347Y62607190D01*
X-84395665Y62604243D01*
X-84399628Y62600992D01*
X-84403133Y62597436D01*
X-84406232Y62593626D01*
X-84408924Y62589562D01*
X-84411108Y62585346D01*
X-84412836Y62580926D01*
X-84414106Y62576405D01*
X-84414868Y62571731D01*
X-84415106Y62566804D01*
X-84401660Y62566804D01*
X-84401050Y62572798D01*
X-84399272Y62578488D01*
X-84396326Y62583771D01*
X-84392262Y62588546D01*
X-84387182Y62592661D01*
X-84381086Y62595963D01*
X-84374024Y62598401D01*
X-84366100Y62599824D01*
X-84366100Y62538355D01*
X-84374329Y62538864D01*
X-84381492Y62540286D01*
X-84387639Y62542674D01*
X-84392617Y62545925D01*
X-84396580Y62549989D01*
X-84399374Y62554866D01*
X-84401101Y62560454D01*
X-84401660Y62566804D01*
X-84415106Y62566804D01*
X-84414715Y62560454D01*
X-84413547Y62554357D01*
X-84411566Y62548719D01*
X-84408873Y62543690D01*
X-84405470Y62539168D01*
X-84401355Y62535206D01*
X-84396630Y62531802D01*
X-84391246Y62528957D01*
X-84385200Y62526773D01*
X-84378647Y62525148D01*
X-84371484Y62524182D01*
X-84361020Y62523928D01*
X-84355990Y62524284D01*
X-84353908Y62524640D01*
X-84353908Y62599570D01*
X-84347964Y62599062D01*
X-84342427Y62597944D01*
X-84337245Y62596369D01*
X-84332521Y62594286D01*
X-84328254Y62591696D01*
X-84324444Y62588698D01*
X-84321142Y62585193D01*
X-84318398Y62581332D01*
X-84316163Y62577014D01*
X-84314588Y62572341D01*
X-84313623Y62567362D01*
X-84313268Y62561978D01*
X-84313877Y62554307D01*
X-84315604Y62547195D01*
X-84318398Y62540540D01*
X-84322158Y62534292D01*
X-84311236Y62528196D01*
X-84306918Y62535612D01*
X-84305038Y62539626D01*
X-84303362Y62543893D01*
X-84301990Y62548465D01*
X-84300923Y62553291D01*
X-84300314Y62558472D01*
X-84300060Y62564010D01*
X-84300314Y62569344D01*
X-84301025Y62574576D01*
X-84302244Y62579554D01*
X-84303971Y62584380D01*
X-84306105Y62588902D01*
X-84308696Y62593220D01*
X-84311744Y62597233D01*
X-84315249Y62600890D01*
X-84319160Y62604243D01*
X-84323428Y62607240D01*
X-84328152Y62609831D01*
X-84333283Y62612016D01*
X-84338769Y62613743D01*
X-84344662Y62615013D01*
X-84350860Y62615826D01*
G37*
G36*
X-84412328Y62495938D02*
G01*
X-84412328Y62482476D01*
X-84396326Y62480952D01*
X-84396326Y62480444D01*
X-84400136Y62476379D01*
X-84403641Y62472265D01*
X-84406841Y62467998D01*
X-84409635Y62463527D01*
X-84411921Y62458854D01*
X-84413648Y62453977D01*
X-84414766Y62448795D01*
X-84415122Y62443360D01*
X-84414817Y62437873D01*
X-84413902Y62432946D01*
X-84412378Y62428475D01*
X-84410245Y62424513D01*
X-84407552Y62421007D01*
X-84404250Y62418010D01*
X-84400339Y62415521D01*
X-84395868Y62413438D01*
X-84390788Y62411864D01*
X-84385150Y62410746D01*
X-84378952Y62410035D01*
X-84372196Y62409831D01*
X-84302600Y62409831D01*
X-84302600Y62426596D01*
X-84370164Y62426596D01*
X-84377580Y62426900D01*
X-84383930Y62427815D01*
X-84389163Y62429390D01*
X-84393379Y62431676D01*
X-84396630Y62434673D01*
X-84398866Y62438381D01*
X-84400186Y62442902D01*
X-84400644Y62448186D01*
X-84400339Y62452402D01*
X-84399526Y62456415D01*
X-84398104Y62460276D01*
X-84396122Y62463984D01*
X-84393633Y62467693D01*
X-84390585Y62471452D01*
X-84386978Y62475364D01*
X-84382864Y62479428D01*
X-84302600Y62479428D01*
X-84302600Y62495938D01*
G37*
G36*
X-84357464Y62381638D02*
G01*
X-84363966Y62381384D01*
X-84370164Y62380571D01*
X-84376006Y62379250D01*
X-84381492Y62377523D01*
X-84386572Y62375338D01*
X-84391347Y62372748D01*
X-84395665Y62369801D01*
X-84399628Y62366550D01*
X-84403133Y62362994D01*
X-84406232Y62359184D01*
X-84408924Y62355120D01*
X-84411108Y62350904D01*
X-84412836Y62346484D01*
X-84414106Y62341963D01*
X-84414868Y62337289D01*
X-84415106Y62332362D01*
X-84401660Y62332362D01*
X-84401050Y62338356D01*
X-84399272Y62344046D01*
X-84396326Y62349329D01*
X-84392262Y62354104D01*
X-84387182Y62358219D01*
X-84381086Y62361521D01*
X-84374024Y62363959D01*
X-84366100Y62365381D01*
X-84366100Y62303914D01*
X-84374329Y62304422D01*
X-84381492Y62305844D01*
X-84387639Y62308231D01*
X-84392617Y62311483D01*
X-84396580Y62315547D01*
X-84399374Y62320424D01*
X-84401101Y62326012D01*
X-84401660Y62332362D01*
X-84415106Y62332362D01*
X-84414715Y62326012D01*
X-84413547Y62319916D01*
X-84411566Y62314277D01*
X-84408873Y62309248D01*
X-84405470Y62304726D01*
X-84401355Y62300764D01*
X-84396630Y62297360D01*
X-84391246Y62294516D01*
X-84385200Y62292331D01*
X-84378647Y62290705D01*
X-84371484Y62289740D01*
X-84361020Y62289436D01*
X-84355990Y62289740D01*
X-84353908Y62290198D01*
X-84353908Y62365128D01*
X-84347964Y62364569D01*
X-84342427Y62363502D01*
X-84337245Y62361876D01*
X-84332521Y62359794D01*
X-84328254Y62357203D01*
X-84324444Y62354155D01*
X-84321142Y62350650D01*
X-84318398Y62346789D01*
X-84316163Y62342471D01*
X-84314588Y62337848D01*
X-84313623Y62332870D01*
X-84313268Y62327536D01*
X-84313877Y62319814D01*
X-84315604Y62312600D01*
X-84318398Y62305895D01*
X-84322158Y62299596D01*
X-84311236Y62293500D01*
X-84306918Y62301069D01*
X-84305038Y62305133D01*
X-84303362Y62309451D01*
X-84301990Y62314023D01*
X-84300923Y62318849D01*
X-84300314Y62324030D01*
X-84300060Y62329568D01*
X-84300314Y62334902D01*
X-84301025Y62340134D01*
X-84302244Y62345112D01*
X-84303971Y62349938D01*
X-84306105Y62354460D01*
X-84308696Y62358778D01*
X-84311744Y62362791D01*
X-84315249Y62366448D01*
X-84319160Y62369801D01*
X-84323428Y62372798D01*
X-84328152Y62375389D01*
X-84333283Y62377574D01*
X-84338769Y62379301D01*
X-84344662Y62380571D01*
X-84350860Y62381384D01*
G37*
G36*
X-84412328Y62261496D02*
G01*
X-84412328Y62248034D01*
X-84392262Y62246510D01*
X-84392262Y62245748D01*
X-84397189Y62242801D01*
X-84401609Y62239550D01*
X-84405520Y62235994D01*
X-84408822Y62232184D01*
X-84411515Y62228069D01*
X-84413496Y62223802D01*
X-84414715Y62219382D01*
X-84415122Y62214760D01*
X-84415020Y62211559D01*
X-84414664Y62208613D01*
X-84413953Y62205870D01*
X-84412836Y62203076D01*
X-84398358Y62206378D01*
X-84399729Y62211407D01*
X-84400136Y62216792D01*
X-84399780Y62220398D01*
X-84398764Y62224107D01*
X-84396986Y62227917D01*
X-84394344Y62231676D01*
X-84390788Y62235283D01*
X-84386318Y62238788D01*
X-84380832Y62242039D01*
X-84374228Y62244986D01*
X-84302600Y62244986D01*
X-84302600Y62261496D01*
G37*
G36*
X-84158328Y64242696D02*
G01*
X-84158328Y64229234D01*
X-84145628Y64227710D01*
X-84145628Y64226948D01*
X-84151470Y64218972D01*
X-84154111Y64214705D01*
X-84156397Y64210336D01*
X-84158378Y64205815D01*
X-84159852Y64201192D01*
X-84160841Y64195452D01*
X-84147152Y64195452D01*
X-84146136Y64202767D01*
X-84143088Y64210234D01*
X-84138160Y64218007D01*
X-84131404Y64226186D01*
X-84071968Y64226186D01*
X-84066329Y64218464D01*
X-84062671Y64211098D01*
X-84060639Y64204240D01*
X-84060030Y64198246D01*
X-84060385Y64193572D01*
X-84061452Y64189152D01*
X-84063179Y64184987D01*
X-84065516Y64181177D01*
X-84068513Y64177621D01*
X-84072120Y64174471D01*
X-84076286Y64171677D01*
X-84081010Y64169340D01*
X-84086293Y64167512D01*
X-84092034Y64166089D01*
X-84098282Y64165276D01*
X-84104988Y64164972D01*
X-84111033Y64165175D01*
X-84116773Y64165734D01*
X-84122056Y64166648D01*
X-84126984Y64168020D01*
X-84131454Y64169798D01*
X-84135417Y64172033D01*
X-84138871Y64174674D01*
X-84141767Y64177824D01*
X-84144053Y64181481D01*
X-84145780Y64185596D01*
X-84146796Y64190270D01*
X-84147152Y64195452D01*
X-84160841Y64195452D01*
X-84161122Y64191642D01*
X-84160868Y64186409D01*
X-84160106Y64181532D01*
X-84158836Y64176910D01*
X-84157159Y64172642D01*
X-84154975Y64168731D01*
X-84152333Y64165124D01*
X-84149285Y64161873D01*
X-84145831Y64158926D01*
X-84142021Y64156285D01*
X-84137754Y64154050D01*
X-84133182Y64152119D01*
X-84128203Y64150544D01*
X-84122920Y64149274D01*
X-84117332Y64148411D01*
X-84111439Y64147903D01*
X-84105242Y64147700D01*
X-84098384Y64147954D01*
X-84091881Y64148716D01*
X-84085836Y64149935D01*
X-84080146Y64151611D01*
X-84074863Y64153694D01*
X-84069986Y64156183D01*
X-84065567Y64159028D01*
X-84061554Y64162178D01*
X-84057998Y64165632D01*
X-84054848Y64169340D01*
X-84052206Y64173303D01*
X-84050022Y64177468D01*
X-84048295Y64181837D01*
X-84047076Y64186358D01*
X-84046314Y64190981D01*
X-84046060Y64195705D01*
X-84046923Y64203376D01*
X-84049362Y64211098D01*
X-84053324Y64218870D01*
X-84058760Y64226694D01*
X-84039456Y64226186D01*
X-84001356Y64226186D01*
X-84001356Y64242696D01*
G37*
G36*
X-84076794Y64128142D02*
G01*
X-84081162Y64127888D01*
X-84085277Y64127126D01*
X-84089087Y64125906D01*
X-84092643Y64124128D01*
X-84095945Y64121842D01*
X-84098993Y64118998D01*
X-84101838Y64115645D01*
X-84104429Y64111733D01*
X-84106766Y64107263D01*
X-84108950Y64102234D01*
X-84110880Y64096696D01*
X-84112658Y64090550D01*
X-84114233Y64083793D01*
X-84115656Y64076478D01*
X-84117942Y64060070D01*
X-84106766Y64060070D01*
X-84105546Y64069264D01*
X-84104073Y64077443D01*
X-84102397Y64084606D01*
X-84100568Y64090854D01*
X-84098485Y64096188D01*
X-84096199Y64100659D01*
X-84093710Y64104367D01*
X-84090967Y64107263D01*
X-84088020Y64109447D01*
X-84084820Y64110971D01*
X-84081416Y64111835D01*
X-84077810Y64112140D01*
X-84069326Y64110514D01*
X-84063586Y64106196D01*
X-84060284Y64099694D01*
X-84059268Y64091820D01*
X-84060233Y64083692D01*
X-84063179Y64075970D01*
X-84067954Y64068198D01*
X-84074508Y64060070D01*
X-84117942Y64060070D01*
X-84123428Y64060222D01*
X-84128762Y64060933D01*
X-84133740Y64062305D01*
X-84138211Y64064540D01*
X-84141970Y64067588D01*
X-84144866Y64071703D01*
X-84146745Y64076935D01*
X-84147406Y64083438D01*
X-84146339Y64093039D01*
X-84143494Y64101878D01*
X-84139582Y64109854D01*
X-84135214Y64116712D01*
X-84146644Y64123316D01*
X-84151571Y64115188D01*
X-84154010Y64110362D01*
X-84156245Y64105129D01*
X-84158226Y64099490D01*
X-84159750Y64093496D01*
X-84160766Y64087197D01*
X-84161122Y64080644D01*
X-84160766Y64074344D01*
X-84159648Y64068705D01*
X-84157870Y64063727D01*
X-84155483Y64059307D01*
X-84152435Y64055447D01*
X-84148777Y64052196D01*
X-84144612Y64049503D01*
X-84139938Y64047319D01*
X-84134756Y64045642D01*
X-84129118Y64044474D01*
X-84123072Y64043763D01*
X-84116672Y64043560D01*
X-84048600Y64043560D01*
X-84048600Y64057276D01*
X-84062062Y64058546D01*
X-84062062Y64059307D01*
X-84058810Y64063321D01*
X-84055813Y64067537D01*
X-84053070Y64071906D01*
X-84050733Y64076478D01*
X-84048803Y64081202D01*
X-84047330Y64086079D01*
X-84046364Y64091057D01*
X-84046060Y64096138D01*
X-84046568Y64102691D01*
X-84048092Y64108736D01*
X-84050581Y64114172D01*
X-84053984Y64118896D01*
X-84058353Y64122757D01*
X-84063636Y64125652D01*
X-84069783Y64127481D01*
G37*
G36*
X-84157312Y64024002D02*
G01*
X-84158328Y64006729D01*
X-84189316Y64004698D01*
X-84189316Y63990981D01*
X-84158328Y63990981D01*
X-84158328Y63960755D01*
X-84144612Y63960755D01*
X-84144612Y63990981D01*
X-84081112Y63990981D01*
X-84072069Y63990118D01*
X-84065262Y63987324D01*
X-84060995Y63981990D01*
X-84059522Y63973710D01*
X-84059776Y63970509D01*
X-84061452Y63963804D01*
X-84062570Y63960755D01*
X-84050124Y63957707D01*
X-84047330Y63967360D01*
X-84046415Y63972287D01*
X-84046060Y63977012D01*
X-84046720Y63984936D01*
X-84048600Y63991540D01*
X-84051698Y63996824D01*
X-84055813Y64000938D01*
X-84060995Y64003936D01*
X-84067040Y64005968D01*
X-84073949Y64007136D01*
X-84081620Y64007492D01*
X-84144612Y64007492D01*
X-84144612Y64024002D01*
G37*
G36*
X-84158328Y63935355D02*
G01*
X-84158328Y63922148D01*
X-84138262Y63920370D01*
X-84138262Y63919862D01*
X-84143189Y63916864D01*
X-84147609Y63913512D01*
X-84151520Y63909905D01*
X-84154822Y63906044D01*
X-84157515Y63901980D01*
X-84159496Y63897662D01*
X-84160715Y63893242D01*
X-84161122Y63888620D01*
X-84161020Y63885419D01*
X-84160664Y63882524D01*
X-84159953Y63879831D01*
X-84158836Y63877190D01*
X-84144358Y63880492D01*
X-84145729Y63885368D01*
X-84146136Y63890652D01*
X-84145780Y63894258D01*
X-84144764Y63897967D01*
X-84142986Y63901777D01*
X-84140344Y63905536D01*
X-84136788Y63909244D01*
X-84132318Y63912750D01*
X-84126832Y63916052D01*
X-84120228Y63919100D01*
X-84048600Y63919100D01*
X-84048600Y63935355D01*
G37*
G36*
X-84193380Y63861696D02*
G01*
X-84198002Y63860883D01*
X-84201558Y63858546D01*
X-84203794Y63854838D01*
X-84204556Y63850012D01*
X-84203794Y63845592D01*
X-84201558Y63842036D01*
X-84198002Y63839699D01*
X-84193380Y63838836D01*
X-84188604Y63839699D01*
X-84184998Y63842036D01*
X-84182712Y63845592D01*
X-84181950Y63850012D01*
X-84182712Y63854838D01*
X-84184998Y63858546D01*
X-84188604Y63860883D01*
G37*
G36*
X-84158328Y63858394D02*
G01*
X-84158328Y63841884D01*
X-84048600Y63841884D01*
X-84048600Y63858394D01*
G37*
G36*
X-84103464Y63812420D02*
G01*
X-84110118Y63812115D01*
X-84116418Y63811302D01*
X-84122361Y63809981D01*
X-84127898Y63808152D01*
X-84133029Y63805917D01*
X-84137804Y63803225D01*
X-84142122Y63800177D01*
X-84145983Y63796722D01*
X-84149488Y63792963D01*
X-84152536Y63788950D01*
X-84155127Y63784632D01*
X-84157261Y63780060D01*
X-84158937Y63775285D01*
X-84160156Y63770357D01*
X-84160868Y63765277D01*
X-84161122Y63760096D01*
X-84160055Y63750037D01*
X-84157159Y63741503D01*
X-84152994Y63734289D01*
X-84147914Y63728092D01*
X-84137246Y63736728D01*
X-84141259Y63741807D01*
X-84144408Y63747192D01*
X-84146440Y63753085D01*
X-84147152Y63759588D01*
X-84146796Y63764566D01*
X-84145729Y63769290D01*
X-84143951Y63773710D01*
X-84141564Y63777825D01*
X-84138566Y63781584D01*
X-84135010Y63784988D01*
X-84130896Y63787934D01*
X-84126324Y63790423D01*
X-84121244Y63792455D01*
X-84115706Y63793928D01*
X-84109763Y63794843D01*
X-84103464Y63795148D01*
X-84097114Y63794843D01*
X-84091119Y63793979D01*
X-84085582Y63792607D01*
X-84080502Y63790677D01*
X-84075879Y63788290D01*
X-84071815Y63785394D01*
X-84068259Y63782092D01*
X-84065313Y63778384D01*
X-84062925Y63774269D01*
X-84061198Y63769798D01*
X-84060131Y63764972D01*
X-84059776Y63759842D01*
X-84060639Y63752272D01*
X-84063078Y63745262D01*
X-84066634Y63738861D01*
X-84070952Y63733172D01*
X-84060030Y63726060D01*
X-84056880Y63729819D01*
X-84054086Y63733730D01*
X-84051698Y63737947D01*
X-84049717Y63742265D01*
X-84048142Y63746837D01*
X-84046974Y63751510D01*
X-84046314Y63756387D01*
X-84046060Y63761366D01*
X-84046314Y63766649D01*
X-84047025Y63771779D01*
X-84048244Y63776758D01*
X-84049920Y63781431D01*
X-84052054Y63785902D01*
X-84054645Y63790118D01*
X-84057693Y63794030D01*
X-84061147Y63797637D01*
X-84065008Y63800939D01*
X-84069326Y63803834D01*
X-84074050Y63806374D01*
X-84079181Y63808457D01*
X-84084668Y63810184D01*
X-84090560Y63811404D01*
X-84096809Y63812166D01*
G37*
G36*
X-84210398Y63700914D02*
G01*
X-84210398Y63684657D01*
X-84098384Y63684657D01*
X-84098384Y63684150D01*
X-84158328Y63635636D01*
X-84158328Y63617348D01*
X-84114132Y63653670D01*
X-84048600Y63612268D01*
X-84048600Y63630302D01*
X-84102956Y63663322D01*
X-84077810Y63684657D01*
X-84048600Y63684657D01*
X-84048600Y63700914D01*
G37*
G36*
X-84210398Y63590678D02*
G01*
X-84210398Y63574168D01*
X-84165440Y63574168D01*
X-84142580Y63574676D01*
X-84149742Y63566700D01*
X-84152892Y63562484D01*
X-84155635Y63558115D01*
X-84157921Y63553492D01*
X-84159648Y63548666D01*
X-84160766Y63543535D01*
X-84161122Y63538100D01*
X-84160817Y63532562D01*
X-84159902Y63527584D01*
X-84158378Y63523114D01*
X-84156245Y63519151D01*
X-84153552Y63515646D01*
X-84150250Y63512649D01*
X-84146339Y63510160D01*
X-84141868Y63508128D01*
X-84136788Y63506553D01*
X-84131150Y63505435D01*
X-84124952Y63504775D01*
X-84118196Y63504572D01*
X-84048600Y63504572D01*
X-84048600Y63521081D01*
X-84116164Y63521081D01*
X-84123580Y63521386D01*
X-84129930Y63522352D01*
X-84135163Y63523977D01*
X-84139379Y63526314D01*
X-84142630Y63529311D01*
X-84144866Y63533070D01*
X-84146186Y63537592D01*
X-84146644Y63542926D01*
X-84146339Y63547091D01*
X-84145526Y63551003D01*
X-84144104Y63554813D01*
X-84142122Y63558572D01*
X-84139633Y63562280D01*
X-84136585Y63566090D01*
X-84128864Y63574168D01*
X-84048600Y63574168D01*
X-84048600Y63590678D01*
G37*
G36*
X-84103464Y63476886D02*
G01*
X-84109966Y63476631D01*
X-84116164Y63475819D01*
X-84122006Y63474498D01*
X-84127492Y63472771D01*
X-84132572Y63470586D01*
X-84137347Y63467996D01*
X-84141665Y63465049D01*
X-84145628Y63461798D01*
X-84149133Y63458242D01*
X-84152232Y63454432D01*
X-84154924Y63450368D01*
X-84157108Y63446152D01*
X-84158836Y63441732D01*
X-84160106Y63437211D01*
X-84160868Y63432537D01*
X-84161106Y63427610D01*
X-84147660Y63427610D01*
X-84147050Y63433604D01*
X-84145272Y63439294D01*
X-84142326Y63444577D01*
X-84138262Y63449352D01*
X-84133182Y63453467D01*
X-84127086Y63456769D01*
X-84120024Y63459207D01*
X-84112100Y63460629D01*
X-84112100Y63399162D01*
X-84120329Y63399670D01*
X-84127492Y63401092D01*
X-84133639Y63403479D01*
X-84138617Y63406731D01*
X-84142580Y63410795D01*
X-84145374Y63415672D01*
X-84147101Y63421260D01*
X-84147660Y63427610D01*
X-84161106Y63427610D01*
X-84160715Y63421260D01*
X-84159547Y63415164D01*
X-84157566Y63409525D01*
X-84154873Y63404496D01*
X-84151470Y63399974D01*
X-84147355Y63395961D01*
X-84142630Y63392608D01*
X-84137246Y63389764D01*
X-84131200Y63387579D01*
X-84124647Y63385954D01*
X-84117484Y63384988D01*
X-84107020Y63384684D01*
X-84101990Y63384988D01*
X-84099908Y63385446D01*
X-84099908Y63460376D01*
X-84093964Y63459817D01*
X-84088427Y63458750D01*
X-84083245Y63457124D01*
X-84078521Y63455042D01*
X-84074254Y63452451D01*
X-84070444Y63449403D01*
X-84067142Y63445898D01*
X-84064398Y63442037D01*
X-84062163Y63437719D01*
X-84060588Y63433096D01*
X-84059623Y63428118D01*
X-84059268Y63422784D01*
X-84059877Y63415062D01*
X-84061604Y63407848D01*
X-84064398Y63401143D01*
X-84068158Y63394844D01*
X-84057236Y63388748D01*
X-84052918Y63396317D01*
X-84051038Y63400381D01*
X-84049362Y63404699D01*
X-84047990Y63409271D01*
X-84046923Y63414097D01*
X-84046314Y63419278D01*
X-84046060Y63424816D01*
X-84046314Y63430150D01*
X-84047025Y63435382D01*
X-84048244Y63440360D01*
X-84049971Y63445186D01*
X-84052105Y63449707D01*
X-84054696Y63454026D01*
X-84057744Y63458039D01*
X-84061249Y63461696D01*
X-84065160Y63465049D01*
X-84069428Y63468046D01*
X-84074152Y63470637D01*
X-84079283Y63472822D01*
X-84084769Y63474549D01*
X-84090662Y63475819D01*
X-84096860Y63476631D01*
G37*
G36*
X-84158328Y63356744D02*
G01*
X-84158328Y63343281D01*
X-84142326Y63341757D01*
X-84142326Y63340996D01*
X-84146136Y63337033D01*
X-84149641Y63332969D01*
X-84152841Y63328702D01*
X-84155635Y63324282D01*
X-84157921Y63319660D01*
X-84159648Y63314783D01*
X-84160766Y63309601D01*
X-84161122Y63304166D01*
X-84160817Y63298628D01*
X-84159902Y63293650D01*
X-84158378Y63289179D01*
X-84156245Y63285217D01*
X-84153552Y63281712D01*
X-84150250Y63278715D01*
X-84146339Y63276226D01*
X-84141868Y63274194D01*
X-84136788Y63272619D01*
X-84131150Y63271501D01*
X-84124952Y63270841D01*
X-84118196Y63270638D01*
X-84048600Y63270638D01*
X-84048600Y63287148D01*
X-84116164Y63287148D01*
X-84123580Y63287452D01*
X-84129930Y63288418D01*
X-84135163Y63290043D01*
X-84139379Y63292380D01*
X-84142630Y63295377D01*
X-84144866Y63299136D01*
X-84146186Y63303657D01*
X-84146644Y63308992D01*
X-84146339Y63313208D01*
X-84145526Y63317170D01*
X-84144104Y63320980D01*
X-84142122Y63324689D01*
X-84139633Y63328397D01*
X-84136585Y63332156D01*
X-84128864Y63340234D01*
X-84048600Y63340234D01*
X-84048600Y63356744D01*
G37*
G36*
X-84103464Y63242444D02*
G01*
X-84109966Y63242190D01*
X-84116164Y63241377D01*
X-84122006Y63240056D01*
X-84127492Y63238329D01*
X-84132572Y63236144D01*
X-84137347Y63233554D01*
X-84141665Y63230607D01*
X-84145628Y63227356D01*
X-84149133Y63223800D01*
X-84152232Y63219990D01*
X-84154924Y63215926D01*
X-84157108Y63211710D01*
X-84158836Y63207290D01*
X-84160106Y63202769D01*
X-84160868Y63198095D01*
X-84161106Y63193168D01*
X-84147660Y63193168D01*
X-84147050Y63199162D01*
X-84145272Y63204852D01*
X-84142326Y63210135D01*
X-84138262Y63214910D01*
X-84133182Y63219025D01*
X-84127086Y63222327D01*
X-84120024Y63224765D01*
X-84112100Y63226188D01*
X-84112100Y63164720D01*
X-84120329Y63165228D01*
X-84127492Y63166650D01*
X-84133639Y63169038D01*
X-84138617Y63172289D01*
X-84142580Y63176353D01*
X-84145374Y63181229D01*
X-84147101Y63186818D01*
X-84147660Y63193168D01*
X-84161106Y63193168D01*
X-84160715Y63186818D01*
X-84159547Y63180671D01*
X-84157566Y63175083D01*
X-84154873Y63169952D01*
X-84151470Y63165431D01*
X-84147355Y63161418D01*
X-84142630Y63158014D01*
X-84137246Y63155169D01*
X-84131200Y63152934D01*
X-84124647Y63151308D01*
X-84117484Y63150343D01*
X-84109814Y63149988D01*
X-84104378Y63150191D01*
X-84099908Y63151004D01*
X-84099908Y63225934D01*
X-84093964Y63225375D01*
X-84088427Y63224308D01*
X-84083245Y63222682D01*
X-84078521Y63220600D01*
X-84074254Y63218009D01*
X-84070444Y63214961D01*
X-84067142Y63211455D01*
X-84064398Y63207595D01*
X-84062163Y63203277D01*
X-84060588Y63198654D01*
X-84059623Y63193676D01*
X-84059268Y63188342D01*
X-84059877Y63180518D01*
X-84061604Y63173305D01*
X-84064398Y63166650D01*
X-84068158Y63160402D01*
X-84057236Y63154305D01*
X-84052918Y63161875D01*
X-84051038Y63165939D01*
X-84049362Y63170257D01*
X-84047990Y63174829D01*
X-84046923Y63179655D01*
X-84046314Y63184836D01*
X-84046060Y63190374D01*
X-84046314Y63195707D01*
X-84047025Y63200838D01*
X-84048244Y63205817D01*
X-84049971Y63210643D01*
X-84052105Y63215164D01*
X-84054696Y63219482D01*
X-84057744Y63223495D01*
X-84061249Y63227153D01*
X-84065160Y63230556D01*
X-84069428Y63233554D01*
X-84074152Y63236144D01*
X-84079283Y63238329D01*
X-84084769Y63240107D01*
X-84090662Y63241377D01*
X-84096860Y63242190D01*
G37*
G36*
X-84158328Y63122302D02*
G01*
X-84158328Y63108840D01*
X-84138262Y63107316D01*
X-84138262Y63106554D01*
X-84143189Y63103607D01*
X-84147609Y63100356D01*
X-84151520Y63096800D01*
X-84154822Y63092990D01*
X-84157515Y63088875D01*
X-84159496Y63084608D01*
X-84160715Y63080188D01*
X-84161122Y63075566D01*
X-84161020Y63072264D01*
X-84160664Y63069368D01*
X-84159953Y63066625D01*
X-84158836Y63063881D01*
X-84144358Y63067184D01*
X-84145729Y63072111D01*
X-84146136Y63077598D01*
X-84145780Y63081204D01*
X-84144764Y63084913D01*
X-84142986Y63088621D01*
X-84140344Y63092380D01*
X-84136788Y63095987D01*
X-84132318Y63099492D01*
X-84126832Y63102794D01*
X-84120228Y63105792D01*
X-84048600Y63105792D01*
X-84048600Y63122302D01*
G37*
G36*
X-84094574Y63053214D02*
G01*
X-84100924Y63053061D01*
X-84107172Y63052553D01*
X-84113166Y63051740D01*
X-84119059Y63050674D01*
X-84124749Y63049251D01*
X-84130235Y63047575D01*
X-84135569Y63045594D01*
X-84140700Y63043409D01*
X-84145628Y63040920D01*
X-84150352Y63038228D01*
X-84154822Y63035281D01*
X-84159140Y63032081D01*
X-84163204Y63028728D01*
X-84167065Y63025172D01*
X-84174076Y63017450D01*
X-84177225Y63013336D01*
X-84180121Y63009018D01*
X-84182762Y63004598D01*
X-84185150Y63000026D01*
X-84187284Y62995352D01*
X-84190738Y62985599D01*
X-84193075Y62975490D01*
X-84193786Y62970308D01*
X-84194243Y62965076D01*
X-84194396Y62959742D01*
X-84194192Y62953036D01*
X-84193481Y62946635D01*
X-84192414Y62940488D01*
X-84190890Y62934646D01*
X-84188960Y62929058D01*
X-84186674Y62923775D01*
X-84183982Y62918797D01*
X-84180934Y62914174D01*
X-84177530Y62909856D01*
X-84173771Y62905843D01*
X-84169656Y62902236D01*
X-84165287Y62898934D01*
X-84160563Y62895988D01*
X-84155534Y62893397D01*
X-84150250Y62891212D01*
X-84144662Y62889384D01*
X-84138871Y62887961D01*
X-84132775Y62886894D01*
X-84126476Y62886285D01*
X-84119974Y62886081D01*
X-84112811Y62886336D01*
X-84106105Y62887148D01*
X-84099857Y62888418D01*
X-84094015Y62890146D01*
X-84088681Y62892279D01*
X-84083804Y62894768D01*
X-84079334Y62897613D01*
X-84075371Y62900712D01*
X-84071866Y62904014D01*
X-84068767Y62907519D01*
X-84066176Y62911228D01*
X-84064094Y62915038D01*
X-84062417Y62918898D01*
X-84061249Y62922810D01*
X-84060538Y62926671D01*
X-84060284Y62930531D01*
X-84061300Y62939066D01*
X-84064398Y62946076D01*
X-84069732Y62951105D01*
X-84077302Y62953646D01*
X-84077302Y62953900D01*
X-84071206Y62959996D01*
X-84066176Y62966803D01*
X-84062824Y62974067D01*
X-84061554Y62981586D01*
X-84062062Y62987021D01*
X-84063636Y62992101D01*
X-84066278Y62996673D01*
X-84069834Y63000686D01*
X-84074406Y63003938D01*
X-84079892Y63006427D01*
X-84086293Y63007951D01*
X-84093558Y63008510D01*
X-84099552Y63008154D01*
X-84105597Y63007138D01*
X-84111642Y63005462D01*
X-84117535Y63003176D01*
X-84123174Y63000280D01*
X-84128457Y62996775D01*
X-84133232Y62992762D01*
X-84137398Y62988190D01*
X-84140802Y62983110D01*
X-84143392Y62977572D01*
X-84145069Y62971527D01*
X-84145606Y62965329D01*
X-84133690Y62965329D01*
X-84132724Y62971832D01*
X-84130032Y62977674D01*
X-84125917Y62982754D01*
X-84120685Y62987072D01*
X-84114640Y62990476D01*
X-84108086Y62992965D01*
X-84101279Y62994540D01*
X-84094574Y62995048D01*
X-84084871Y62993778D01*
X-84078318Y62990323D01*
X-84074660Y62985091D01*
X-84073492Y62978538D01*
X-84074254Y62973457D01*
X-84076743Y62968174D01*
X-84081010Y62962586D01*
X-84087208Y62956694D01*
X-84124038Y62950090D01*
X-84128660Y62953493D01*
X-84131607Y62957049D01*
X-84133232Y62960910D01*
X-84133690Y62965329D01*
X-84145606Y62965329D01*
X-84144967Y62959589D01*
X-84142884Y62954712D01*
X-84139430Y62950394D01*
X-84134452Y62946788D01*
X-84134452Y62946534D01*
X-84143596Y62944248D01*
X-84143596Y62932818D01*
X-84092643Y62942978D01*
X-84087055Y62943435D01*
X-84082331Y62943028D01*
X-84078470Y62941860D01*
X-84075524Y62939828D01*
X-84073390Y62936983D01*
X-84072120Y62933376D01*
X-84071714Y62929007D01*
X-84072069Y62925401D01*
X-84073136Y62921794D01*
X-84074914Y62918187D01*
X-84077352Y62914631D01*
X-84080451Y62911278D01*
X-84084210Y62908179D01*
X-84088579Y62905335D01*
X-84093558Y62902896D01*
X-84099146Y62900864D01*
X-84105292Y62899340D01*
X-84111998Y62898375D01*
X-84119212Y62898020D01*
X-84126070Y62898274D01*
X-84132674Y62899036D01*
X-84138973Y62900356D01*
X-84144916Y62902134D01*
X-84150555Y62904420D01*
X-84155788Y62907214D01*
X-84160664Y62910516D01*
X-84165084Y62914276D01*
X-84169097Y62918492D01*
X-84172653Y62923216D01*
X-84175701Y62928398D01*
X-84178241Y62934037D01*
X-84180273Y62940082D01*
X-84181746Y62946635D01*
X-84182661Y62953595D01*
X-84182966Y62961012D01*
X-84182762Y62966041D01*
X-84182254Y62971070D01*
X-84181391Y62975998D01*
X-84180172Y62980925D01*
X-84178597Y62985751D01*
X-84176717Y62990476D01*
X-84174533Y62995098D01*
X-84172044Y62999569D01*
X-84169199Y63003938D01*
X-84166100Y63008103D01*
X-84162696Y63012116D01*
X-84159039Y63015926D01*
X-84155076Y63019482D01*
X-84150809Y63022886D01*
X-84146339Y63025985D01*
X-84141564Y63028880D01*
X-84136585Y63031471D01*
X-84131302Y63033757D01*
X-84125816Y63035738D01*
X-84120126Y63037415D01*
X-84114182Y63038736D01*
X-84108036Y63039701D01*
X-84101635Y63040310D01*
X-84095082Y63040514D01*
X-84088630Y63040310D01*
X-84082432Y63039650D01*
X-84076590Y63038634D01*
X-84070952Y63037212D01*
X-84065668Y63035434D01*
X-84060690Y63033249D01*
X-84055966Y63030760D01*
X-84051597Y63027915D01*
X-84047533Y63024766D01*
X-84043824Y63021311D01*
X-84040421Y63017552D01*
X-84037322Y63013539D01*
X-84034579Y63009221D01*
X-84032191Y63004700D01*
X-84030159Y62999924D01*
X-84028483Y62994895D01*
X-84027213Y62989714D01*
X-84026248Y62984278D01*
X-84025689Y62978690D01*
X-84025486Y62972950D01*
X-84025689Y62967768D01*
X-84026248Y62962739D01*
X-84027162Y62957811D01*
X-84028381Y62953087D01*
X-84029905Y62948515D01*
X-84031683Y62944095D01*
X-84035900Y62935866D01*
X-84025740Y62931294D01*
X-84022996Y62936272D01*
X-84020609Y62941352D01*
X-84018577Y62946534D01*
X-84016951Y62951817D01*
X-84015681Y62957202D01*
X-84014767Y62962739D01*
X-84014259Y62968378D01*
X-84014056Y62974220D01*
X-84014208Y62979706D01*
X-84014665Y62985040D01*
X-84015376Y62990323D01*
X-84016392Y62995403D01*
X-84017713Y63000381D01*
X-84019339Y63005207D01*
X-84021218Y63009881D01*
X-84023352Y63014352D01*
X-84025790Y63018619D01*
X-84028534Y63022734D01*
X-84031531Y63026645D01*
X-84034782Y63030303D01*
X-84038338Y63033706D01*
X-84042148Y63036907D01*
X-84046212Y63039853D01*
X-84050581Y63042546D01*
X-84055153Y63044984D01*
X-84060030Y63047067D01*
X-84065160Y63048896D01*
X-84070545Y63050420D01*
X-84076184Y63051639D01*
X-84082026Y63052502D01*
X-84088173Y63053010D01*
G37*
G36*
X-84158328Y62855348D02*
G01*
X-84158328Y62841886D01*
X-84145628Y62840107D01*
X-84145628Y62839600D01*
X-84151470Y62831573D01*
X-84154111Y62827306D01*
X-84156397Y62822886D01*
X-84158378Y62818365D01*
X-84159852Y62813742D01*
X-84160835Y62808104D01*
X-84147152Y62808104D01*
X-84146136Y62815419D01*
X-84143088Y62822886D01*
X-84138160Y62830659D01*
X-84131404Y62838838D01*
X-84071968Y62838838D01*
X-84066329Y62831116D01*
X-84062671Y62823699D01*
X-84060639Y62816790D01*
X-84060030Y62810644D01*
X-84060385Y62805970D01*
X-84061452Y62801601D01*
X-84063179Y62797436D01*
X-84065516Y62793626D01*
X-84068513Y62790120D01*
X-84072120Y62786971D01*
X-84076286Y62784278D01*
X-84081010Y62781942D01*
X-84086293Y62780113D01*
X-84092034Y62778741D01*
X-84098282Y62777928D01*
X-84104988Y62777624D01*
X-84111033Y62777827D01*
X-84116773Y62778386D01*
X-84122056Y62779300D01*
X-84126984Y62780672D01*
X-84131454Y62782450D01*
X-84135417Y62784685D01*
X-84138871Y62787326D01*
X-84141767Y62790476D01*
X-84144053Y62794134D01*
X-84145780Y62798248D01*
X-84146796Y62802922D01*
X-84147152Y62808104D01*
X-84160835Y62808104D01*
X-84161122Y62804294D01*
X-84160868Y62799061D01*
X-84160106Y62794184D01*
X-84158836Y62789562D01*
X-84157159Y62785294D01*
X-84154975Y62781383D01*
X-84152333Y62777776D01*
X-84149285Y62774525D01*
X-84145831Y62771578D01*
X-84142021Y62768937D01*
X-84137754Y62766702D01*
X-84133182Y62764771D01*
X-84128203Y62763196D01*
X-84122920Y62761926D01*
X-84117332Y62761063D01*
X-84111439Y62760555D01*
X-84105242Y62760352D01*
X-84098384Y62760605D01*
X-84091881Y62761368D01*
X-84085836Y62762587D01*
X-84080146Y62764263D01*
X-84074863Y62766346D01*
X-84069986Y62768835D01*
X-84065567Y62771680D01*
X-84061554Y62774829D01*
X-84057998Y62778284D01*
X-84054848Y62781992D01*
X-84052206Y62785955D01*
X-84050022Y62790120D01*
X-84048295Y62794489D01*
X-84047076Y62799010D01*
X-84046314Y62803633D01*
X-84046060Y62808357D01*
X-84046923Y62816028D01*
X-84049362Y62823750D01*
X-84053324Y62831421D01*
X-84058760Y62839092D01*
X-84039456Y62838838D01*
X-84001356Y62838838D01*
X-84001356Y62855348D01*
G37*
G36*
X-84103464Y62738762D02*
G01*
X-84110118Y62738507D01*
X-84116418Y62737695D01*
X-84122361Y62736425D01*
X-84127898Y62734647D01*
X-84133029Y62732462D01*
X-84137804Y62729872D01*
X-84142122Y62726925D01*
X-84145983Y62723623D01*
X-84149488Y62720016D01*
X-84152536Y62716105D01*
X-84155127Y62711939D01*
X-84157261Y62707570D01*
X-84158937Y62702998D01*
X-84160156Y62698274D01*
X-84160868Y62693448D01*
X-84161122Y62688470D01*
X-84147152Y62688470D01*
X-84146796Y62693245D01*
X-84145729Y62697715D01*
X-84143951Y62701931D01*
X-84141564Y62705792D01*
X-84138566Y62709298D01*
X-84135010Y62712447D01*
X-84130896Y62715190D01*
X-84126324Y62717476D01*
X-84121244Y62719305D01*
X-84115706Y62720626D01*
X-84109763Y62721439D01*
X-84103464Y62721744D01*
X-84097114Y62721439D01*
X-84091119Y62720626D01*
X-84085582Y62719305D01*
X-84080502Y62717476D01*
X-84075879Y62715190D01*
X-84071815Y62712447D01*
X-84068259Y62709298D01*
X-84065313Y62705792D01*
X-84062925Y62701931D01*
X-84061198Y62697715D01*
X-84060131Y62693245D01*
X-84059776Y62688470D01*
X-84060131Y62683644D01*
X-84061198Y62679122D01*
X-84062925Y62674855D01*
X-84065313Y62670994D01*
X-84068259Y62667438D01*
X-84071815Y62664289D01*
X-84075879Y62661546D01*
X-84080502Y62659209D01*
X-84085582Y62657380D01*
X-84091119Y62656059D01*
X-84097114Y62655246D01*
X-84103464Y62654942D01*
X-84109763Y62655246D01*
X-84115706Y62656059D01*
X-84121244Y62657380D01*
X-84126324Y62659209D01*
X-84130896Y62661546D01*
X-84135010Y62664289D01*
X-84138566Y62667438D01*
X-84141564Y62670994D01*
X-84143951Y62674855D01*
X-84145729Y62679122D01*
X-84146796Y62683644D01*
X-84147152Y62688470D01*
X-84161122Y62688470D01*
X-84160868Y62683440D01*
X-84160156Y62678564D01*
X-84158937Y62673788D01*
X-84157261Y62669216D01*
X-84155127Y62664797D01*
X-84152536Y62660631D01*
X-84149488Y62656720D01*
X-84145983Y62653113D01*
X-84142122Y62649811D01*
X-84137804Y62646814D01*
X-84133029Y62644223D01*
X-84127898Y62642038D01*
X-84122361Y62640260D01*
X-84116418Y62638990D01*
X-84110118Y62638178D01*
X-84103464Y62637924D01*
X-84096809Y62638178D01*
X-84090560Y62638990D01*
X-84084668Y62640260D01*
X-84079181Y62642038D01*
X-84074050Y62644223D01*
X-84069326Y62646814D01*
X-84065008Y62649811D01*
X-84061147Y62653113D01*
X-84057693Y62656720D01*
X-84054645Y62660631D01*
X-84052054Y62664797D01*
X-84049920Y62669216D01*
X-84048244Y62673788D01*
X-84047025Y62678564D01*
X-84046314Y62683440D01*
X-84046060Y62688470D01*
X-84046314Y62693448D01*
X-84047025Y62698274D01*
X-84048244Y62702998D01*
X-84049920Y62707570D01*
X-84052054Y62711939D01*
X-84054645Y62716105D01*
X-84057693Y62720016D01*
X-84061147Y62723623D01*
X-84065008Y62726925D01*
X-84069326Y62729872D01*
X-84074050Y62732462D01*
X-84079181Y62734647D01*
X-84084668Y62736425D01*
X-84090560Y62737695D01*
X-84096809Y62738507D01*
G37*
G36*
X-84061046Y62620652D02*
G01*
X-84072222Y62612524D01*
X-84066837Y62605208D01*
X-84062671Y62597487D01*
X-84059979Y62589003D01*
X-84059014Y62579250D01*
X-84060436Y62569293D01*
X-84064348Y62562231D01*
X-84070139Y62558015D01*
X-84077302Y62556644D01*
X-84081416Y62557253D01*
X-84084972Y62558879D01*
X-84088071Y62561470D01*
X-84090764Y62564772D01*
X-84093151Y62568632D01*
X-84095234Y62572950D01*
X-84101076Y62587987D01*
X-84103565Y62593778D01*
X-84106410Y62599265D01*
X-84109763Y62604192D01*
X-84113725Y62608409D01*
X-84118450Y62611711D01*
X-84123936Y62613794D01*
X-84130388Y62614555D01*
X-84136687Y62613946D01*
X-84142478Y62612066D01*
X-84147710Y62609018D01*
X-84152232Y62604853D01*
X-84155940Y62599519D01*
X-84158734Y62593118D01*
X-84160512Y62585701D01*
X-84161122Y62577218D01*
X-84160156Y62567616D01*
X-84157616Y62558777D01*
X-84153705Y62550802D01*
X-84148930Y62543944D01*
X-84138262Y62552072D01*
X-84142021Y62557812D01*
X-84145069Y62563806D01*
X-84147152Y62570156D01*
X-84147914Y62577218D01*
X-84146593Y62586768D01*
X-84142986Y62593423D01*
X-84137754Y62597284D01*
X-84131404Y62598554D01*
X-84124241Y62596572D01*
X-84119008Y62591289D01*
X-84115046Y62583669D01*
X-84109204Y62568632D01*
X-84106613Y62562587D01*
X-84103667Y62556898D01*
X-84100263Y62551665D01*
X-84096148Y62547195D01*
X-84091221Y62543690D01*
X-84085226Y62541454D01*
X-84078064Y62540642D01*
X-84071663Y62541302D01*
X-84065668Y62543232D01*
X-84060233Y62546382D01*
X-84055508Y62550802D01*
X-84051546Y62556390D01*
X-84048600Y62563146D01*
X-84046720Y62571020D01*
X-84046060Y62580012D01*
X-84046364Y62585803D01*
X-84047177Y62591492D01*
X-84048549Y62596979D01*
X-84050327Y62602313D01*
X-84052511Y62607393D01*
X-84055051Y62612219D01*
X-84057947Y62616638D01*
G37*
G36*
X-84157312Y62532005D02*
G01*
X-84158328Y62514734D01*
X-84189316Y62512702D01*
X-84189316Y62498731D01*
X-84158328Y62498731D01*
X-84158328Y62468505D01*
X-84144612Y62468505D01*
X-84144612Y62498731D01*
X-84081112Y62498731D01*
X-84072069Y62497868D01*
X-84065262Y62495074D01*
X-84060995Y62489740D01*
X-84059522Y62481460D01*
X-84059776Y62478259D01*
X-84060487Y62474906D01*
X-84061452Y62471655D01*
X-84062570Y62468760D01*
X-84050124Y62465457D01*
X-84047330Y62475211D01*
X-84046415Y62480240D01*
X-84046060Y62485016D01*
X-84046720Y62492890D01*
X-84048600Y62499392D01*
X-84051698Y62504624D01*
X-84055813Y62508688D01*
X-84060995Y62511686D01*
X-84067040Y62513718D01*
X-84073949Y62514886D01*
X-84081620Y62515242D01*
X-84144612Y62515242D01*
X-84144612Y62532005D01*
G37*
G36*
X-84103464Y62455044D02*
G01*
X-84109966Y62454790D01*
X-84116164Y62453977D01*
X-84122006Y62452656D01*
X-84127492Y62450929D01*
X-84132572Y62448744D01*
X-84137347Y62446154D01*
X-84141665Y62443207D01*
X-84145628Y62439956D01*
X-84149133Y62436400D01*
X-84152232Y62432590D01*
X-84154924Y62428526D01*
X-84157108Y62424310D01*
X-84158836Y62419890D01*
X-84160106Y62415369D01*
X-84160868Y62410695D01*
X-84161106Y62405768D01*
X-84147660Y62405768D01*
X-84147050Y62411762D01*
X-84145272Y62417452D01*
X-84142326Y62422735D01*
X-84138262Y62427510D01*
X-84133182Y62431625D01*
X-84127086Y62434927D01*
X-84120024Y62437365D01*
X-84112100Y62438788D01*
X-84112100Y62377320D01*
X-84120329Y62377828D01*
X-84127492Y62379250D01*
X-84133639Y62381638D01*
X-84138617Y62384889D01*
X-84142580Y62388953D01*
X-84145374Y62393829D01*
X-84147101Y62399418D01*
X-84147660Y62405768D01*
X-84161106Y62405768D01*
X-84160715Y62399418D01*
X-84159547Y62393271D01*
X-84157566Y62387683D01*
X-84154873Y62382552D01*
X-84151470Y62378031D01*
X-84147355Y62374018D01*
X-84142630Y62370614D01*
X-84137246Y62367769D01*
X-84131200Y62365534D01*
X-84124647Y62363908D01*
X-84117484Y62362943D01*
X-84109814Y62362588D01*
X-84104378Y62362791D01*
X-84099908Y62363604D01*
X-84099908Y62438534D01*
X-84093964Y62437975D01*
X-84088427Y62436908D01*
X-84083245Y62435282D01*
X-84078521Y62433200D01*
X-84074254Y62430609D01*
X-84070444Y62427561D01*
X-84067142Y62424055D01*
X-84064398Y62420195D01*
X-84062163Y62415877D01*
X-84060588Y62411254D01*
X-84059623Y62406276D01*
X-84059268Y62400942D01*
X-84059877Y62393118D01*
X-84061604Y62385905D01*
X-84064398Y62379250D01*
X-84068158Y62373002D01*
X-84057236Y62366905D01*
X-84052918Y62374475D01*
X-84051038Y62378539D01*
X-84049362Y62382857D01*
X-84047990Y62387429D01*
X-84046923Y62392255D01*
X-84046314Y62397436D01*
X-84046060Y62402974D01*
X-84046314Y62408307D01*
X-84047025Y62413438D01*
X-84048244Y62418417D01*
X-84049971Y62423243D01*
X-84052105Y62427764D01*
X-84054696Y62432082D01*
X-84057744Y62436095D01*
X-84061249Y62439753D01*
X-84065160Y62443156D01*
X-84069428Y62446154D01*
X-84074152Y62448744D01*
X-84079283Y62450929D01*
X-84084769Y62452707D01*
X-84090662Y62453977D01*
X-84096860Y62454790D01*
G37*
G36*
X-84103464Y62343284D02*
G01*
X-84110118Y62343029D01*
X-84116418Y62342217D01*
X-84122361Y62340947D01*
X-84127898Y62339220D01*
X-84133029Y62337035D01*
X-84137804Y62334495D01*
X-84142122Y62331549D01*
X-84145983Y62328247D01*
X-84149488Y62324640D01*
X-84152536Y62320728D01*
X-84155127Y62316563D01*
X-84157261Y62312194D01*
X-84158937Y62307622D01*
X-84160156Y62302898D01*
X-84160868Y62297970D01*
X-84161122Y62292992D01*
X-84147152Y62292992D01*
X-84146796Y62297818D01*
X-84145729Y62302339D01*
X-84143951Y62306555D01*
X-84141564Y62310416D01*
X-84138566Y62313921D01*
X-84135010Y62317071D01*
X-84130896Y62319763D01*
X-84126324Y62322049D01*
X-84121244Y62323878D01*
X-84115706Y62325199D01*
X-84109763Y62326012D01*
X-84103464Y62326266D01*
X-84097114Y62326012D01*
X-84091119Y62325199D01*
X-84085582Y62323827D01*
X-84080502Y62322049D01*
X-84075879Y62319763D01*
X-84071815Y62317071D01*
X-84068259Y62313921D01*
X-84065313Y62310416D01*
X-84062925Y62306555D01*
X-84061198Y62302339D01*
X-84060131Y62297818D01*
X-84059776Y62292992D01*
X-84060131Y62288166D01*
X-84061198Y62283644D01*
X-84062925Y62279377D01*
X-84065313Y62275516D01*
X-84068259Y62271960D01*
X-84071815Y62268811D01*
X-84075879Y62266068D01*
X-84080502Y62263731D01*
X-84085582Y62261902D01*
X-84091119Y62260581D01*
X-84097114Y62259768D01*
X-84103464Y62259464D01*
X-84109763Y62259768D01*
X-84115706Y62260581D01*
X-84121244Y62261902D01*
X-84126324Y62263731D01*
X-84130896Y62266068D01*
X-84135010Y62268811D01*
X-84138566Y62271960D01*
X-84141564Y62275516D01*
X-84143951Y62279377D01*
X-84145729Y62283644D01*
X-84146796Y62288166D01*
X-84147152Y62292992D01*
X-84161122Y62292992D01*
X-84160868Y62287962D01*
X-84160156Y62283086D01*
X-84158937Y62278310D01*
X-84157261Y62273738D01*
X-84155127Y62269319D01*
X-84152536Y62265153D01*
X-84149488Y62261242D01*
X-84145983Y62257635D01*
X-84142122Y62254333D01*
X-84137804Y62251336D01*
X-84133029Y62248745D01*
X-84127898Y62246560D01*
X-84122361Y62244782D01*
X-84116418Y62243512D01*
X-84110118Y62242700D01*
X-84103464Y62242446D01*
X-84096809Y62242700D01*
X-84090560Y62243512D01*
X-84084668Y62244782D01*
X-84079181Y62246560D01*
X-84074050Y62248745D01*
X-84069326Y62251336D01*
X-84065008Y62254333D01*
X-84061147Y62257635D01*
X-84057693Y62261242D01*
X-84054645Y62265153D01*
X-84052054Y62269319D01*
X-84049920Y62273738D01*
X-84048244Y62278310D01*
X-84047025Y62283086D01*
X-84046314Y62287962D01*
X-84046060Y62292992D01*
X-84046314Y62297970D01*
X-84047025Y62302898D01*
X-84048244Y62307622D01*
X-84049920Y62312194D01*
X-84052054Y62316563D01*
X-84054645Y62320728D01*
X-84057693Y62324640D01*
X-84061147Y62328247D01*
X-84065008Y62331549D01*
X-84069326Y62334495D01*
X-84074050Y62337035D01*
X-84079181Y62339220D01*
X-84084668Y62340947D01*
X-84090560Y62342217D01*
X-84096809Y62343029D01*
G37*
G36*
X-84059014Y62219331D02*
G01*
X-84064551Y62218316D01*
X-84068767Y62215572D01*
X-84071510Y62211610D01*
X-84072476Y62206886D01*
X-84071510Y62202009D01*
X-84068767Y62197945D01*
X-84064551Y62195202D01*
X-84059014Y62194186D01*
X-84053680Y62195202D01*
X-84049565Y62197945D01*
X-84046974Y62202009D01*
X-84046060Y62206886D01*
X-84046974Y62211610D01*
X-84049565Y62215572D01*
X-84053680Y62218316D01*
G37*
G36*
X-84103464Y62170818D02*
G01*
X-84109915Y62170564D01*
X-84116062Y62169802D01*
X-84121904Y62168582D01*
X-84127390Y62166906D01*
X-84132470Y62164823D01*
X-84137246Y62162334D01*
X-84141564Y62159540D01*
X-84145526Y62156390D01*
X-84149082Y62152936D01*
X-84152181Y62149228D01*
X-84154873Y62145265D01*
X-84157058Y62141150D01*
X-84158836Y62136832D01*
X-84160106Y62132362D01*
X-84160868Y62127739D01*
X-84161122Y62123066D01*
X-84160878Y62120526D01*
X-84147152Y62120526D01*
X-84146796Y62125047D01*
X-84145678Y62129416D01*
X-84143951Y62133530D01*
X-84141513Y62137340D01*
X-84138516Y62140846D01*
X-84134909Y62143995D01*
X-84130794Y62146738D01*
X-84126171Y62149126D01*
X-84121091Y62151005D01*
X-84115605Y62152377D01*
X-84109712Y62153241D01*
X-84103464Y62153546D01*
X-84096961Y62153292D01*
X-84090916Y62152631D01*
X-84085328Y62151463D01*
X-84080248Y62149837D01*
X-84075676Y62147805D01*
X-84071663Y62145316D01*
X-84068208Y62142420D01*
X-84065313Y62139118D01*
X-84063027Y62135461D01*
X-84061401Y62131346D01*
X-84060385Y62126876D01*
X-84060030Y62122050D01*
X-84061046Y62114429D01*
X-84063941Y62107013D01*
X-84068818Y62099698D01*
X-84075524Y62092331D01*
X-84134960Y62092331D01*
X-84140497Y62099647D01*
X-84144307Y62106606D01*
X-84146440Y62113464D01*
X-84147152Y62120526D01*
X-84160878Y62120526D01*
X-84160258Y62114074D01*
X-84157667Y62106200D01*
X-84153603Y62098834D01*
X-84148168Y62091570D01*
X-84167218Y62092331D01*
X-84210398Y62092331D01*
X-84210398Y62076076D01*
X-84048600Y62076076D01*
X-84048600Y62089538D01*
X-84061808Y62091062D01*
X-84061808Y62091570D01*
X-84058658Y62095024D01*
X-84055712Y62098732D01*
X-84053019Y62102695D01*
X-84050682Y62106860D01*
X-84048752Y62111280D01*
X-84047330Y62115852D01*
X-84046364Y62120627D01*
X-84046060Y62125605D01*
X-84046314Y62130686D01*
X-84047025Y62135512D01*
X-84048193Y62140084D01*
X-84049870Y62144351D01*
X-84051952Y62148364D01*
X-84054492Y62152072D01*
X-84057490Y62155476D01*
X-84060944Y62158575D01*
X-84064805Y62161369D01*
X-84069123Y62163807D01*
X-84073847Y62165890D01*
X-84078978Y62167668D01*
X-84084464Y62169040D01*
X-84090408Y62170005D01*
X-84096758Y62170614D01*
G37*
G36*
X-84103464Y62046104D02*
G01*
X-84109966Y62045850D01*
X-84116164Y62045037D01*
X-84122006Y62043716D01*
X-84127492Y62041989D01*
X-84132572Y62039804D01*
X-84137347Y62037214D01*
X-84141665Y62034267D01*
X-84145628Y62031016D01*
X-84149133Y62027460D01*
X-84152232Y62023650D01*
X-84154924Y62019586D01*
X-84157108Y62015370D01*
X-84158836Y62010950D01*
X-84160106Y62006429D01*
X-84160868Y62001755D01*
X-84161106Y61996828D01*
X-84147660Y61996828D01*
X-84147050Y62002822D01*
X-84145272Y62008512D01*
X-84142326Y62013795D01*
X-84138262Y62018570D01*
X-84133182Y62022685D01*
X-84127086Y62025987D01*
X-84120024Y62028425D01*
X-84112100Y62029848D01*
X-84112100Y61968379D01*
X-84120329Y61968888D01*
X-84127492Y61970310D01*
X-84133639Y61972698D01*
X-84138617Y61975949D01*
X-84142580Y61980013D01*
X-84145374Y61984890D01*
X-84147101Y61990478D01*
X-84147660Y61996828D01*
X-84161106Y61996828D01*
X-84160715Y61990478D01*
X-84159547Y61984381D01*
X-84157566Y61978743D01*
X-84154873Y61973714D01*
X-84151470Y61969192D01*
X-84147355Y61965230D01*
X-84142630Y61961826D01*
X-84137246Y61958981D01*
X-84131200Y61956797D01*
X-84124647Y61955172D01*
X-84117484Y61954206D01*
X-84107020Y61953952D01*
X-84101990Y61954308D01*
X-84099908Y61954664D01*
X-84099908Y62029594D01*
X-84093964Y62029086D01*
X-84088427Y62027968D01*
X-84083245Y62026393D01*
X-84078521Y62024310D01*
X-84074254Y62021720D01*
X-84070444Y62018722D01*
X-84067142Y62015217D01*
X-84064398Y62011356D01*
X-84062163Y62007038D01*
X-84060588Y62002365D01*
X-84059623Y61997386D01*
X-84059268Y61992002D01*
X-84059877Y61984331D01*
X-84061604Y61977219D01*
X-84064398Y61970564D01*
X-84068158Y61964316D01*
X-84057236Y61958220D01*
X-84052918Y61965636D01*
X-84051038Y61969650D01*
X-84049362Y61973917D01*
X-84047990Y61978489D01*
X-84046923Y61983315D01*
X-84046314Y61988496D01*
X-84046060Y61994034D01*
X-84046314Y61999368D01*
X-84047025Y62004600D01*
X-84048244Y62009578D01*
X-84049971Y62014404D01*
X-84052105Y62018926D01*
X-84054696Y62023244D01*
X-84057744Y62027257D01*
X-84061249Y62030914D01*
X-84065160Y62034267D01*
X-84069428Y62037264D01*
X-84074152Y62039855D01*
X-84079283Y62042040D01*
X-84084769Y62043767D01*
X-84090662Y62045037D01*
X-84096860Y62045850D01*
G37*
D10*
X-82931000Y65913000D02*
G01*
X-82931000Y61341000D01*
X-83439000Y61341000D01*
X-83439000Y65913000D01*
X-82931000Y65913000D01*
X-88264997Y65849500D02*
G01*
X-88264997Y65722500D01*
X-86487002Y65722500D02*
G01*
X-86423502Y65659000D01*
X-86296502Y65659000D01*
X-86233002Y65722500D01*
X-86233002Y65849500D02*
G01*
X-86233002Y65722500D01*
X-88265002Y65849500D02*
G01*
X-88201502Y65913000D01*
X-88074502Y65913000D01*
X-88011002Y65849500D01*
X-88265002Y65722500D02*
G01*
X-88201502Y65659000D01*
X-88074502Y65659000D01*
X-88011002Y65722500D01*
X-88011002Y65849500D02*
G01*
X-87947502Y65913000D01*
X-87820502Y65913000D01*
X-87757002Y65849500D01*
X-88011002Y65722500D02*
G01*
X-87947502Y65659000D01*
X-87820502Y65659000D01*
X-87757002Y65722500D01*
X-87757002Y65849500D02*
G01*
X-87693502Y65913000D01*
X-87566502Y65913000D01*
X-87503002Y65849500D01*
X-87757002Y65722500D02*
G01*
X-87693502Y65659000D01*
X-87566502Y65659000D01*
X-87503002Y65722500D01*
X-87503002Y65849500D02*
G01*
X-87439502Y65913000D01*
X-87312502Y65913000D01*
X-87249002Y65849500D01*
X-87503002Y65722500D02*
G01*
X-87439502Y65659000D01*
X-87312502Y65659000D01*
X-87249002Y65722500D01*
X-87249002Y65849500D02*
G01*
X-87185502Y65913000D01*
X-87058502Y65913000D01*
X-86995002Y65849500D01*
X-87249002Y65722500D02*
G01*
X-87185502Y65659000D01*
X-87058502Y65659000D01*
X-86995002Y65722500D01*
X-86995002Y65849500D02*
G01*
X-86931502Y65913000D01*
X-86804502Y65913000D01*
X-86741002Y65849500D01*
X-86995002Y65722500D02*
G01*
X-86931502Y65659000D01*
X-86804502Y65659000D01*
X-86741002Y65722500D01*
X-86741002Y65849500D02*
G01*
X-86677502Y65913000D01*
X-86550502Y65913000D01*
X-86487002Y65849500D01*
X-86741002Y65722500D02*
G01*
X-86677502Y65659000D01*
X-86550502Y65659000D01*
X-86487002Y65722500D01*
X-86487002Y65849500D02*
G01*
X-86423502Y65913000D01*
X-86296502Y65913000D01*
X-86233002Y65849500D01*
X-90449397Y65849500D02*
G01*
X-90449397Y65722500D01*
X-88671402Y65722500D02*
G01*
X-88607902Y65659000D01*
X-88480902Y65659000D01*
X-88417402Y65722500D01*
X-88417402Y65849500D02*
G01*
X-88417402Y65722500D01*
X-90449402Y65849500D02*
G01*
X-90385902Y65913000D01*
X-90258902Y65913000D01*
X-90195402Y65849500D01*
X-90449402Y65722500D02*
G01*
X-90385902Y65659000D01*
X-90258902Y65659000D01*
X-90195402Y65722500D01*
X-90195402Y65849500D02*
G01*
X-90131902Y65913000D01*
X-90004902Y65913000D01*
X-89941402Y65849500D01*
X-90195402Y65722500D02*
G01*
X-90131902Y65659000D01*
X-90004902Y65659000D01*
X-89941402Y65722500D01*
X-89941402Y65849500D02*
G01*
X-89877902Y65913000D01*
X-89750902Y65913000D01*
X-89687402Y65849500D01*
X-89941402Y65722500D02*
G01*
X-89877902Y65659000D01*
X-89750902Y65659000D01*
X-89687402Y65722500D01*
X-89687402Y65849500D02*
G01*
X-89623902Y65913000D01*
X-89496902Y65913000D01*
X-89433402Y65849500D01*
X-89687402Y65722500D02*
G01*
X-89623902Y65659000D01*
X-89496902Y65659000D01*
X-89433402Y65722500D01*
X-89433402Y65849500D02*
G01*
X-89369902Y65913000D01*
X-89242902Y65913000D01*
X-89179402Y65849500D01*
X-89433402Y65722500D02*
G01*
X-89369902Y65659000D01*
X-89242902Y65659000D01*
X-89179402Y65722500D01*
X-89179402Y65849500D02*
G01*
X-89115902Y65913000D01*
X-88988902Y65913000D01*
X-88925402Y65849500D01*
X-89179402Y65722500D02*
G01*
X-89115902Y65659000D01*
X-88988902Y65659000D01*
X-88925402Y65722500D01*
X-88925402Y65849500D02*
G01*
X-88861902Y65913000D01*
X-88734902Y65913000D01*
X-88671402Y65849500D01*
X-88925402Y65722500D02*
G01*
X-88861902Y65659000D01*
X-88734902Y65659000D01*
X-88671402Y65722500D01*
X-88671402Y65849500D02*
G01*
X-88607902Y65913000D01*
X-88480902Y65913000D01*
X-88417402Y65849500D01*
M02*
