G04 Layer: TopLayer*
G04 EasyEDA v6.5.3, 2022-05-11 10:11:48*
G04 0613da1d9abe436da45d8866ec44bb36,be635ba5e1a24524a6f9dddda72dafc0,10*
G04 Gerber Generator version 0.2*
G04 Scale: 100 percent, Rotated: No, Reflected: No *
G04 Dimensions in millimeters *
G04 leading zeros omitted , absolute positions ,4 integer and 5 decimal *
%FSLAX45Y45*%
%MOMM*%

%ADD11C,0.5080*%
%ADD12C,1.5700*%
%ADD14C,1.5240*%
%ADD15C,1.6000*%
%ADD16R,1.6000X1.6000*%
%ADD17C,1.8796*%

%LPD*%
D11*
X-83312000Y62230000D02*
G01*
X-83591400Y62230000D01*
X-83642200Y62153800D01*
X-83642200Y60960000D01*
X-82499200Y60960000D01*
X-83312000Y61976000D02*
G01*
X-83566000Y61976000D01*
X-83566000Y61214000D01*
X-82524600Y61214000D01*
X-83312000Y61722000D02*
G01*
X-83489800Y61722000D01*
X-83489800Y61290200D01*
X-82905600Y61290200D01*
X-82905600Y61468000D01*
X-82524600Y61468000D01*
X-88138000Y65786000D02*
G01*
X-88138000Y65633600D01*
X-84455000Y65633600D01*
X-84455000Y64744600D01*
X-83820000Y64744600D01*
X-83820000Y62966600D02*
G01*
X-84759800Y62966600D01*
X-84759800Y65328800D01*
X-89306400Y65328800D01*
X-89306400Y65786000D01*
X-83820000Y62712600D02*
G01*
X-83616800Y62712600D01*
X-83591400Y65989200D01*
X-87884000Y65989200D01*
X-87884000Y65786000D01*
X-83820000Y62458600D02*
G01*
X-83515200Y62458600D01*
X-83515200Y65786000D01*
X-83312000Y65786000D01*
X-88544400Y65786000D02*
G01*
X-88544400Y65557400D01*
X-84531200Y65557400D01*
X-84531200Y64490600D01*
X-83820000Y64490600D01*
X-89052400Y65786000D02*
G01*
X-89052400Y65405000D01*
X-84683600Y65405000D01*
X-84683600Y63982600D01*
X-83820000Y63982600D01*
X-88798400Y65786000D02*
G01*
X-88798400Y65481200D01*
X-84607400Y65481200D01*
X-84607400Y64236600D01*
X-83820000Y64236600D01*
D12*
G01*
X-83312000Y65786000D03*
G36*
X-82979488Y65864511D02*
G01*
X-83136511Y65864511D01*
X-83136511Y65707488D01*
X-82979488Y65707488D01*
G37*
G01*
X-83058000Y65532000D03*
G01*
X-83312000Y65532000D03*
G01*
X-83058000Y65278000D03*
G01*
X-83312000Y65278000D03*
G01*
X-83058000Y65024000D03*
G01*
X-83312000Y65024000D03*
G01*
X-83058000Y64770000D03*
G01*
X-83312000Y64770000D03*
G01*
X-83058000Y64516000D03*
G01*
X-83312000Y64516000D03*
G01*
X-83058000Y64262000D03*
G01*
X-83312000Y64262000D03*
G01*
X-83058000Y64008000D03*
G01*
X-83312000Y64008000D03*
G01*
X-83058000Y63754000D03*
G01*
X-83312000Y63754000D03*
G01*
X-83058000Y63500000D03*
G01*
X-83312000Y63500000D03*
G01*
X-83058000Y63246000D03*
G01*
X-83312000Y63246000D03*
G01*
X-83058000Y62992000D03*
G01*
X-83312000Y62992000D03*
G01*
X-83058000Y62738000D03*
G01*
X-83312000Y62738000D03*
G01*
X-83058000Y62484000D03*
G01*
X-83312000Y62484000D03*
G01*
X-83058000Y62230000D03*
G01*
X-83312000Y62230000D03*
G01*
X-83058000Y61976000D03*
G01*
X-83312000Y61976000D03*
G01*
X-83058000Y61722000D03*
G01*
X-83312000Y61722000D03*
G01*
X-83058000Y61468000D03*
G01*
X-83312000Y61468000D03*
D14*
G01*
X-86360000Y65786000D03*
G01*
X-86614000Y65786000D03*
G01*
X-86868000Y65786000D03*
G01*
X-87122000Y65786000D03*
G01*
X-87376000Y65786000D03*
G01*
X-87630000Y65786000D03*
G01*
X-87884000Y65786000D03*
G01*
X-88138000Y65786000D03*
G01*
X-88544400Y65786000D03*
G01*
X-88798400Y65786000D03*
G01*
X-89052400Y65786000D03*
G01*
X-89306400Y65786000D03*
G01*
X-89560400Y65786000D03*
G01*
X-89814400Y65786000D03*
G01*
X-90068400Y65786000D03*
G01*
X-90322400Y65786000D03*
D15*
G01*
X-82524600Y65786000D03*
G01*
X-82524600Y65532000D03*
G01*
X-82524600Y65278000D03*
G01*
X-82524600Y65024000D03*
G01*
X-82524600Y64770000D03*
G01*
X-82524600Y64516000D03*
G01*
X-82524600Y64262000D03*
G01*
X-82524600Y64008000D03*
G01*
X-82524600Y63754000D03*
G01*
X-82524600Y63500000D03*
G01*
X-82524600Y63246000D03*
G01*
X-82524600Y62992000D03*
G01*
X-82524600Y62738000D03*
G01*
X-82524600Y62484000D03*
G01*
X-82524600Y62230000D03*
G01*
X-82524600Y61976000D03*
G01*
X-82524600Y61722000D03*
G01*
X-82524600Y61468000D03*
G01*
X-82524600Y61214000D03*
D16*
G01*
X-82524600Y60960000D03*
D17*
G01*
X-83820000Y62204600D03*
G01*
X-83820000Y62458600D03*
G01*
X-83820000Y62712600D03*
G01*
X-83820000Y62966600D03*
G01*
X-83820000Y63220600D03*
G01*
X-83820000Y63474600D03*
G01*
X-83820000Y63982600D03*
G01*
X-83820000Y64236600D03*
G01*
X-83820000Y64490600D03*
G01*
X-83820000Y64744600D03*
G01*
X-83820000Y64998600D03*
G01*
X-83820000Y65252600D03*
M02*
