G04 Layer: TopSolderMaskLayer*
G04 EasyEDA v6.5.3, 2022-05-11 10:11:48*
G04 29087cc1c3554ec2a43a3509a864e302,be635ba5e1a24524a6f9dddda72dafc0,10*
G04 Gerber Generator version 0.2*
G04 Scale: 100 percent, Rotated: No, Reflected: No *
G04 Dimensions in millimeters *
G04 leading zeros omitted , absolute positions ,4 integer and 5 decimal *
%FSLAX45Y45*%
%MOMM*%

%ADD20C,1.7272*%
%ADD21C,1.7732*%
%ADD24C,2.0032*%
%ADD25C,1.8032*%
%ADD26R,1.8032X1.8032*%

%LPD*%
D20*
G01*
X-84074000Y65786000D03*
G01*
X-84328000Y65786000D03*
G01*
X-84582000Y65786000D03*
G01*
X-84836000Y65786000D03*
G01*
X-85090000Y65786000D03*
G01*
X-85344000Y65786000D03*
G01*
X-85598000Y65786000D03*
G01*
X-85852000Y65786000D03*
D21*
G01*
X-83312000Y65786000D03*
G36*
X-83146646Y65697354D02*
G01*
X-83146646Y65874646D01*
X-82969354Y65874646D01*
X-82969354Y65697354D01*
G37*
G01*
X-83058000Y65532000D03*
G01*
X-83312000Y65532000D03*
G01*
X-83058000Y65278000D03*
G01*
X-83312000Y65278000D03*
G01*
X-83058000Y65024000D03*
G01*
X-83312000Y65024000D03*
G01*
X-83058000Y64770000D03*
G01*
X-83312000Y64770000D03*
G01*
X-83058000Y64516000D03*
G01*
X-83312000Y64516000D03*
G01*
X-83058000Y64262000D03*
G01*
X-83312000Y64262000D03*
G01*
X-83058000Y64008000D03*
G01*
X-83312000Y64008000D03*
G01*
X-83058000Y63754000D03*
G01*
X-83312000Y63754000D03*
G01*
X-83058000Y63500000D03*
G01*
X-83312000Y63500000D03*
G01*
X-83058000Y63246000D03*
G01*
X-83312000Y63246000D03*
G01*
X-83058000Y62992000D03*
G01*
X-83312000Y62992000D03*
G01*
X-83058000Y62738000D03*
G01*
X-83312000Y62738000D03*
G01*
X-83058000Y62484000D03*
G01*
X-83312000Y62484000D03*
G01*
X-83058000Y62230000D03*
G01*
X-83312000Y62230000D03*
G01*
X-83058000Y61976000D03*
G01*
X-83312000Y61976000D03*
G01*
X-83058000Y61722000D03*
G01*
X-83312000Y61722000D03*
G01*
X-83058000Y61468000D03*
G01*
X-83312000Y61468000D03*
G36*
X-84250276Y64365124D02*
G01*
X-84250276Y64565276D01*
X-84050124Y64565276D01*
X-84050124Y64365124D01*
G37*
D24*
G01*
X-84150200Y64719200D03*
G01*
X-84150200Y64973200D03*
G01*
X-84150200Y65227200D03*
D25*
G01*
X-82524600Y65786000D03*
G01*
X-82524600Y65532000D03*
G01*
X-82524600Y65278000D03*
G01*
X-82524600Y65024000D03*
G01*
X-82524600Y64770000D03*
G01*
X-82524600Y64516000D03*
G01*
X-82524600Y64262000D03*
G01*
X-82524600Y64008000D03*
G01*
X-82524600Y63754000D03*
G01*
X-82524600Y63500000D03*
G01*
X-82524600Y63246000D03*
G01*
X-82524600Y62992000D03*
G01*
X-82524600Y62738000D03*
G01*
X-82524600Y62484000D03*
G01*
X-82524600Y62230000D03*
G01*
X-82524600Y61976000D03*
G01*
X-82524600Y61722000D03*
G01*
X-82524600Y61468000D03*
G01*
X-82524600Y61214000D03*
D26*
G01*
X-82524600Y60960000D03*
M02*
