G04 Layer: TopSilkscreenLayer*
G04 EasyEDA v6.5.3, 2022-05-11 10:11:48*
G04 29087cc1c3554ec2a43a3509a864e302,be635ba5e1a24524a6f9dddda72dafc0,10*
G04 Gerber Generator version 0.2*
G04 Scale: 100 percent, Rotated: No, Reflected: No *
G04 Dimensions in millimeters *
G04 leading zeros omitted , absolute positions ,4 integer and 5 decimal *
%FSLAX45Y45*%
%MOMM*%

%ADD10C,0.2540*%
%ADD19C,0.2032*%

%LPD*%
G36*
X-84099400Y63885572D02*
G01*
X-84099400Y63870331D01*
X-84008569Y63870382D01*
X-83986370Y63871398D01*
X-83970368Y63872364D01*
X-83970368Y63871602D01*
X-84004150Y63859918D01*
X-84084160Y63830707D01*
X-84084160Y63819024D01*
X-84004150Y63790068D01*
X-83970368Y63778129D01*
X-83970368Y63777368D01*
X-84003286Y63779196D01*
X-84013548Y63779400D01*
X-84099400Y63779400D01*
X-84099400Y63763652D01*
X-83950556Y63763652D01*
X-83950556Y63784479D01*
X-84031836Y63813436D01*
X-84063586Y63823850D01*
X-84063586Y63824866D01*
X-84031836Y63835788D01*
X-83950556Y63864998D01*
X-83950556Y63885572D01*
G37*
G36*
X-84071206Y63730886D02*
G01*
X-84078216Y63730225D01*
X-84084363Y63728396D01*
X-84089646Y63725501D01*
X-84094015Y63721640D01*
X-84097418Y63716916D01*
X-84099908Y63711480D01*
X-84101432Y63705435D01*
X-84101940Y63698881D01*
X-84101680Y63694564D01*
X-84088732Y63694564D01*
X-84087716Y63702438D01*
X-84084414Y63708940D01*
X-84078673Y63713258D01*
X-84070190Y63714884D01*
X-84066583Y63714579D01*
X-84063179Y63713715D01*
X-84059979Y63712191D01*
X-84057032Y63710007D01*
X-84054289Y63707111D01*
X-84051800Y63703403D01*
X-84049514Y63698932D01*
X-84047431Y63693598D01*
X-84045602Y63687350D01*
X-84043926Y63680187D01*
X-84042453Y63672008D01*
X-84041234Y63662814D01*
X-84073492Y63662814D01*
X-84080045Y63670942D01*
X-84084820Y63678714D01*
X-84087766Y63686436D01*
X-84088732Y63694564D01*
X-84101680Y63694564D01*
X-84100670Y63688823D01*
X-84099196Y63683946D01*
X-84097266Y63679222D01*
X-84094929Y63674650D01*
X-84092186Y63670281D01*
X-84089189Y63666065D01*
X-84085938Y63662052D01*
X-84085938Y63661290D01*
X-84099400Y63660020D01*
X-84099400Y63646304D01*
X-84031328Y63646304D01*
X-84024927Y63646507D01*
X-84018882Y63647218D01*
X-84013243Y63648386D01*
X-84008061Y63650063D01*
X-84003388Y63652247D01*
X-83999222Y63654940D01*
X-83995564Y63658191D01*
X-83992516Y63662052D01*
X-83990129Y63666471D01*
X-83988351Y63671450D01*
X-83987233Y63677088D01*
X-83986878Y63683388D01*
X-83987233Y63689941D01*
X-83988249Y63696240D01*
X-83989773Y63702234D01*
X-83991754Y63707873D01*
X-83993990Y63713105D01*
X-83996428Y63717931D01*
X-84001356Y63726060D01*
X-84012786Y63719455D01*
X-84008417Y63712598D01*
X-84004505Y63704622D01*
X-84001660Y63695783D01*
X-84000594Y63686181D01*
X-84001254Y63679679D01*
X-84003134Y63674447D01*
X-84006029Y63670332D01*
X-84009788Y63667284D01*
X-84014259Y63665049D01*
X-84019237Y63663677D01*
X-84024571Y63662966D01*
X-84030058Y63662814D01*
X-84032344Y63679222D01*
X-84033766Y63686537D01*
X-84035341Y63693294D01*
X-84037119Y63699440D01*
X-84039049Y63704978D01*
X-84041234Y63710007D01*
X-84043570Y63714477D01*
X-84046161Y63718389D01*
X-84049006Y63721742D01*
X-84052054Y63724586D01*
X-84055356Y63726872D01*
X-84058912Y63728650D01*
X-84062722Y63729870D01*
X-84066837Y63730631D01*
G37*
G36*
X-84003388Y63626746D02*
G01*
X-84003388Y63610236D01*
X-84066380Y63610236D01*
X-84074050Y63609880D01*
X-84080959Y63608712D01*
X-84087004Y63606679D01*
X-84092135Y63603682D01*
X-84096301Y63599568D01*
X-84099400Y63594284D01*
X-84101279Y63587680D01*
X-84101940Y63579755D01*
X-84101584Y63575031D01*
X-84100670Y63570104D01*
X-84097876Y63560452D01*
X-84085430Y63563500D01*
X-84087512Y63569900D01*
X-84088224Y63573253D01*
X-84088478Y63576454D01*
X-84087004Y63584734D01*
X-84082737Y63590068D01*
X-84075930Y63592862D01*
X-84066888Y63593726D01*
X-84003388Y63593726D01*
X-84003388Y63563500D01*
X-83989672Y63563500D01*
X-83989672Y63593726D01*
X-83958684Y63593726D01*
X-83958684Y63607442D01*
X-83989672Y63609474D01*
X-83990688Y63626746D01*
G37*
G36*
X-84099400Y63538100D02*
G01*
X-84099400Y63521844D01*
X-84027772Y63521844D01*
X-84021168Y63518796D01*
X-84015681Y63515494D01*
X-84011211Y63511988D01*
X-84007655Y63508280D01*
X-84005013Y63504521D01*
X-84003235Y63500711D01*
X-84002219Y63497002D01*
X-84001864Y63493396D01*
X-84002270Y63488112D01*
X-84003642Y63483236D01*
X-83989164Y63479934D01*
X-83988046Y63482575D01*
X-83987335Y63485268D01*
X-83986979Y63488163D01*
X-83986878Y63491364D01*
X-83987284Y63495986D01*
X-83988503Y63500406D01*
X-83990484Y63504724D01*
X-83993177Y63508788D01*
X-83996479Y63512649D01*
X-84000390Y63516255D01*
X-84004810Y63519608D01*
X-84009738Y63522605D01*
X-84009738Y63523114D01*
X-83989672Y63524892D01*
X-83989672Y63538100D01*
G37*
G36*
X-83954620Y63464440D02*
G01*
X-83959395Y63463627D01*
X-83963002Y63461290D01*
X-83965288Y63457581D01*
X-83966050Y63452755D01*
X-83965288Y63448336D01*
X-83963002Y63444780D01*
X-83959395Y63442443D01*
X-83954620Y63441579D01*
X-83949997Y63442443D01*
X-83946441Y63444780D01*
X-83944206Y63448336D01*
X-83943444Y63452755D01*
X-83944206Y63457581D01*
X-83946441Y63461290D01*
X-83949997Y63463627D01*
G37*
G36*
X-84099400Y63461138D02*
G01*
X-84099400Y63444628D01*
X-83989672Y63444628D01*
X-83989672Y63461138D01*
G37*
G36*
X-84099400Y63422784D02*
G01*
X-84099400Y63405257D01*
X-84052918Y63378079D01*
X-84052918Y63377064D01*
X-84072730Y63365126D01*
X-84099400Y63348107D01*
X-84099400Y63330074D01*
X-84043774Y63366396D01*
X-83989672Y63332868D01*
X-83989672Y63350140D01*
X-84019136Y63367005D01*
X-84032852Y63374524D01*
X-84032852Y63375540D01*
X-83989672Y63401955D01*
X-83989672Y63419990D01*
X-84041996Y63386462D01*
G37*
G36*
X-84003388Y63326772D02*
G01*
X-84003388Y63310007D01*
X-84066380Y63310007D01*
X-84074050Y63309652D01*
X-84080959Y63308484D01*
X-84087004Y63306452D01*
X-84092135Y63303454D01*
X-84096301Y63299390D01*
X-84099400Y63294158D01*
X-84101279Y63287655D01*
X-84101940Y63279781D01*
X-84101584Y63275006D01*
X-84100670Y63270028D01*
X-84097876Y63260224D01*
X-84085430Y63263526D01*
X-84086547Y63266421D01*
X-84087512Y63269672D01*
X-84088224Y63273025D01*
X-84088478Y63276226D01*
X-84087004Y63284506D01*
X-84082737Y63289840D01*
X-84075930Y63292634D01*
X-84066888Y63293498D01*
X-84003388Y63293498D01*
X-84003388Y63263272D01*
X-83989672Y63263272D01*
X-83989672Y63293498D01*
X-83958684Y63293498D01*
X-83958684Y63307468D01*
X-83989672Y63309500D01*
X-83990688Y63326772D01*
G37*
G36*
X-84044536Y63249555D02*
G01*
X-84051140Y63249302D01*
X-84057337Y63248489D01*
X-84063230Y63247219D01*
X-84068716Y63245492D01*
X-84073847Y63243307D01*
X-84078572Y63240716D01*
X-84082839Y63237770D01*
X-84086750Y63234417D01*
X-84090256Y63230760D01*
X-84093304Y63226746D01*
X-84095894Y63222479D01*
X-84098028Y63217958D01*
X-84099755Y63213183D01*
X-84100974Y63208204D01*
X-84101686Y63203074D01*
X-84101940Y63197740D01*
X-84101686Y63192202D01*
X-84101025Y63187021D01*
X-84100009Y63182195D01*
X-84098638Y63177623D01*
X-84096961Y63173305D01*
X-84095082Y63169241D01*
X-84090764Y63161672D01*
X-84079842Y63167768D01*
X-84083601Y63174016D01*
X-84086395Y63180671D01*
X-84088122Y63187884D01*
X-84088732Y63195707D01*
X-84088376Y63201042D01*
X-84087411Y63206020D01*
X-84085785Y63210643D01*
X-84083601Y63214961D01*
X-84080858Y63218822D01*
X-84077556Y63222327D01*
X-84073746Y63225375D01*
X-84069478Y63227966D01*
X-84064703Y63230048D01*
X-84059572Y63231674D01*
X-84054035Y63232741D01*
X-84048092Y63233300D01*
X-84035900Y63233300D01*
X-84027975Y63231979D01*
X-84020914Y63229591D01*
X-84014818Y63226340D01*
X-84009738Y63222276D01*
X-84005674Y63217501D01*
X-84002727Y63212218D01*
X-84000949Y63206528D01*
X-84000340Y63200534D01*
X-84000898Y63194133D01*
X-84002626Y63188494D01*
X-84005420Y63183617D01*
X-84009331Y63179553D01*
X-84014360Y63176353D01*
X-84020507Y63174016D01*
X-84027670Y63172594D01*
X-84035900Y63172086D01*
X-84035900Y63233300D01*
X-84048092Y63233300D01*
X-84048092Y63158116D01*
X-84043621Y63157557D01*
X-84038186Y63157354D01*
X-84030515Y63157709D01*
X-84023352Y63158674D01*
X-84016799Y63160300D01*
X-84010754Y63162535D01*
X-84005369Y63165380D01*
X-84000644Y63168784D01*
X-83996530Y63172797D01*
X-83993126Y63177318D01*
X-83990434Y63182449D01*
X-83988452Y63188037D01*
X-83987284Y63194184D01*
X-83986878Y63200788D01*
X-83987132Y63205461D01*
X-83987894Y63210084D01*
X-83989164Y63214605D01*
X-83990891Y63219025D01*
X-83993075Y63223241D01*
X-83995768Y63227254D01*
X-83998866Y63231064D01*
X-84002372Y63234620D01*
X-84006334Y63237821D01*
X-84010652Y63240767D01*
X-84015427Y63243307D01*
X-84020507Y63245492D01*
X-84025994Y63247219D01*
X-84031836Y63248489D01*
X-84038033Y63249302D01*
G37*
G36*
X-84086954Y63142368D02*
G01*
X-84090052Y63138253D01*
X-84092948Y63133782D01*
X-84095488Y63129007D01*
X-84097672Y63123927D01*
X-84099450Y63118593D01*
X-84100822Y63113056D01*
X-84101635Y63107316D01*
X-84101940Y63101474D01*
X-84101279Y63092482D01*
X-84099400Y63084659D01*
X-84096453Y63077953D01*
X-84092491Y63072416D01*
X-84087766Y63068047D01*
X-84082331Y63064898D01*
X-84076336Y63063018D01*
X-84069936Y63062357D01*
X-84062773Y63063170D01*
X-84056778Y63065405D01*
X-84051851Y63068809D01*
X-84047736Y63073229D01*
X-84044332Y63078410D01*
X-84041386Y63084100D01*
X-84036408Y63096140D01*
X-84032953Y63105284D01*
X-84028991Y63112954D01*
X-84023758Y63118288D01*
X-84016596Y63120270D01*
X-84010246Y63118949D01*
X-84005013Y63115037D01*
X-84001406Y63108382D01*
X-84000086Y63098934D01*
X-84000848Y63091872D01*
X-84002930Y63085421D01*
X-84005978Y63079426D01*
X-84009738Y63073788D01*
X-83999070Y63065660D01*
X-83994294Y63072416D01*
X-83990383Y63080392D01*
X-83987843Y63089281D01*
X-83986878Y63098934D01*
X-83987487Y63107316D01*
X-83989265Y63114732D01*
X-83992059Y63121133D01*
X-83995768Y63126467D01*
X-84000289Y63130684D01*
X-84005521Y63133782D01*
X-84011312Y63135611D01*
X-84017612Y63136272D01*
X-84024063Y63135510D01*
X-84029550Y63133427D01*
X-84034274Y63130125D01*
X-84038236Y63125908D01*
X-84041589Y63120981D01*
X-84044434Y63115494D01*
X-84046923Y63109703D01*
X-84052765Y63094514D01*
X-84054848Y63090196D01*
X-84057236Y63086284D01*
X-84059928Y63082931D01*
X-84063027Y63080341D01*
X-84066583Y63078715D01*
X-84070698Y63078105D01*
X-84077860Y63079528D01*
X-84083652Y63083846D01*
X-84087563Y63090958D01*
X-84088986Y63100966D01*
X-84088020Y63110567D01*
X-84085328Y63119101D01*
X-84081162Y63126772D01*
X-84075778Y63133986D01*
G37*
G36*
X-84003388Y63053468D02*
G01*
X-84003388Y63036957D01*
X-84066380Y63036957D01*
X-84074050Y63036602D01*
X-84080959Y63035434D01*
X-84087004Y63033402D01*
X-84092135Y63030404D01*
X-84096301Y63026340D01*
X-84099400Y63021108D01*
X-84101279Y63014605D01*
X-84101940Y63006731D01*
X-84101584Y63001956D01*
X-84100670Y62996927D01*
X-84097876Y62987174D01*
X-84085430Y62990476D01*
X-84086547Y62993371D01*
X-84087512Y62996622D01*
X-84088224Y62999975D01*
X-84088478Y63003176D01*
X-84087004Y63011456D01*
X-84082737Y63016790D01*
X-84075930Y63019584D01*
X-84066888Y63020448D01*
X-84003388Y63020448D01*
X-84003388Y62990222D01*
X-83989672Y62990222D01*
X-83989672Y63020448D01*
X-83958684Y63020448D01*
X-83958684Y63034164D01*
X-83989672Y63036196D01*
X-83990688Y63053468D01*
G37*
G36*
X-84044536Y62976505D02*
G01*
X-84051140Y62976252D01*
X-84057337Y62975439D01*
X-84063230Y62974169D01*
X-84068716Y62972442D01*
X-84073847Y62970257D01*
X-84078572Y62967666D01*
X-84082839Y62964669D01*
X-84087773Y62960250D01*
X-84035900Y62960250D01*
X-84027975Y62958827D01*
X-84020914Y62956440D01*
X-84014818Y62953188D01*
X-84009738Y62949124D01*
X-84005674Y62944400D01*
X-84002727Y62939117D01*
X-84000949Y62933478D01*
X-84000340Y62927484D01*
X-84000898Y62921083D01*
X-84002626Y62915444D01*
X-84005420Y62910567D01*
X-84009331Y62906503D01*
X-84014360Y62903303D01*
X-84020507Y62900966D01*
X-84027670Y62899544D01*
X-84035900Y62899036D01*
X-84035900Y62960250D01*
X-84087773Y62960250D01*
X-84090256Y62957659D01*
X-84093304Y62953646D01*
X-84095894Y62949328D01*
X-84098028Y62944806D01*
X-84099755Y62939980D01*
X-84100974Y62935002D01*
X-84101686Y62929770D01*
X-84101940Y62924436D01*
X-84101686Y62918898D01*
X-84101025Y62913717D01*
X-84100009Y62908891D01*
X-84098638Y62904319D01*
X-84096961Y62900052D01*
X-84095082Y62896038D01*
X-84090764Y62888622D01*
X-84079842Y62894718D01*
X-84083601Y62900966D01*
X-84086395Y62907621D01*
X-84088122Y62914733D01*
X-84088732Y62922404D01*
X-84088376Y62927788D01*
X-84087411Y62932767D01*
X-84085785Y62937440D01*
X-84083601Y62941758D01*
X-84080858Y62945619D01*
X-84077556Y62949124D01*
X-84073746Y62952122D01*
X-84069478Y62954712D01*
X-84064703Y62956795D01*
X-84059572Y62958370D01*
X-84054035Y62959488D01*
X-84048092Y62959996D01*
X-84048092Y62885066D01*
X-84043621Y62884507D01*
X-84038186Y62884304D01*
X-84030515Y62884608D01*
X-84023352Y62885574D01*
X-84016799Y62887199D01*
X-84010754Y62889384D01*
X-84005369Y62892228D01*
X-84000644Y62895632D01*
X-83996530Y62899594D01*
X-83993126Y62904116D01*
X-83990434Y62909145D01*
X-83988452Y62914784D01*
X-83987284Y62920879D01*
X-83986878Y62927484D01*
X-83987132Y62932208D01*
X-83987894Y62936881D01*
X-83989164Y62941454D01*
X-83990891Y62945873D01*
X-83993075Y62950090D01*
X-83995768Y62954154D01*
X-83998866Y62957964D01*
X-84002372Y62961520D01*
X-84006334Y62964771D01*
X-84010652Y62967717D01*
X-84015427Y62970257D01*
X-84020507Y62972442D01*
X-84025994Y62974169D01*
X-84031836Y62975439D01*
X-84038033Y62976252D01*
G37*
G36*
X-84099400Y62856364D02*
G01*
X-84099400Y62840107D01*
X-84027772Y62840107D01*
X-84021168Y62837060D01*
X-84015681Y62833757D01*
X-84011211Y62830252D01*
X-84007655Y62826544D01*
X-84005013Y62822785D01*
X-84003235Y62818975D01*
X-84002219Y62815266D01*
X-84001864Y62811660D01*
X-84002270Y62806376D01*
X-84003642Y62801500D01*
X-83989164Y62798198D01*
X-83988046Y62800839D01*
X-83987335Y62803531D01*
X-83986979Y62806427D01*
X-83986878Y62809628D01*
X-83987284Y62814250D01*
X-83988503Y62818670D01*
X-83990484Y62822988D01*
X-83993177Y62827052D01*
X-83996479Y62830913D01*
X-84000390Y62834520D01*
X-84004810Y62837872D01*
X-84009738Y62840870D01*
X-84009738Y62841378D01*
X-83989672Y62843155D01*
X-83989672Y62856364D01*
G37*
G36*
X-84024978Y62741555D02*
G01*
X-84032090Y62741352D01*
X-84038846Y62740743D01*
X-84045348Y62739778D01*
X-84051495Y62738406D01*
X-84057388Y62736679D01*
X-84062874Y62734647D01*
X-84068056Y62732259D01*
X-84072933Y62729567D01*
X-84077403Y62726570D01*
X-84081569Y62723268D01*
X-84085328Y62719712D01*
X-84088732Y62715902D01*
X-84091780Y62711787D01*
X-84094421Y62707520D01*
X-84096707Y62702998D01*
X-84098587Y62698274D01*
X-84100009Y62693346D01*
X-84101076Y62688216D01*
X-84101736Y62682983D01*
X-84101940Y62677548D01*
X-84101584Y62670537D01*
X-84100517Y62663933D01*
X-84098790Y62657736D01*
X-84096402Y62651944D01*
X-84093405Y62646509D01*
X-84089748Y62641378D01*
X-84085480Y62636603D01*
X-84080604Y62632081D01*
X-84070190Y62641479D01*
X-84074050Y62645188D01*
X-84077454Y62649049D01*
X-84080350Y62653062D01*
X-84082788Y62657278D01*
X-84084718Y62661749D01*
X-84086090Y62666422D01*
X-84086903Y62671350D01*
X-84087208Y62676531D01*
X-84086903Y62681916D01*
X-84086090Y62687047D01*
X-84084718Y62691873D01*
X-84082839Y62696445D01*
X-84080451Y62700662D01*
X-84077556Y62704573D01*
X-84074203Y62708180D01*
X-84070342Y62711482D01*
X-84066075Y62714378D01*
X-84061350Y62716968D01*
X-84056220Y62719153D01*
X-84050682Y62720981D01*
X-84044739Y62722404D01*
X-84038440Y62723420D01*
X-84031734Y62724080D01*
X-84024724Y62724284D01*
X-84017713Y62724080D01*
X-84011058Y62723420D01*
X-84004759Y62722302D01*
X-83998866Y62720829D01*
X-83993329Y62718899D01*
X-83988249Y62716664D01*
X-83983576Y62714022D01*
X-83979359Y62711025D01*
X-83975549Y62707672D01*
X-83972247Y62704014D01*
X-83969402Y62700052D01*
X-83967015Y62695785D01*
X-83965186Y62691213D01*
X-83963814Y62686387D01*
X-83963002Y62681357D01*
X-83962748Y62676024D01*
X-83963814Y62666829D01*
X-83966710Y62658650D01*
X-83971231Y62651386D01*
X-83976972Y62645036D01*
X-83966050Y62635892D01*
X-83962595Y62639295D01*
X-83959242Y62643207D01*
X-83956194Y62647576D01*
X-83953502Y62652452D01*
X-83951267Y62657786D01*
X-83949489Y62663527D01*
X-83948422Y62669724D01*
X-83948016Y62676278D01*
X-83948219Y62681815D01*
X-83948879Y62687250D01*
X-83949946Y62692483D01*
X-83951419Y62697512D01*
X-83953350Y62702338D01*
X-83955636Y62706961D01*
X-83958277Y62711329D01*
X-83961376Y62715495D01*
X-83964780Y62719407D01*
X-83968590Y62723014D01*
X-83972755Y62726366D01*
X-83977276Y62729414D01*
X-83982102Y62732157D01*
X-83987284Y62734545D01*
X-83992821Y62736628D01*
X-83998612Y62738355D01*
X-84004759Y62739727D01*
X-84011211Y62740743D01*
X-84017967Y62741352D01*
G37*
G36*
X-84044536Y62613794D02*
G01*
X-84051190Y62613540D01*
X-84057439Y62612727D01*
X-84063332Y62611457D01*
X-84068818Y62609679D01*
X-84073949Y62607494D01*
X-84078673Y62604904D01*
X-84082991Y62601957D01*
X-84086852Y62598655D01*
X-84090306Y62595048D01*
X-84093354Y62591137D01*
X-84095945Y62586971D01*
X-84098079Y62582602D01*
X-84099755Y62578030D01*
X-84100974Y62573306D01*
X-84101686Y62568480D01*
X-84101940Y62563502D01*
X-84088224Y62563502D01*
X-84087868Y62568277D01*
X-84086801Y62572747D01*
X-84085074Y62576964D01*
X-84082686Y62580824D01*
X-84079740Y62584329D01*
X-84076184Y62587479D01*
X-84072120Y62590222D01*
X-84067497Y62592508D01*
X-84062417Y62594337D01*
X-84056880Y62595658D01*
X-84050886Y62596471D01*
X-84044536Y62596776D01*
X-84038236Y62596471D01*
X-84032293Y62595658D01*
X-84026756Y62594337D01*
X-84021676Y62592508D01*
X-84017104Y62590222D01*
X-84012989Y62587479D01*
X-84009433Y62584329D01*
X-84006436Y62580824D01*
X-84004048Y62576964D01*
X-84002270Y62572747D01*
X-84001203Y62568277D01*
X-84000848Y62563502D01*
X-84001203Y62558676D01*
X-84002270Y62554154D01*
X-84004048Y62549887D01*
X-84006436Y62546026D01*
X-84009433Y62542470D01*
X-84012989Y62539321D01*
X-84017104Y62536578D01*
X-84021676Y62534241D01*
X-84026756Y62532412D01*
X-84032293Y62531091D01*
X-84038236Y62530278D01*
X-84044536Y62529974D01*
X-84050886Y62530278D01*
X-84056880Y62531091D01*
X-84062417Y62532412D01*
X-84067497Y62534241D01*
X-84072120Y62536578D01*
X-84076184Y62539321D01*
X-84079740Y62542470D01*
X-84082686Y62546026D01*
X-84085074Y62549887D01*
X-84086801Y62554154D01*
X-84087868Y62558676D01*
X-84088224Y62563502D01*
X-84101940Y62563502D01*
X-84101686Y62558472D01*
X-84100974Y62553596D01*
X-84099755Y62548820D01*
X-84098079Y62544248D01*
X-84095945Y62539829D01*
X-84093354Y62535663D01*
X-84090306Y62531752D01*
X-84086852Y62528145D01*
X-84082991Y62524843D01*
X-84078673Y62521846D01*
X-84073949Y62519255D01*
X-84068818Y62517070D01*
X-84063332Y62515292D01*
X-84057439Y62514022D01*
X-84051190Y62513210D01*
X-84044536Y62512955D01*
X-84037881Y62513210D01*
X-84031582Y62514022D01*
X-84025638Y62515292D01*
X-84020101Y62517070D01*
X-84014970Y62519255D01*
X-84010195Y62521846D01*
X-84005877Y62524843D01*
X-84001965Y62528145D01*
X-83998511Y62531752D01*
X-83995463Y62535663D01*
X-83992872Y62539829D01*
X-83990738Y62544248D01*
X-83989062Y62548820D01*
X-83987843Y62553596D01*
X-83987132Y62558472D01*
X-83986878Y62563502D01*
X-83987132Y62568480D01*
X-83987843Y62573306D01*
X-83989062Y62578030D01*
X-83990738Y62582602D01*
X-83992872Y62586971D01*
X-83995463Y62591137D01*
X-83998511Y62595048D01*
X-84001965Y62598655D01*
X-84005877Y62601957D01*
X-84010195Y62604904D01*
X-84014970Y62607494D01*
X-84020101Y62609679D01*
X-84025638Y62611457D01*
X-84031582Y62612727D01*
X-84037881Y62613540D01*
G37*
G36*
X-84099400Y62482984D02*
G01*
X-84099400Y62466474D01*
X-84019136Y62466474D01*
X-84011414Y62458396D01*
X-84008366Y62454637D01*
X-84005877Y62450929D01*
X-84003896Y62447220D01*
X-84002473Y62443410D01*
X-84001660Y62439448D01*
X-84001356Y62435231D01*
X-84001813Y62429898D01*
X-84003134Y62425376D01*
X-84005369Y62421617D01*
X-84008569Y62418620D01*
X-84012836Y62416283D01*
X-84018069Y62414657D01*
X-84024419Y62413692D01*
X-84031836Y62413388D01*
X-84099400Y62413388D01*
X-84099400Y62396878D01*
X-84029804Y62396878D01*
X-84023047Y62397081D01*
X-84016850Y62397741D01*
X-84011211Y62398859D01*
X-84006131Y62400434D01*
X-84001660Y62402466D01*
X-83997749Y62404955D01*
X-83994447Y62407952D01*
X-83991754Y62411457D01*
X-83989621Y62415420D01*
X-83988097Y62419890D01*
X-83987182Y62424868D01*
X-83986878Y62430405D01*
X-83987233Y62435841D01*
X-83988351Y62441023D01*
X-83990078Y62445900D01*
X-83992364Y62450522D01*
X-83995158Y62454942D01*
X-83998358Y62459209D01*
X-84001864Y62463273D01*
X-84005674Y62467236D01*
X-84005674Y62467998D01*
X-83989672Y62469522D01*
X-83989672Y62482984D01*
G37*
G36*
X-84003388Y62373764D02*
G01*
X-84003388Y62357000D01*
X-84066380Y62357000D01*
X-84074050Y62356644D01*
X-84080959Y62355476D01*
X-84087004Y62353444D01*
X-84092135Y62350446D01*
X-84096301Y62346382D01*
X-84099400Y62341150D01*
X-84101279Y62334648D01*
X-84101940Y62326774D01*
X-84101584Y62321998D01*
X-84100670Y62317020D01*
X-84097876Y62307216D01*
X-84085430Y62310518D01*
X-84086547Y62313413D01*
X-84087512Y62316664D01*
X-84088224Y62320017D01*
X-84088478Y62323218D01*
X-84087004Y62331498D01*
X-84082737Y62336832D01*
X-84075930Y62339626D01*
X-84066888Y62340490D01*
X-84003388Y62340490D01*
X-84003388Y62310264D01*
X-83989672Y62310264D01*
X-83989672Y62340490D01*
X-83958684Y62340490D01*
X-83958684Y62354460D01*
X-83989672Y62356492D01*
X-83990688Y62373764D01*
G37*
G36*
X-84099400Y62285118D02*
G01*
X-84099400Y62268607D01*
X-84027772Y62268607D01*
X-84021168Y62265610D01*
X-84015681Y62262308D01*
X-84011211Y62258803D01*
X-84007655Y62255196D01*
X-84005013Y62251437D01*
X-84003235Y62247729D01*
X-84002219Y62244020D01*
X-84001864Y62240414D01*
X-84002270Y62234927D01*
X-84003642Y62230000D01*
X-83989164Y62226698D01*
X-83988046Y62229441D01*
X-83987335Y62232184D01*
X-83986979Y62235079D01*
X-83986878Y62238381D01*
X-83987284Y62243004D01*
X-83988503Y62247424D01*
X-83990484Y62251691D01*
X-83993177Y62255806D01*
X-83996479Y62259616D01*
X-84000390Y62263172D01*
X-84004810Y62266423D01*
X-84009738Y62269370D01*
X-84009738Y62270131D01*
X-83989672Y62271655D01*
X-83989672Y62285118D01*
G37*
G36*
X-84044536Y62218824D02*
G01*
X-84051190Y62218570D01*
X-84057439Y62217757D01*
X-84063332Y62216487D01*
X-84068818Y62214709D01*
X-84073949Y62212524D01*
X-84078673Y62209934D01*
X-84082991Y62206987D01*
X-84086852Y62203685D01*
X-84090306Y62200078D01*
X-84093354Y62196167D01*
X-84095945Y62192001D01*
X-84098079Y62187632D01*
X-84099755Y62183060D01*
X-84100974Y62178336D01*
X-84101686Y62173510D01*
X-84101940Y62168531D01*
X-84088224Y62168531D01*
X-84087868Y62173307D01*
X-84086801Y62177777D01*
X-84085074Y62181994D01*
X-84082686Y62185854D01*
X-84079740Y62189360D01*
X-84076184Y62192509D01*
X-84072120Y62195252D01*
X-84067497Y62197538D01*
X-84062417Y62199367D01*
X-84056880Y62200688D01*
X-84050886Y62201501D01*
X-84044536Y62201805D01*
X-84038236Y62201501D01*
X-84032293Y62200688D01*
X-84026756Y62199367D01*
X-84021676Y62197538D01*
X-84017104Y62195252D01*
X-84012989Y62192509D01*
X-84009433Y62189360D01*
X-84006436Y62185854D01*
X-84004048Y62181994D01*
X-84002270Y62177777D01*
X-84001203Y62173307D01*
X-84000848Y62168531D01*
X-84001203Y62163705D01*
X-84002270Y62159184D01*
X-84004048Y62154917D01*
X-84006436Y62151056D01*
X-84009433Y62147500D01*
X-84012989Y62144351D01*
X-84017104Y62141607D01*
X-84021676Y62139271D01*
X-84026756Y62137442D01*
X-84032293Y62136121D01*
X-84038236Y62135308D01*
X-84044536Y62135004D01*
X-84050886Y62135308D01*
X-84056880Y62136121D01*
X-84062417Y62137442D01*
X-84067497Y62139271D01*
X-84072120Y62141607D01*
X-84076184Y62144351D01*
X-84079740Y62147500D01*
X-84082686Y62151056D01*
X-84085074Y62154917D01*
X-84086801Y62159184D01*
X-84087868Y62163705D01*
X-84088224Y62168531D01*
X-84101940Y62168531D01*
X-84101686Y62163502D01*
X-84100974Y62158626D01*
X-84099755Y62153850D01*
X-84098079Y62149228D01*
X-84095945Y62144808D01*
X-84093354Y62140642D01*
X-84090306Y62136680D01*
X-84086852Y62133022D01*
X-84082991Y62129720D01*
X-84078673Y62126723D01*
X-84073949Y62124081D01*
X-84068818Y62121897D01*
X-84063332Y62120119D01*
X-84057439Y62118798D01*
X-84051190Y62117986D01*
X-84044536Y62117731D01*
X-84037881Y62117986D01*
X-84031582Y62118798D01*
X-84025638Y62120119D01*
X-84020101Y62121897D01*
X-84014970Y62124081D01*
X-84010195Y62126723D01*
X-84005877Y62129720D01*
X-84001965Y62133022D01*
X-83998511Y62136680D01*
X-83995463Y62140642D01*
X-83992872Y62144808D01*
X-83990738Y62149228D01*
X-83989062Y62153850D01*
X-83987843Y62158626D01*
X-83987132Y62163502D01*
X-83986878Y62168531D01*
X-83987132Y62173510D01*
X-83987843Y62178336D01*
X-83989062Y62183060D01*
X-83990738Y62187632D01*
X-83992872Y62192001D01*
X-83995463Y62196167D01*
X-83998511Y62200078D01*
X-84001965Y62203685D01*
X-84005877Y62206987D01*
X-84010195Y62209934D01*
X-84014970Y62212524D01*
X-84020101Y62214709D01*
X-84025638Y62216487D01*
X-84031582Y62217757D01*
X-84037881Y62218570D01*
G37*
G36*
X-84079334Y62088014D02*
G01*
X-84088986Y62086998D01*
X-84096047Y62083746D01*
X-84100466Y62078158D01*
X-84101940Y62069979D01*
X-84101584Y62064341D01*
X-84100670Y62060074D01*
X-84087716Y62062614D01*
X-84088173Y62064900D01*
X-84088224Y62066424D01*
X-84087766Y62068405D01*
X-84086395Y62070030D01*
X-84084058Y62071097D01*
X-84080604Y62071504D01*
X-83937602Y62071504D01*
X-83937602Y62088014D01*
G37*
G36*
X-84079334Y62031372D02*
G01*
X-84088986Y62030355D01*
X-84096047Y62027104D01*
X-84100466Y62021516D01*
X-84101940Y62013338D01*
X-84101584Y62007648D01*
X-84100670Y62003431D01*
X-84087716Y62005972D01*
X-84088173Y62008257D01*
X-84088224Y62009781D01*
X-84087766Y62011763D01*
X-84086395Y62013388D01*
X-84084058Y62014455D01*
X-84080604Y62014862D01*
X-83937602Y62014862D01*
X-83937602Y62031372D01*
G37*
G36*
X-84044536Y61983112D02*
G01*
X-84051140Y61982857D01*
X-84057337Y61982045D01*
X-84063230Y61980775D01*
X-84068716Y61979048D01*
X-84073847Y61976863D01*
X-84078572Y61974272D01*
X-84082839Y61971275D01*
X-84087773Y61966855D01*
X-84035900Y61966855D01*
X-84027975Y61965433D01*
X-84020914Y61962995D01*
X-84014818Y61959693D01*
X-84009738Y61955578D01*
X-84005674Y61950803D01*
X-84002727Y61945520D01*
X-84000949Y61939830D01*
X-84000340Y61933836D01*
X-84000898Y61927486D01*
X-84002626Y61921898D01*
X-84005420Y61917021D01*
X-84009331Y61912957D01*
X-84014360Y61909705D01*
X-84020507Y61907318D01*
X-84027670Y61905896D01*
X-84035900Y61905388D01*
X-84035900Y61966855D01*
X-84087773Y61966855D01*
X-84090256Y61964265D01*
X-84093304Y61960252D01*
X-84095894Y61955934D01*
X-84098028Y61951412D01*
X-84099755Y61946586D01*
X-84100974Y61941608D01*
X-84101686Y61936376D01*
X-84101940Y61931042D01*
X-84101686Y61925504D01*
X-84101025Y61920323D01*
X-84100009Y61915497D01*
X-84098638Y61910925D01*
X-84096961Y61906657D01*
X-84095082Y61902644D01*
X-84090764Y61895228D01*
X-84079842Y61901324D01*
X-84083601Y61907572D01*
X-84086395Y61914227D01*
X-84088122Y61921339D01*
X-84088732Y61929010D01*
X-84088376Y61934394D01*
X-84087411Y61939373D01*
X-84085785Y61944046D01*
X-84083601Y61948364D01*
X-84080858Y61952225D01*
X-84077556Y61955730D01*
X-84073746Y61958728D01*
X-84069478Y61961318D01*
X-84064703Y61963401D01*
X-84059572Y61964976D01*
X-84054035Y61966094D01*
X-84048092Y61966602D01*
X-84048092Y61891672D01*
X-84043621Y61891113D01*
X-84038186Y61890910D01*
X-84030515Y61891214D01*
X-84023352Y61892179D01*
X-84016799Y61893805D01*
X-84010754Y61895990D01*
X-84005369Y61898834D01*
X-84000644Y61902238D01*
X-83996530Y61906200D01*
X-83993126Y61910722D01*
X-83990434Y61915751D01*
X-83988452Y61921390D01*
X-83987284Y61927486D01*
X-83986878Y61934090D01*
X-83987132Y61938763D01*
X-83987894Y61943437D01*
X-83989164Y61947958D01*
X-83990891Y61952378D01*
X-83993075Y61956594D01*
X-83995768Y61960658D01*
X-83998866Y61964468D01*
X-84002372Y61968024D01*
X-84006334Y61971275D01*
X-84010652Y61974222D01*
X-84015427Y61976812D01*
X-84020507Y61978997D01*
X-84025994Y61980724D01*
X-84031836Y61982045D01*
X-84038033Y61982857D01*
G37*
G36*
X-84099400Y61862970D02*
G01*
X-84099400Y61846460D01*
X-84027772Y61846460D01*
X-84021168Y61843513D01*
X-84015681Y61840262D01*
X-84011211Y61836757D01*
X-84007655Y61833150D01*
X-84005013Y61829391D01*
X-84003235Y61825581D01*
X-84002219Y61821872D01*
X-84001864Y61818266D01*
X-84002270Y61812881D01*
X-84003642Y61807852D01*
X-83989164Y61804804D01*
X-83988046Y61807445D01*
X-83987335Y61810138D01*
X-83986979Y61813033D01*
X-83986878Y61816234D01*
X-83987284Y61820856D01*
X-83988503Y61825276D01*
X-83990484Y61829594D01*
X-83993177Y61833658D01*
X-83996479Y61837519D01*
X-84000390Y61841126D01*
X-84004810Y61844478D01*
X-84009738Y61847476D01*
X-84009738Y61847984D01*
X-83989672Y61849507D01*
X-83989672Y61862970D01*
G37*
G36*
X-83950556Y61759592D02*
G01*
X-84099400Y61711840D01*
X-84099400Y61692536D01*
X-83950556Y61645038D01*
X-83950556Y61662055D01*
X-84081874Y61701426D01*
X-84081874Y61702188D01*
X-84057388Y61709757D01*
X-84032852Y61716920D01*
X-83950556Y61741812D01*
G37*
G36*
X-83969860Y61636655D02*
G01*
X-83979004Y61627004D01*
X-83975397Y61623651D01*
X-83972095Y61620146D01*
X-83969098Y61616437D01*
X-83966507Y61612576D01*
X-83964424Y61608512D01*
X-83962798Y61604245D01*
X-83961833Y61599826D01*
X-83961478Y61595254D01*
X-83962087Y61588497D01*
X-83963814Y61582706D01*
X-83966558Y61577829D01*
X-83970266Y61573918D01*
X-83974787Y61570870D01*
X-83980020Y61568736D01*
X-83985862Y61567466D01*
X-83992212Y61567060D01*
X-83996072Y61567212D01*
X-84004099Y61568482D01*
X-84012430Y61571073D01*
X-84021117Y61575035D01*
X-84025638Y61577524D01*
X-84034934Y61583519D01*
X-84044739Y61590986D01*
X-84055051Y61599876D01*
X-84065922Y61610290D01*
X-84077403Y61622178D01*
X-84089494Y61635640D01*
X-84099400Y61635640D01*
X-84099400Y61543692D01*
X-84085176Y61543692D01*
X-84085277Y61592155D01*
X-84086446Y61610748D01*
X-84076286Y61600181D01*
X-84066278Y61590478D01*
X-84056524Y61581690D01*
X-84046923Y61573867D01*
X-84037424Y61567060D01*
X-84032750Y61564062D01*
X-84023454Y61558931D01*
X-84014208Y61555020D01*
X-84005064Y61552328D01*
X-84000543Y61551515D01*
X-83995971Y61550956D01*
X-83991450Y61550804D01*
X-83985049Y61551159D01*
X-83979054Y61552124D01*
X-83973517Y61553750D01*
X-83968437Y61555985D01*
X-83963865Y61558830D01*
X-83959801Y61562234D01*
X-83956347Y61566196D01*
X-83953400Y61570666D01*
X-83951064Y61575645D01*
X-83949387Y61581131D01*
X-83948371Y61587075D01*
X-83948016Y61593476D01*
X-83948422Y61600079D01*
X-83949590Y61606277D01*
X-83951419Y61612018D01*
X-83953959Y61617453D01*
X-83957160Y61622584D01*
X-83960868Y61627461D01*
X-83965135Y61632134D01*
G37*
G36*
X-84049108Y61478668D02*
G01*
X-84049108Y61427105D01*
X-84036154Y61427105D01*
X-84036154Y61478668D01*
G37*
G36*
X-84099400Y61352176D02*
G01*
X-84099400Y61335412D01*
X-83950556Y61335412D01*
X-83950556Y61352176D01*
G37*
G36*
X-83969860Y61306455D02*
G01*
X-83979004Y61296804D01*
X-83975397Y61293451D01*
X-83972095Y61289946D01*
X-83969098Y61286237D01*
X-83966507Y61282376D01*
X-83964424Y61278312D01*
X-83962798Y61274045D01*
X-83961833Y61269626D01*
X-83961478Y61265054D01*
X-83962087Y61258297D01*
X-83963814Y61252506D01*
X-83966558Y61247629D01*
X-83970266Y61243718D01*
X-83974787Y61240670D01*
X-83980020Y61238536D01*
X-83985862Y61237266D01*
X-83992212Y61236860D01*
X-83996072Y61237012D01*
X-84004099Y61238282D01*
X-84012430Y61240873D01*
X-84021117Y61244835D01*
X-84025638Y61247324D01*
X-84034934Y61253319D01*
X-84044739Y61260786D01*
X-84055051Y61269676D01*
X-84065922Y61280090D01*
X-84077403Y61291978D01*
X-84089494Y61305440D01*
X-84099400Y61305440D01*
X-84099400Y61213492D01*
X-84085176Y61213492D01*
X-84085277Y61261955D01*
X-84086446Y61280548D01*
X-84076286Y61269981D01*
X-84066278Y61260278D01*
X-84056524Y61251490D01*
X-84046923Y61243667D01*
X-84037424Y61236860D01*
X-84032750Y61233862D01*
X-84023454Y61228731D01*
X-84014208Y61224820D01*
X-84005064Y61222128D01*
X-84000543Y61221315D01*
X-83995971Y61220756D01*
X-83991450Y61220604D01*
X-83985049Y61220959D01*
X-83979054Y61221924D01*
X-83973517Y61223550D01*
X-83968437Y61225785D01*
X-83963865Y61228630D01*
X-83959801Y61232034D01*
X-83956347Y61235996D01*
X-83953400Y61240466D01*
X-83951064Y61245445D01*
X-83949387Y61250931D01*
X-83948371Y61256875D01*
X-83948016Y61263276D01*
X-83948422Y61269879D01*
X-83949590Y61276077D01*
X-83951419Y61281818D01*
X-83953959Y61287253D01*
X-83957160Y61292384D01*
X-83960868Y61297261D01*
X-83965135Y61301934D01*
G37*
G36*
X-84024978Y61191140D02*
G01*
X-84032090Y61190936D01*
X-84038846Y61190327D01*
X-84045348Y61189362D01*
X-84051495Y61187990D01*
X-84057388Y61186263D01*
X-84062874Y61184231D01*
X-84068056Y61181843D01*
X-84072933Y61179151D01*
X-84077403Y61176154D01*
X-84081569Y61172852D01*
X-84085328Y61169296D01*
X-84088732Y61165486D01*
X-84091780Y61161371D01*
X-84094421Y61157104D01*
X-84096707Y61152582D01*
X-84098587Y61147858D01*
X-84100009Y61142930D01*
X-84101076Y61137800D01*
X-84101736Y61132567D01*
X-84101940Y61127131D01*
X-84101584Y61120121D01*
X-84100517Y61113517D01*
X-84098790Y61107320D01*
X-84096402Y61101528D01*
X-84093405Y61096093D01*
X-84089748Y61090962D01*
X-84085480Y61086187D01*
X-84080604Y61081666D01*
X-84070190Y61091064D01*
X-84074050Y61094772D01*
X-84077454Y61098633D01*
X-84080350Y61102646D01*
X-84082788Y61106862D01*
X-84084718Y61111333D01*
X-84086090Y61116006D01*
X-84086903Y61120934D01*
X-84087208Y61126116D01*
X-84086903Y61131500D01*
X-84086090Y61136631D01*
X-84084718Y61141457D01*
X-84082839Y61146029D01*
X-84080451Y61150246D01*
X-84077556Y61154157D01*
X-84074203Y61157764D01*
X-84070342Y61161066D01*
X-84066075Y61163962D01*
X-84061350Y61166552D01*
X-84056220Y61168737D01*
X-84050682Y61170566D01*
X-84044739Y61171988D01*
X-84038440Y61173004D01*
X-84031734Y61173664D01*
X-84024724Y61173868D01*
X-84017713Y61173664D01*
X-84011058Y61173004D01*
X-84004759Y61171886D01*
X-83998866Y61170413D01*
X-83993329Y61168483D01*
X-83988249Y61166248D01*
X-83983576Y61163606D01*
X-83979359Y61160609D01*
X-83975549Y61157256D01*
X-83972247Y61153598D01*
X-83969402Y61149636D01*
X-83967015Y61145369D01*
X-83965186Y61140797D01*
X-83963814Y61135971D01*
X-83963002Y61130942D01*
X-83962748Y61125607D01*
X-83963814Y61116413D01*
X-83966710Y61108234D01*
X-83971231Y61100970D01*
X-83976972Y61094620D01*
X-83966050Y61085476D01*
X-83962595Y61088879D01*
X-83959242Y61092791D01*
X-83956194Y61097160D01*
X-83953502Y61102036D01*
X-83951267Y61107370D01*
X-83949489Y61113111D01*
X-83948422Y61119308D01*
X-83948016Y61125862D01*
X-83948219Y61131399D01*
X-83948879Y61136834D01*
X-83949946Y61142067D01*
X-83951419Y61147096D01*
X-83953350Y61151922D01*
X-83955636Y61156545D01*
X-83958277Y61160914D01*
X-83961376Y61165079D01*
X-83964780Y61168991D01*
X-83968590Y61172598D01*
X-83972755Y61175950D01*
X-83977276Y61178998D01*
X-83982102Y61181742D01*
X-83987284Y61184129D01*
X-83992821Y61186212D01*
X-83998612Y61187939D01*
X-84004759Y61189311D01*
X-84011211Y61190327D01*
X-84017967Y61190936D01*
G37*
G36*
X-84378800Y63885572D02*
G01*
X-84378800Y63868807D01*
X-84243926Y63868807D01*
X-84243926Y63850520D01*
X-84244180Y63843966D01*
X-84244942Y63837870D01*
X-84246212Y63832181D01*
X-84247939Y63826948D01*
X-84250174Y63822122D01*
X-84252866Y63817703D01*
X-84256016Y63813740D01*
X-84259623Y63810184D01*
X-84263687Y63807086D01*
X-84268157Y63804393D01*
X-84273085Y63802107D01*
X-84278419Y63800228D01*
X-84284210Y63798805D01*
X-84290357Y63797738D01*
X-84296910Y63797129D01*
X-84303870Y63796926D01*
X-84310778Y63797129D01*
X-84317382Y63797738D01*
X-84323580Y63798805D01*
X-84329422Y63800228D01*
X-84334858Y63802107D01*
X-84339887Y63804393D01*
X-84344510Y63807086D01*
X-84348675Y63810184D01*
X-84352434Y63813740D01*
X-84355686Y63817703D01*
X-84358530Y63822122D01*
X-84360816Y63826948D01*
X-84362696Y63832181D01*
X-84364017Y63837870D01*
X-84364830Y63843966D01*
X-84365084Y63850520D01*
X-84365084Y63868807D01*
X-84378800Y63868807D01*
X-84378800Y63848488D01*
X-84378596Y63841884D01*
X-84377987Y63835584D01*
X-84376920Y63829590D01*
X-84375498Y63823951D01*
X-84373669Y63818668D01*
X-84371434Y63813690D01*
X-84368843Y63809016D01*
X-84365896Y63804749D01*
X-84362544Y63800736D01*
X-84358835Y63797129D01*
X-84354822Y63793827D01*
X-84350453Y63790880D01*
X-84345729Y63788239D01*
X-84340649Y63785953D01*
X-84335315Y63784073D01*
X-84329625Y63782448D01*
X-84323631Y63781228D01*
X-84317332Y63780365D01*
X-84310728Y63779806D01*
X-84303870Y63779654D01*
X-84297012Y63779806D01*
X-84290458Y63780365D01*
X-84284159Y63781228D01*
X-84278216Y63782498D01*
X-84272628Y63784073D01*
X-84267294Y63786004D01*
X-84262315Y63788290D01*
X-84257642Y63790880D01*
X-84253374Y63793878D01*
X-84249361Y63797179D01*
X-84245754Y63800837D01*
X-84242503Y63804850D01*
X-84239608Y63809168D01*
X-84237068Y63813842D01*
X-84234934Y63818871D01*
X-84233156Y63824205D01*
X-84231784Y63829895D01*
X-84230768Y63835940D01*
X-84230159Y63842290D01*
X-84229956Y63848996D01*
X-84229956Y63885572D01*
G37*
G36*
X-84323936Y63756794D02*
G01*
X-84330540Y63756540D01*
X-84336737Y63755727D01*
X-84342630Y63754457D01*
X-84348116Y63752729D01*
X-84353247Y63750545D01*
X-84357972Y63747954D01*
X-84362239Y63744957D01*
X-84367173Y63740538D01*
X-84315300Y63740538D01*
X-84307375Y63739115D01*
X-84300314Y63736728D01*
X-84294218Y63733476D01*
X-84289138Y63729412D01*
X-84285074Y63724688D01*
X-84282127Y63719405D01*
X-84280349Y63713766D01*
X-84279740Y63707772D01*
X-84280298Y63701371D01*
X-84282026Y63695732D01*
X-84284820Y63690855D01*
X-84288731Y63686791D01*
X-84293760Y63683591D01*
X-84299907Y63681254D01*
X-84307070Y63679831D01*
X-84315300Y63679324D01*
X-84315300Y63740538D01*
X-84367173Y63740538D01*
X-84369656Y63737947D01*
X-84372704Y63733934D01*
X-84375294Y63729616D01*
X-84377428Y63725094D01*
X-84379155Y63720268D01*
X-84380374Y63715290D01*
X-84381086Y63710057D01*
X-84381340Y63704724D01*
X-84381086Y63699186D01*
X-84380425Y63694005D01*
X-84379409Y63689179D01*
X-84378038Y63684607D01*
X-84376361Y63680340D01*
X-84374482Y63676326D01*
X-84370164Y63668910D01*
X-84359242Y63675005D01*
X-84363001Y63681254D01*
X-84365795Y63687909D01*
X-84367522Y63695021D01*
X-84368132Y63702692D01*
X-84367776Y63708076D01*
X-84366811Y63713055D01*
X-84365185Y63717728D01*
X-84363001Y63722046D01*
X-84360258Y63725907D01*
X-84356956Y63729412D01*
X-84353146Y63732410D01*
X-84348878Y63735000D01*
X-84344103Y63737083D01*
X-84338972Y63738658D01*
X-84333435Y63739776D01*
X-84327492Y63740284D01*
X-84327492Y63665354D01*
X-84323021Y63664795D01*
X-84317586Y63664592D01*
X-84309915Y63664896D01*
X-84302752Y63665862D01*
X-84296199Y63667487D01*
X-84290154Y63669672D01*
X-84284769Y63672516D01*
X-84280044Y63675920D01*
X-84275930Y63679882D01*
X-84272526Y63684404D01*
X-84269834Y63689433D01*
X-84267852Y63695072D01*
X-84266684Y63701168D01*
X-84266278Y63707772D01*
X-84266532Y63712496D01*
X-84267294Y63717170D01*
X-84268564Y63721742D01*
X-84270291Y63726161D01*
X-84272475Y63730378D01*
X-84275168Y63734442D01*
X-84278266Y63738252D01*
X-84281772Y63741807D01*
X-84285734Y63745059D01*
X-84290052Y63748005D01*
X-84294827Y63750545D01*
X-84299907Y63752729D01*
X-84305394Y63754457D01*
X-84311236Y63755727D01*
X-84317433Y63756540D01*
G37*
G36*
X-84366354Y63649605D02*
G01*
X-84369452Y63645491D01*
X-84372348Y63641020D01*
X-84374888Y63636245D01*
X-84377072Y63631165D01*
X-84378850Y63625831D01*
X-84380222Y63620294D01*
X-84381035Y63614554D01*
X-84381340Y63608712D01*
X-84380679Y63599720D01*
X-84378800Y63591897D01*
X-84375853Y63585191D01*
X-84371891Y63579654D01*
X-84367166Y63575285D01*
X-84361731Y63572136D01*
X-84355736Y63570256D01*
X-84349336Y63569596D01*
X-84342173Y63570408D01*
X-84336178Y63572644D01*
X-84331251Y63576047D01*
X-84327136Y63580467D01*
X-84323732Y63585648D01*
X-84320786Y63591338D01*
X-84315808Y63603378D01*
X-84312353Y63612522D01*
X-84308391Y63620192D01*
X-84303158Y63625526D01*
X-84295996Y63627507D01*
X-84289646Y63626187D01*
X-84284413Y63622275D01*
X-84280806Y63615620D01*
X-84279486Y63606172D01*
X-84280248Y63599009D01*
X-84282330Y63592506D01*
X-84285378Y63586512D01*
X-84289138Y63580772D01*
X-84278470Y63572644D01*
X-84273694Y63579552D01*
X-84269783Y63587579D01*
X-84267243Y63596520D01*
X-84266278Y63606172D01*
X-84266887Y63614554D01*
X-84268665Y63621970D01*
X-84271459Y63628371D01*
X-84275168Y63633705D01*
X-84279689Y63637922D01*
X-84284921Y63641020D01*
X-84290712Y63642849D01*
X-84297012Y63643510D01*
X-84303463Y63642748D01*
X-84308950Y63640614D01*
X-84313674Y63637312D01*
X-84317636Y63633045D01*
X-84320989Y63628117D01*
X-84323834Y63622631D01*
X-84326323Y63616840D01*
X-84332165Y63601752D01*
X-84334248Y63597434D01*
X-84336636Y63593522D01*
X-84339328Y63590170D01*
X-84342427Y63587579D01*
X-84345983Y63585953D01*
X-84350098Y63585344D01*
X-84357260Y63586766D01*
X-84363052Y63591084D01*
X-84366963Y63598196D01*
X-84368386Y63608204D01*
X-84367420Y63617805D01*
X-84364728Y63626238D01*
X-84360562Y63633908D01*
X-84355178Y63641224D01*
G37*
G36*
X-84234020Y63545974D02*
G01*
X-84238795Y63545110D01*
X-84242402Y63542722D01*
X-84244688Y63539014D01*
X-84245450Y63534290D01*
X-84244688Y63529819D01*
X-84242402Y63526212D01*
X-84238795Y63523774D01*
X-84234020Y63522860D01*
X-84229397Y63523774D01*
X-84225841Y63526212D01*
X-84223606Y63529819D01*
X-84222844Y63534290D01*
X-84223606Y63539014D01*
X-84225841Y63542722D01*
X-84229397Y63545110D01*
G37*
G36*
X-84378800Y63542672D02*
G01*
X-84378800Y63526162D01*
X-84269072Y63526162D01*
X-84269072Y63542672D01*
G37*
G36*
X-84400136Y63496698D02*
G01*
X-84404657Y63496342D01*
X-84408873Y63495224D01*
X-84412683Y63493396D01*
X-84416188Y63490957D01*
X-84419287Y63487858D01*
X-84422030Y63484201D01*
X-84424367Y63479934D01*
X-84426348Y63475158D01*
X-84427872Y63469926D01*
X-84428939Y63464186D01*
X-84429650Y63458039D01*
X-84429854Y63451486D01*
X-84429753Y63449200D01*
X-84418170Y63449200D01*
X-84417814Y63456515D01*
X-84416747Y63463017D01*
X-84415020Y63468707D01*
X-84412683Y63473431D01*
X-84409788Y63477190D01*
X-84406384Y63479934D01*
X-84402472Y63481661D01*
X-84398104Y63482220D01*
X-84393074Y63481508D01*
X-84387994Y63479273D01*
X-84383016Y63475463D01*
X-84378292Y63470028D01*
X-84379765Y63462458D01*
X-84380324Y63456057D01*
X-84380324Y63435992D01*
X-84381035Y63426086D01*
X-84383422Y63418923D01*
X-84387842Y63414605D01*
X-84394548Y63413131D01*
X-84398967Y63413792D01*
X-84403285Y63415672D01*
X-84407248Y63418770D01*
X-84410854Y63422987D01*
X-84413852Y63428168D01*
X-84416138Y63434366D01*
X-84417662Y63441376D01*
X-84418170Y63449200D01*
X-84429753Y63449200D01*
X-84429498Y63443408D01*
X-84428431Y63435890D01*
X-84426755Y63428930D01*
X-84424520Y63422529D01*
X-84421726Y63416789D01*
X-84418474Y63411709D01*
X-84414817Y63407290D01*
X-84410804Y63403632D01*
X-84406486Y63400736D01*
X-84401914Y63398603D01*
X-84397138Y63397333D01*
X-84392262Y63396876D01*
X-84385962Y63397434D01*
X-84380578Y63399212D01*
X-84376056Y63402159D01*
X-84372399Y63406223D01*
X-84369605Y63411506D01*
X-84367674Y63418008D01*
X-84366506Y63425628D01*
X-84366100Y63434468D01*
X-84366100Y63456566D01*
X-84365185Y63465964D01*
X-84362645Y63471958D01*
X-84358835Y63475158D01*
X-84353908Y63476124D01*
X-84349437Y63475565D01*
X-84345780Y63473990D01*
X-84342681Y63471602D01*
X-84339938Y63468757D01*
X-84341766Y63464744D01*
X-84343036Y63460426D01*
X-84343748Y63456057D01*
X-84344002Y63451740D01*
X-84332572Y63451740D01*
X-84332064Y63456566D01*
X-84330641Y63461138D01*
X-84328304Y63465354D01*
X-84325155Y63469012D01*
X-84321192Y63472060D01*
X-84316519Y63474396D01*
X-84311134Y63475870D01*
X-84305140Y63476378D01*
X-84299247Y63475870D01*
X-84294065Y63474447D01*
X-84289544Y63472212D01*
X-84285734Y63469215D01*
X-84282737Y63465557D01*
X-84280552Y63461392D01*
X-84279181Y63456718D01*
X-84278724Y63451740D01*
X-84279181Y63446914D01*
X-84280552Y63442342D01*
X-84282788Y63438227D01*
X-84285836Y63434620D01*
X-84289646Y63431572D01*
X-84294167Y63429286D01*
X-84299348Y63427864D01*
X-84305140Y63427355D01*
X-84311134Y63427864D01*
X-84316519Y63429286D01*
X-84321192Y63431572D01*
X-84325155Y63434620D01*
X-84328304Y63438227D01*
X-84330641Y63442342D01*
X-84332064Y63446914D01*
X-84332572Y63451740D01*
X-84344002Y63451740D01*
X-84343697Y63446304D01*
X-84342782Y63441122D01*
X-84341309Y63436246D01*
X-84339226Y63431623D01*
X-84336686Y63427457D01*
X-84333588Y63423647D01*
X-84330032Y63420294D01*
X-84325968Y63417500D01*
X-84321497Y63415214D01*
X-84316620Y63413538D01*
X-84311286Y63412471D01*
X-84305648Y63412116D01*
X-84298485Y63412827D01*
X-84291982Y63414859D01*
X-84286344Y63417907D01*
X-84281772Y63421768D01*
X-84281772Y63398654D01*
X-84269072Y63398654D01*
X-84269072Y63436500D01*
X-84267090Y63443357D01*
X-84266481Y63447371D01*
X-84266278Y63451740D01*
X-84266582Y63457226D01*
X-84267548Y63462509D01*
X-84269072Y63467538D01*
X-84271154Y63472212D01*
X-84273796Y63476530D01*
X-84276946Y63480442D01*
X-84280603Y63483896D01*
X-84284667Y63486792D01*
X-84289188Y63489179D01*
X-84294167Y63490906D01*
X-84299450Y63492024D01*
X-84305140Y63492379D01*
X-84314588Y63491160D01*
X-84322869Y63487960D01*
X-84329727Y63483388D01*
X-84334858Y63478155D01*
X-84335620Y63478155D01*
X-84339226Y63482423D01*
X-84343849Y63486334D01*
X-84349488Y63489230D01*
X-84355940Y63490348D01*
X-84362036Y63489636D01*
X-84367065Y63487604D01*
X-84371129Y63484455D01*
X-84374228Y63480442D01*
X-84374990Y63480442D01*
X-84380374Y63487249D01*
X-84386521Y63492379D01*
X-84393176Y63495580D01*
G37*
G36*
X-84378800Y63374778D02*
G01*
X-84378800Y63358268D01*
X-84298536Y63358268D01*
X-84294421Y63354204D01*
X-84290814Y63350292D01*
X-84287766Y63346533D01*
X-84285277Y63342824D01*
X-84283296Y63339116D01*
X-84281873Y63335255D01*
X-84281060Y63331242D01*
X-84280756Y63327026D01*
X-84281213Y63321742D01*
X-84282534Y63317221D01*
X-84284769Y63313513D01*
X-84287969Y63310516D01*
X-84292236Y63308229D01*
X-84297469Y63306655D01*
X-84303819Y63305740D01*
X-84311236Y63305436D01*
X-84378800Y63305436D01*
X-84378800Y63288672D01*
X-84309204Y63288672D01*
X-84302447Y63288875D01*
X-84296250Y63289586D01*
X-84290611Y63290704D01*
X-84285531Y63292278D01*
X-84281060Y63294361D01*
X-84277149Y63296850D01*
X-84273847Y63299848D01*
X-84271154Y63303353D01*
X-84269021Y63307315D01*
X-84267497Y63311786D01*
X-84266582Y63316713D01*
X-84266278Y63322200D01*
X-84266633Y63327635D01*
X-84267751Y63332817D01*
X-84269478Y63337694D01*
X-84271764Y63342367D01*
X-84274558Y63346838D01*
X-84277758Y63351105D01*
X-84281264Y63355220D01*
X-84285074Y63359284D01*
X-84285074Y63359792D01*
X-84269072Y63361316D01*
X-84269072Y63374778D01*
G37*
G36*
X-84328508Y63216536D02*
G01*
X-84328508Y63165228D01*
X-84315554Y63165228D01*
X-84315554Y63216536D01*
G37*
G36*
X-84378800Y63090044D02*
G01*
X-84378800Y63073279D01*
X-84243672Y63073279D01*
X-84243824Y63044882D01*
X-84244281Y63038888D01*
X-84245145Y63033452D01*
X-84246364Y63028576D01*
X-84247939Y63024308D01*
X-84250022Y63020600D01*
X-84252562Y63017450D01*
X-84255559Y63014860D01*
X-84259115Y63012878D01*
X-84263179Y63011456D01*
X-84267852Y63010592D01*
X-84273136Y63010288D01*
X-84278419Y63010542D01*
X-84283143Y63011354D01*
X-84287410Y63012726D01*
X-84291170Y63014656D01*
X-84294472Y63017146D01*
X-84297316Y63020143D01*
X-84299653Y63023750D01*
X-84301584Y63027915D01*
X-84303057Y63032690D01*
X-84304073Y63038024D01*
X-84304682Y63043917D01*
X-84304886Y63050420D01*
X-84304886Y63073279D01*
X-84318602Y63073279D01*
X-84318449Y63042088D01*
X-84317941Y63036297D01*
X-84317078Y63030811D01*
X-84315858Y63025680D01*
X-84314284Y63020854D01*
X-84312404Y63016333D01*
X-84310118Y63012218D01*
X-84307476Y63008459D01*
X-84304479Y63005055D01*
X-84301126Y63002109D01*
X-84297418Y62999518D01*
X-84293303Y62997435D01*
X-84288833Y62995759D01*
X-84284007Y62994540D01*
X-84278774Y62993778D01*
X-84273136Y62993524D01*
X-84267395Y62993778D01*
X-84262112Y62994540D01*
X-84257286Y62995759D01*
X-84252866Y62997486D01*
X-84248955Y62999620D01*
X-84245399Y63002210D01*
X-84242300Y63005207D01*
X-84239557Y63008611D01*
X-84237169Y63012472D01*
X-84235188Y63016638D01*
X-84233512Y63021210D01*
X-84232191Y63026086D01*
X-84231175Y63031319D01*
X-84230514Y63036907D01*
X-84230108Y63042749D01*
X-84229956Y63048896D01*
X-84229956Y63090044D01*
G37*
G36*
X-84350606Y62981331D02*
G01*
X-84357616Y62980722D01*
X-84363763Y62978893D01*
X-84369046Y62976048D01*
X-84373415Y62972238D01*
X-84376818Y62967565D01*
X-84379308Y62962129D01*
X-84380832Y62956135D01*
X-84381340Y62949581D01*
X-84381071Y62945010D01*
X-84368132Y62945010D01*
X-84367116Y62952884D01*
X-84363814Y62959386D01*
X-84358073Y62963704D01*
X-84349590Y62965329D01*
X-84345983Y62965025D01*
X-84342579Y62964161D01*
X-84339379Y62962637D01*
X-84336432Y62960453D01*
X-84333689Y62957557D01*
X-84331200Y62953849D01*
X-84328914Y62949378D01*
X-84326831Y62944044D01*
X-84325002Y62937796D01*
X-84323326Y62930633D01*
X-84321853Y62922454D01*
X-84320634Y62913260D01*
X-84352892Y62913260D01*
X-84359445Y62921388D01*
X-84364220Y62929160D01*
X-84367166Y62936881D01*
X-84368132Y62945010D01*
X-84381071Y62945010D01*
X-84380070Y62939371D01*
X-84378596Y62934545D01*
X-84376666Y62929820D01*
X-84374329Y62925248D01*
X-84371586Y62920829D01*
X-84368589Y62916562D01*
X-84365338Y62912498D01*
X-84365338Y62911990D01*
X-84378800Y62910466D01*
X-84378800Y62897004D01*
X-84310728Y62897004D01*
X-84304327Y62897207D01*
X-84298282Y62897918D01*
X-84292643Y62899036D01*
X-84287461Y62900712D01*
X-84282788Y62902846D01*
X-84278571Y62905538D01*
X-84274964Y62908789D01*
X-84271916Y62912599D01*
X-84269529Y62917019D01*
X-84267751Y62922099D01*
X-84266633Y62927738D01*
X-84266278Y62934088D01*
X-84266633Y62940641D01*
X-84267649Y62946889D01*
X-84269173Y62952833D01*
X-84271154Y62958472D01*
X-84273390Y62963704D01*
X-84275828Y62968530D01*
X-84280756Y62976760D01*
X-84292186Y62970155D01*
X-84287817Y62963247D01*
X-84283905Y62955220D01*
X-84281060Y62946279D01*
X-84279994Y62936628D01*
X-84280654Y62930227D01*
X-84282534Y62925045D01*
X-84285429Y62920981D01*
X-84289188Y62917882D01*
X-84293659Y62915698D01*
X-84298637Y62914276D01*
X-84303971Y62913514D01*
X-84309458Y62913260D01*
X-84311744Y62929770D01*
X-84313166Y62937085D01*
X-84314741Y62943841D01*
X-84316519Y62949988D01*
X-84318449Y62955576D01*
X-84320634Y62960554D01*
X-84322970Y62965025D01*
X-84325561Y62968886D01*
X-84328406Y62972238D01*
X-84331454Y62975083D01*
X-84334756Y62977318D01*
X-84338312Y62979096D01*
X-84342122Y62980366D01*
X-84346237Y62981078D01*
G37*
G36*
X-84282788Y62877446D02*
G01*
X-84282788Y62860681D01*
X-84345780Y62860681D01*
X-84353450Y62860326D01*
X-84360359Y62859157D01*
X-84366404Y62857126D01*
X-84371535Y62854128D01*
X-84375701Y62850064D01*
X-84378800Y62844832D01*
X-84380679Y62838329D01*
X-84381340Y62830455D01*
X-84380984Y62825680D01*
X-84380070Y62820702D01*
X-84377276Y62810898D01*
X-84364830Y62814200D01*
X-84365947Y62817095D01*
X-84366912Y62820346D01*
X-84367624Y62823699D01*
X-84367878Y62826900D01*
X-84366404Y62835180D01*
X-84362137Y62840514D01*
X-84355330Y62843308D01*
X-84346288Y62844172D01*
X-84282788Y62844172D01*
X-84282788Y62813946D01*
X-84269072Y62813946D01*
X-84269072Y62844172D01*
X-84238084Y62844172D01*
X-84238084Y62858142D01*
X-84269072Y62860174D01*
X-84270088Y62877446D01*
G37*
G36*
X-84378800Y62788800D02*
G01*
X-84378800Y62772290D01*
X-84307172Y62772290D01*
X-84300568Y62769343D01*
X-84295081Y62766092D01*
X-84290611Y62762587D01*
X-84287055Y62758980D01*
X-84284413Y62755221D01*
X-84282635Y62751411D01*
X-84281619Y62747702D01*
X-84281264Y62744096D01*
X-84281670Y62738711D01*
X-84283042Y62733681D01*
X-84268564Y62730379D01*
X-84267446Y62733174D01*
X-84266735Y62735917D01*
X-84266379Y62738863D01*
X-84266278Y62742064D01*
X-84266684Y62746686D01*
X-84267903Y62751106D01*
X-84269884Y62755373D01*
X-84272577Y62759488D01*
X-84275879Y62763298D01*
X-84279790Y62766854D01*
X-84284210Y62770105D01*
X-84289138Y62773052D01*
X-84289138Y62773814D01*
X-84269072Y62775338D01*
X-84269072Y62788800D01*
G37*
G36*
X-84234020Y62715140D02*
G01*
X-84238795Y62714276D01*
X-84242402Y62711888D01*
X-84244688Y62708180D01*
X-84245450Y62703455D01*
X-84244688Y62698884D01*
X-84242402Y62695277D01*
X-84238795Y62692889D01*
X-84234020Y62692026D01*
X-84229397Y62692889D01*
X-84225841Y62695277D01*
X-84223606Y62698884D01*
X-84222844Y62703455D01*
X-84223606Y62708180D01*
X-84225841Y62711888D01*
X-84229397Y62714276D01*
G37*
G36*
X-84378800Y62711838D02*
G01*
X-84378800Y62695328D01*
X-84269072Y62695328D01*
X-84269072Y62711838D01*
G37*
G36*
X-84323936Y62665610D02*
G01*
X-84330590Y62665355D01*
X-84336839Y62664594D01*
X-84342732Y62663374D01*
X-84348218Y62661698D01*
X-84353349Y62659615D01*
X-84358073Y62657075D01*
X-84362391Y62654179D01*
X-84366252Y62650928D01*
X-84369706Y62647322D01*
X-84372754Y62643410D01*
X-84375345Y62639244D01*
X-84377479Y62634774D01*
X-84379155Y62629999D01*
X-84380374Y62625071D01*
X-84381086Y62619890D01*
X-84381340Y62614555D01*
X-84381086Y62609628D01*
X-84380425Y62604853D01*
X-84379257Y62600179D01*
X-84377682Y62595658D01*
X-84375701Y62591289D01*
X-84373313Y62587073D01*
X-84370519Y62583060D01*
X-84367370Y62579250D01*
X-84356448Y62586616D01*
X-84360766Y62592204D01*
X-84364322Y62598604D01*
X-84366709Y62605666D01*
X-84367624Y62613286D01*
X-84367268Y62618416D01*
X-84366201Y62623242D01*
X-84364474Y62627713D01*
X-84362086Y62631828D01*
X-84359140Y62635536D01*
X-84355584Y62638838D01*
X-84351520Y62641734D01*
X-84346897Y62644121D01*
X-84341817Y62646052D01*
X-84336280Y62647423D01*
X-84330286Y62648287D01*
X-84323936Y62648592D01*
X-84317636Y62648287D01*
X-84311693Y62647372D01*
X-84306156Y62645899D01*
X-84301076Y62643867D01*
X-84296504Y62641378D01*
X-84292389Y62638381D01*
X-84288833Y62634977D01*
X-84285836Y62631218D01*
X-84283448Y62627052D01*
X-84281670Y62622582D01*
X-84280603Y62617807D01*
X-84280248Y62612778D01*
X-84280959Y62606275D01*
X-84282991Y62600433D01*
X-84286140Y62595099D01*
X-84290154Y62590172D01*
X-84279486Y62581281D01*
X-84274406Y62587631D01*
X-84270189Y62594947D01*
X-84267344Y62603481D01*
X-84266278Y62613540D01*
X-84266532Y62618670D01*
X-84267243Y62623750D01*
X-84268462Y62628627D01*
X-84270138Y62633352D01*
X-84272272Y62637873D01*
X-84274863Y62642191D01*
X-84277911Y62646204D01*
X-84281365Y62649963D01*
X-84285277Y62653367D01*
X-84289595Y62656415D01*
X-84294370Y62659107D01*
X-84299501Y62661342D01*
X-84305038Y62663171D01*
X-84310982Y62664492D01*
X-84317281Y62665305D01*
G37*
G36*
X-84378800Y62554357D02*
G01*
X-84378800Y62538102D01*
X-84349590Y62538102D01*
X-84324444Y62516766D01*
X-84378800Y62483492D01*
X-84378800Y62465457D01*
X-84313268Y62506860D01*
X-84269072Y62470538D01*
X-84269072Y62489079D01*
X-84329016Y62537340D01*
X-84329016Y62538102D01*
X-84217002Y62538102D01*
X-84217002Y62554357D01*
G37*
G36*
X-84378800Y62397131D02*
G01*
X-84378800Y62380368D01*
X-84307680Y62380368D01*
X-84307680Y62308740D01*
X-84378800Y62308740D01*
X-84378800Y62291722D01*
X-84229956Y62291722D01*
X-84229956Y62308740D01*
X-84292948Y62308740D01*
X-84292948Y62380368D01*
X-84229956Y62380368D01*
X-84229956Y62397131D01*
G37*
G36*
X-84323936Y62260479D02*
G01*
X-84330540Y62260226D01*
X-84336737Y62259413D01*
X-84342630Y62258143D01*
X-84348116Y62256416D01*
X-84353247Y62254231D01*
X-84357972Y62251640D01*
X-84362239Y62248643D01*
X-84367173Y62244224D01*
X-84315300Y62244224D01*
X-84307375Y62242801D01*
X-84300314Y62240363D01*
X-84294218Y62237061D01*
X-84289138Y62232946D01*
X-84285074Y62228171D01*
X-84282127Y62222888D01*
X-84280349Y62217198D01*
X-84279740Y62211204D01*
X-84280298Y62204854D01*
X-84282026Y62199266D01*
X-84284820Y62194389D01*
X-84288731Y62190325D01*
X-84293760Y62187074D01*
X-84299907Y62184686D01*
X-84307070Y62183264D01*
X-84315300Y62182755D01*
X-84315300Y62244224D01*
X-84367173Y62244224D01*
X-84369656Y62241633D01*
X-84372704Y62237620D01*
X-84375294Y62233302D01*
X-84377428Y62228780D01*
X-84379155Y62223954D01*
X-84380374Y62218976D01*
X-84381086Y62213744D01*
X-84381340Y62208410D01*
X-84381086Y62202872D01*
X-84380425Y62197691D01*
X-84379409Y62192865D01*
X-84378038Y62188293D01*
X-84376361Y62184026D01*
X-84374482Y62180012D01*
X-84370164Y62172596D01*
X-84359242Y62178692D01*
X-84363001Y62184940D01*
X-84365795Y62191595D01*
X-84367522Y62198707D01*
X-84368132Y62206378D01*
X-84367776Y62211762D01*
X-84366811Y62216741D01*
X-84365185Y62221414D01*
X-84363001Y62225732D01*
X-84360258Y62229593D01*
X-84356956Y62233098D01*
X-84353146Y62236096D01*
X-84348878Y62238686D01*
X-84344103Y62240769D01*
X-84338972Y62242344D01*
X-84333435Y62243462D01*
X-84327492Y62243970D01*
X-84327492Y62169040D01*
X-84323021Y62168481D01*
X-84317586Y62168278D01*
X-84309915Y62168582D01*
X-84302752Y62169548D01*
X-84296199Y62171173D01*
X-84290154Y62173357D01*
X-84284769Y62176202D01*
X-84280044Y62179606D01*
X-84275930Y62183568D01*
X-84272526Y62188090D01*
X-84269834Y62193119D01*
X-84267852Y62198757D01*
X-84266684Y62204854D01*
X-84266278Y62211457D01*
X-84266532Y62216131D01*
X-84267294Y62220805D01*
X-84268564Y62225326D01*
X-84270291Y62229746D01*
X-84272475Y62233962D01*
X-84275168Y62238026D01*
X-84278266Y62241836D01*
X-84281772Y62245392D01*
X-84285734Y62248643D01*
X-84290052Y62251590D01*
X-84294827Y62254180D01*
X-84299907Y62256365D01*
X-84305394Y62258092D01*
X-84311236Y62259413D01*
X-84317433Y62260226D01*
G37*
G36*
X-84378800Y62140338D02*
G01*
X-84378800Y62123828D01*
X-84298536Y62123828D01*
X-84294421Y62119764D01*
X-84290814Y62115852D01*
X-84287766Y62112093D01*
X-84285277Y62108384D01*
X-84283296Y62104676D01*
X-84281873Y62100815D01*
X-84281060Y62096802D01*
X-84280756Y62092586D01*
X-84281213Y62087302D01*
X-84282534Y62082781D01*
X-84284769Y62079073D01*
X-84287969Y62076076D01*
X-84292236Y62073790D01*
X-84297469Y62072215D01*
X-84303819Y62071300D01*
X-84311236Y62070996D01*
X-84378800Y62070996D01*
X-84378800Y62054231D01*
X-84309204Y62054231D01*
X-84302447Y62054435D01*
X-84296250Y62055146D01*
X-84290611Y62056264D01*
X-84285531Y62057838D01*
X-84281060Y62059921D01*
X-84277149Y62062410D01*
X-84273847Y62065407D01*
X-84271154Y62068913D01*
X-84269021Y62072875D01*
X-84267497Y62077346D01*
X-84266582Y62082273D01*
X-84266278Y62087760D01*
X-84266633Y62093195D01*
X-84267751Y62098377D01*
X-84269478Y62103254D01*
X-84271764Y62107927D01*
X-84274558Y62112398D01*
X-84277758Y62116665D01*
X-84281264Y62120779D01*
X-84285074Y62124844D01*
X-84285074Y62125352D01*
X-84269072Y62126876D01*
X-84269072Y62140338D01*
G37*
G36*
X-84323936Y62026038D02*
G01*
X-84330540Y62025784D01*
X-84336737Y62024971D01*
X-84342630Y62023701D01*
X-84348116Y62021974D01*
X-84353247Y62019789D01*
X-84357972Y62017198D01*
X-84362239Y62014201D01*
X-84367173Y62009781D01*
X-84315300Y62009781D01*
X-84307375Y62008359D01*
X-84300314Y62005921D01*
X-84294218Y62002619D01*
X-84289138Y61998504D01*
X-84285074Y61993729D01*
X-84282127Y61988446D01*
X-84280349Y61982756D01*
X-84279740Y61976762D01*
X-84280298Y61970412D01*
X-84282026Y61964824D01*
X-84284820Y61959947D01*
X-84288731Y61955883D01*
X-84293760Y61952631D01*
X-84299907Y61950244D01*
X-84307070Y61948822D01*
X-84315300Y61948314D01*
X-84315300Y62009781D01*
X-84367173Y62009781D01*
X-84369656Y62007191D01*
X-84372704Y62003178D01*
X-84375294Y61998860D01*
X-84377428Y61994338D01*
X-84379155Y61989512D01*
X-84380374Y61984534D01*
X-84381086Y61979302D01*
X-84381340Y61973968D01*
X-84381086Y61968430D01*
X-84380425Y61963249D01*
X-84379409Y61958423D01*
X-84378038Y61953851D01*
X-84376361Y61949533D01*
X-84374482Y61945469D01*
X-84370164Y61937900D01*
X-84359242Y61943996D01*
X-84363001Y61950295D01*
X-84365795Y61957000D01*
X-84367522Y61964214D01*
X-84368132Y61971936D01*
X-84367776Y61977270D01*
X-84366811Y61982248D01*
X-84365185Y61986871D01*
X-84363001Y61991189D01*
X-84360258Y61995050D01*
X-84356956Y61998555D01*
X-84353146Y62001603D01*
X-84348878Y62004194D01*
X-84344103Y62006276D01*
X-84338972Y62007902D01*
X-84333435Y62008969D01*
X-84327492Y62009528D01*
X-84327492Y61934598D01*
X-84325409Y61934140D01*
X-84320380Y61933836D01*
X-84309915Y61934140D01*
X-84302752Y61935105D01*
X-84296199Y61936731D01*
X-84290154Y61938916D01*
X-84284769Y61941760D01*
X-84280044Y61945164D01*
X-84275930Y61949126D01*
X-84272526Y61953648D01*
X-84269834Y61958677D01*
X-84267852Y61964316D01*
X-84266684Y61970412D01*
X-84266278Y61977016D01*
X-84266532Y61981689D01*
X-84267294Y61986363D01*
X-84268564Y61990884D01*
X-84270291Y61995304D01*
X-84272475Y61999520D01*
X-84275168Y62003584D01*
X-84278266Y62007394D01*
X-84281772Y62010950D01*
X-84285734Y62014201D01*
X-84290052Y62017148D01*
X-84294827Y62019738D01*
X-84299907Y62021923D01*
X-84305394Y62023650D01*
X-84311236Y62024971D01*
X-84317433Y62025784D01*
G37*
G36*
X-84378800Y61905896D02*
G01*
X-84378800Y61889386D01*
X-84307172Y61889386D01*
X-84300568Y61886439D01*
X-84295081Y61883188D01*
X-84290611Y61879683D01*
X-84287055Y61876076D01*
X-84284413Y61872317D01*
X-84282635Y61868507D01*
X-84281619Y61864798D01*
X-84281264Y61861192D01*
X-84281670Y61855807D01*
X-84283042Y61850778D01*
X-84268564Y61847476D01*
X-84267446Y61850270D01*
X-84266735Y61853013D01*
X-84266379Y61855959D01*
X-84266278Y61859160D01*
X-84266684Y61863782D01*
X-84267903Y61868202D01*
X-84269884Y61872469D01*
X-84272577Y61876584D01*
X-84275879Y61880394D01*
X-84279790Y61883950D01*
X-84284210Y61887201D01*
X-84289138Y61890148D01*
X-84289138Y61890910D01*
X-84269072Y61892434D01*
X-84269072Y61905896D01*
G37*
G36*
X-84680044Y63887096D02*
G01*
X-84680044Y63870586D01*
X-84641944Y63870586D01*
X-84622640Y63871094D01*
X-84628075Y63863270D01*
X-84632038Y63855498D01*
X-84634476Y63847776D01*
X-84635054Y63842646D01*
X-84621370Y63842646D01*
X-84620760Y63848640D01*
X-84618728Y63855498D01*
X-84615070Y63862864D01*
X-84609432Y63870586D01*
X-84549996Y63870586D01*
X-84543239Y63862407D01*
X-84538312Y63854634D01*
X-84535264Y63847167D01*
X-84534248Y63839852D01*
X-84534603Y63834670D01*
X-84535619Y63829996D01*
X-84537346Y63825881D01*
X-84539632Y63822224D01*
X-84542528Y63819074D01*
X-84545982Y63816433D01*
X-84549945Y63814198D01*
X-84554415Y63812420D01*
X-84559343Y63811048D01*
X-84564626Y63810134D01*
X-84570366Y63809575D01*
X-84576412Y63809372D01*
X-84583117Y63809676D01*
X-84589366Y63810489D01*
X-84595106Y63811912D01*
X-84600389Y63813740D01*
X-84605114Y63816077D01*
X-84609279Y63818871D01*
X-84612886Y63822021D01*
X-84615883Y63825577D01*
X-84618220Y63829387D01*
X-84619947Y63833552D01*
X-84621014Y63837972D01*
X-84621370Y63842646D01*
X-84635054Y63842646D01*
X-84635340Y63840105D01*
X-84635086Y63835381D01*
X-84634324Y63830758D01*
X-84633104Y63826237D01*
X-84631377Y63821868D01*
X-84629193Y63817703D01*
X-84626551Y63813740D01*
X-84623402Y63810032D01*
X-84619846Y63806578D01*
X-84615832Y63803428D01*
X-84611413Y63800583D01*
X-84606536Y63798094D01*
X-84601253Y63796011D01*
X-84595563Y63794335D01*
X-84589518Y63793116D01*
X-84583016Y63792354D01*
X-84576158Y63792100D01*
X-84569960Y63792303D01*
X-84564067Y63792811D01*
X-84558479Y63793674D01*
X-84553196Y63794944D01*
X-84548218Y63796519D01*
X-84543646Y63798450D01*
X-84539378Y63800685D01*
X-84535568Y63803326D01*
X-84532114Y63806273D01*
X-84529066Y63809524D01*
X-84526424Y63813131D01*
X-84524240Y63817042D01*
X-84522564Y63821310D01*
X-84521294Y63825932D01*
X-84520532Y63830809D01*
X-84520278Y63836042D01*
X-84520633Y63840868D01*
X-84521548Y63845592D01*
X-84523021Y63850215D01*
X-84524951Y63854736D01*
X-84527288Y63859105D01*
X-84529930Y63863372D01*
X-84535772Y63871348D01*
X-84535772Y63872110D01*
X-84523072Y63873634D01*
X-84523072Y63887096D01*
G37*
G36*
X-84604606Y63772542D02*
G01*
X-84611616Y63771881D01*
X-84617763Y63770052D01*
X-84623046Y63767157D01*
X-84627415Y63763296D01*
X-84630818Y63758572D01*
X-84633308Y63753136D01*
X-84634832Y63747091D01*
X-84635340Y63740538D01*
X-84635080Y63736220D01*
X-84622132Y63736220D01*
X-84621116Y63744094D01*
X-84617814Y63750596D01*
X-84612073Y63754914D01*
X-84603590Y63756540D01*
X-84599983Y63756235D01*
X-84596579Y63755371D01*
X-84593379Y63753847D01*
X-84590432Y63751663D01*
X-84587689Y63748767D01*
X-84585200Y63745059D01*
X-84582914Y63740588D01*
X-84580831Y63735254D01*
X-84579002Y63729006D01*
X-84577326Y63721843D01*
X-84575853Y63713664D01*
X-84574634Y63704470D01*
X-84606892Y63704470D01*
X-84613445Y63712598D01*
X-84618220Y63720370D01*
X-84621166Y63728092D01*
X-84622132Y63736220D01*
X-84635080Y63736220D01*
X-84634070Y63730479D01*
X-84632596Y63725602D01*
X-84630666Y63720878D01*
X-84628329Y63716306D01*
X-84625586Y63711937D01*
X-84622589Y63707721D01*
X-84619338Y63703707D01*
X-84619338Y63702946D01*
X-84632800Y63701676D01*
X-84632800Y63687960D01*
X-84564728Y63687960D01*
X-84558327Y63688163D01*
X-84552282Y63688874D01*
X-84546643Y63690042D01*
X-84541461Y63691719D01*
X-84536788Y63693903D01*
X-84532571Y63696596D01*
X-84528964Y63699847D01*
X-84525916Y63703707D01*
X-84523529Y63708127D01*
X-84521751Y63713105D01*
X-84520633Y63718744D01*
X-84520278Y63725044D01*
X-84520633Y63731597D01*
X-84521649Y63737896D01*
X-84523173Y63743890D01*
X-84525154Y63749529D01*
X-84527390Y63754762D01*
X-84529828Y63759588D01*
X-84534756Y63767716D01*
X-84546186Y63761112D01*
X-84541817Y63754254D01*
X-84537905Y63746278D01*
X-84535060Y63737439D01*
X-84533994Y63727838D01*
X-84534654Y63721335D01*
X-84536534Y63716103D01*
X-84539429Y63711988D01*
X-84543188Y63708940D01*
X-84547659Y63706705D01*
X-84552637Y63705333D01*
X-84557971Y63704622D01*
X-84563458Y63704470D01*
X-84565744Y63720878D01*
X-84567166Y63728193D01*
X-84568741Y63734950D01*
X-84570519Y63741096D01*
X-84572449Y63746634D01*
X-84574634Y63751663D01*
X-84576970Y63756133D01*
X-84579561Y63760045D01*
X-84582406Y63763398D01*
X-84585454Y63766242D01*
X-84588756Y63768528D01*
X-84592312Y63770306D01*
X-84596122Y63771526D01*
X-84600237Y63772288D01*
G37*
G36*
X-84536788Y63668402D02*
G01*
X-84536788Y63651892D01*
X-84599780Y63651892D01*
X-84607450Y63651536D01*
X-84614359Y63650368D01*
X-84620404Y63648336D01*
X-84625535Y63645338D01*
X-84629701Y63641224D01*
X-84632800Y63635940D01*
X-84634679Y63629336D01*
X-84635340Y63621412D01*
X-84634984Y63616687D01*
X-84634070Y63611760D01*
X-84631276Y63602107D01*
X-84618830Y63605155D01*
X-84620912Y63611556D01*
X-84621624Y63614909D01*
X-84621878Y63618110D01*
X-84620404Y63626390D01*
X-84616137Y63631724D01*
X-84609330Y63634518D01*
X-84600288Y63635381D01*
X-84536788Y63635381D01*
X-84536788Y63605155D01*
X-84523072Y63605155D01*
X-84523072Y63635381D01*
X-84492084Y63635381D01*
X-84492084Y63649098D01*
X-84523072Y63651129D01*
X-84524088Y63668402D01*
G37*
G36*
X-84632800Y63579755D02*
G01*
X-84632800Y63563500D01*
X-84561172Y63563500D01*
X-84554568Y63560452D01*
X-84549081Y63557150D01*
X-84544611Y63553644D01*
X-84541055Y63549936D01*
X-84538413Y63546177D01*
X-84536635Y63542367D01*
X-84535619Y63538658D01*
X-84535264Y63535052D01*
X-84535670Y63529768D01*
X-84537042Y63524892D01*
X-84522564Y63521590D01*
X-84521446Y63524231D01*
X-84520735Y63526924D01*
X-84520379Y63529819D01*
X-84520278Y63533020D01*
X-84520684Y63537642D01*
X-84521903Y63542062D01*
X-84523884Y63546380D01*
X-84526577Y63550444D01*
X-84529879Y63554305D01*
X-84533790Y63557912D01*
X-84538210Y63561264D01*
X-84543138Y63564262D01*
X-84543138Y63564770D01*
X-84523072Y63566548D01*
X-84523072Y63579755D01*
G37*
G36*
X-84488020Y63506096D02*
G01*
X-84492795Y63505283D01*
X-84496402Y63502946D01*
X-84498688Y63499238D01*
X-84499450Y63494412D01*
X-84498688Y63489992D01*
X-84496402Y63486436D01*
X-84492795Y63484099D01*
X-84488020Y63483236D01*
X-84483397Y63484099D01*
X-84479841Y63486436D01*
X-84477606Y63489992D01*
X-84476844Y63494412D01*
X-84477606Y63499238D01*
X-84479841Y63502946D01*
X-84483397Y63505283D01*
G37*
G36*
X-84632800Y63502794D02*
G01*
X-84632800Y63486284D01*
X-84523072Y63486284D01*
X-84523072Y63502794D01*
G37*
G36*
X-84577936Y63456820D02*
G01*
X-84584590Y63456566D01*
X-84590839Y63455804D01*
X-84596732Y63454584D01*
X-84602218Y63452857D01*
X-84607349Y63450774D01*
X-84612073Y63448234D01*
X-84616391Y63445339D01*
X-84620252Y63442037D01*
X-84623706Y63438430D01*
X-84626754Y63434518D01*
X-84629345Y63430302D01*
X-84631479Y63425831D01*
X-84633155Y63421158D01*
X-84634374Y63416179D01*
X-84635086Y63411049D01*
X-84635340Y63405766D01*
X-84635086Y63400787D01*
X-84634425Y63395910D01*
X-84633257Y63391237D01*
X-84631682Y63386665D01*
X-84629701Y63382347D01*
X-84627313Y63378130D01*
X-84624519Y63374219D01*
X-84621370Y63370460D01*
X-84610448Y63377572D01*
X-84614766Y63383261D01*
X-84618322Y63389662D01*
X-84620709Y63396672D01*
X-84621624Y63404242D01*
X-84621268Y63409372D01*
X-84620201Y63414198D01*
X-84618474Y63418669D01*
X-84616086Y63422784D01*
X-84613140Y63426492D01*
X-84609584Y63429794D01*
X-84605520Y63432690D01*
X-84600897Y63435077D01*
X-84595817Y63437007D01*
X-84590280Y63438379D01*
X-84584286Y63439243D01*
X-84577936Y63439548D01*
X-84571636Y63439243D01*
X-84565693Y63438328D01*
X-84560156Y63436855D01*
X-84555076Y63434823D01*
X-84550504Y63432334D01*
X-84546389Y63429388D01*
X-84542833Y63425984D01*
X-84539836Y63422225D01*
X-84537448Y63418110D01*
X-84535670Y63413690D01*
X-84534603Y63408966D01*
X-84534248Y63403988D01*
X-84534959Y63397485D01*
X-84536991Y63391592D01*
X-84540140Y63386207D01*
X-84544154Y63381128D01*
X-84533486Y63372492D01*
X-84528406Y63378689D01*
X-84524189Y63385903D01*
X-84521344Y63394437D01*
X-84520278Y63404496D01*
X-84520532Y63409677D01*
X-84521243Y63414757D01*
X-84522462Y63419685D01*
X-84524138Y63424460D01*
X-84526272Y63429032D01*
X-84528863Y63433350D01*
X-84531911Y63437363D01*
X-84535365Y63441122D01*
X-84539277Y63444577D01*
X-84543595Y63447625D01*
X-84548370Y63450317D01*
X-84553501Y63452552D01*
X-84559038Y63454381D01*
X-84564982Y63455702D01*
X-84571281Y63456515D01*
G37*
G36*
X-84632800Y63345314D02*
G01*
X-84632800Y63329057D01*
X-84603590Y63329057D01*
X-84578444Y63307722D01*
X-84632800Y63274702D01*
X-84632800Y63256668D01*
X-84567268Y63298070D01*
X-84523072Y63261748D01*
X-84523072Y63280036D01*
X-84583016Y63328550D01*
X-84583016Y63329057D01*
X-84471002Y63329057D01*
X-84471002Y63345314D01*
G37*
G36*
X-84632800Y63235078D02*
G01*
X-84632800Y63218568D01*
X-84552536Y63218568D01*
X-84544814Y63210490D01*
X-84541766Y63206680D01*
X-84539277Y63202972D01*
X-84537296Y63199213D01*
X-84535873Y63195403D01*
X-84535060Y63191491D01*
X-84534756Y63187326D01*
X-84535213Y63181992D01*
X-84536534Y63177470D01*
X-84538769Y63173711D01*
X-84541969Y63170714D01*
X-84546236Y63168377D01*
X-84551469Y63166752D01*
X-84557819Y63165786D01*
X-84565236Y63165481D01*
X-84632800Y63165481D01*
X-84632800Y63148972D01*
X-84563204Y63148972D01*
X-84556447Y63149175D01*
X-84550250Y63149835D01*
X-84544611Y63150953D01*
X-84539531Y63152528D01*
X-84535060Y63154560D01*
X-84531149Y63157049D01*
X-84527847Y63160046D01*
X-84525154Y63163551D01*
X-84523021Y63167514D01*
X-84521497Y63171984D01*
X-84520582Y63176962D01*
X-84520278Y63182500D01*
X-84520633Y63187935D01*
X-84521751Y63193066D01*
X-84523478Y63197892D01*
X-84525713Y63202515D01*
X-84528507Y63206884D01*
X-84531657Y63211100D01*
X-84538820Y63219076D01*
X-84515960Y63218568D01*
X-84471002Y63218568D01*
X-84471002Y63235078D01*
G37*
G36*
X-84577936Y63121286D02*
G01*
X-84584540Y63121031D01*
X-84590737Y63120219D01*
X-84596630Y63118949D01*
X-84602116Y63117222D01*
X-84607247Y63115037D01*
X-84611972Y63112446D01*
X-84616239Y63109449D01*
X-84621173Y63105029D01*
X-84569300Y63105029D01*
X-84561375Y63103607D01*
X-84554314Y63101169D01*
X-84548218Y63097867D01*
X-84543138Y63093752D01*
X-84539074Y63088977D01*
X-84536127Y63083694D01*
X-84534349Y63078004D01*
X-84533740Y63072010D01*
X-84534298Y63065660D01*
X-84536026Y63060072D01*
X-84538820Y63055195D01*
X-84542731Y63051131D01*
X-84547760Y63047879D01*
X-84553907Y63045492D01*
X-84561070Y63044070D01*
X-84569300Y63043562D01*
X-84569300Y63105029D01*
X-84621173Y63105029D01*
X-84623656Y63102439D01*
X-84626704Y63098426D01*
X-84629294Y63094107D01*
X-84631428Y63089586D01*
X-84633155Y63084760D01*
X-84634374Y63079782D01*
X-84635086Y63074550D01*
X-84635340Y63069216D01*
X-84635086Y63063678D01*
X-84634425Y63058497D01*
X-84633409Y63053671D01*
X-84632038Y63049099D01*
X-84630361Y63044781D01*
X-84628482Y63040717D01*
X-84624164Y63033148D01*
X-84613242Y63039244D01*
X-84617001Y63045543D01*
X-84619795Y63052248D01*
X-84621522Y63059462D01*
X-84622132Y63067184D01*
X-84621776Y63072518D01*
X-84620811Y63077496D01*
X-84619185Y63082119D01*
X-84617001Y63086437D01*
X-84614258Y63090298D01*
X-84610956Y63093803D01*
X-84607146Y63096851D01*
X-84602878Y63099442D01*
X-84598103Y63101524D01*
X-84592972Y63103150D01*
X-84587435Y63104217D01*
X-84581492Y63104776D01*
X-84581492Y63029846D01*
X-84579409Y63029388D01*
X-84574380Y63029084D01*
X-84563915Y63029388D01*
X-84556752Y63030354D01*
X-84550199Y63031979D01*
X-84544154Y63034164D01*
X-84538769Y63037008D01*
X-84534044Y63040412D01*
X-84529930Y63044374D01*
X-84526526Y63048896D01*
X-84523834Y63053925D01*
X-84521852Y63059564D01*
X-84520684Y63065660D01*
X-84520278Y63072264D01*
X-84520532Y63076937D01*
X-84521294Y63081611D01*
X-84522564Y63086132D01*
X-84524291Y63090552D01*
X-84526475Y63094768D01*
X-84529168Y63098832D01*
X-84532266Y63102642D01*
X-84535772Y63106198D01*
X-84539734Y63109449D01*
X-84544052Y63112396D01*
X-84548827Y63114986D01*
X-84553907Y63117171D01*
X-84559394Y63118898D01*
X-84565236Y63120219D01*
X-84571433Y63121031D01*
G37*
G36*
X-84632800Y63001144D02*
G01*
X-84632800Y62984634D01*
X-84552536Y62984634D01*
X-84544814Y62976556D01*
X-84541766Y62972797D01*
X-84539277Y62969089D01*
X-84537296Y62965380D01*
X-84535873Y62961570D01*
X-84535060Y62957608D01*
X-84534756Y62953392D01*
X-84535213Y62948057D01*
X-84536534Y62943536D01*
X-84538769Y62939777D01*
X-84541969Y62936780D01*
X-84546236Y62934443D01*
X-84551469Y62932818D01*
X-84557819Y62931852D01*
X-84565236Y62931548D01*
X-84632800Y62931548D01*
X-84632800Y62915038D01*
X-84563204Y62915038D01*
X-84556447Y62915241D01*
X-84550250Y62915901D01*
X-84544611Y62917019D01*
X-84539531Y62918594D01*
X-84535060Y62920626D01*
X-84531149Y62923115D01*
X-84527847Y62926112D01*
X-84525154Y62929617D01*
X-84523021Y62933579D01*
X-84521497Y62938050D01*
X-84520582Y62943028D01*
X-84520278Y62948566D01*
X-84520633Y62954001D01*
X-84521751Y62959183D01*
X-84523478Y62964060D01*
X-84525764Y62968682D01*
X-84528558Y62973102D01*
X-84531758Y62977369D01*
X-84535264Y62981433D01*
X-84539074Y62985396D01*
X-84539074Y62986157D01*
X-84523072Y62987681D01*
X-84523072Y63001144D01*
G37*
G36*
X-84577936Y62886844D02*
G01*
X-84584540Y62886590D01*
X-84590737Y62885777D01*
X-84596630Y62884507D01*
X-84602116Y62882729D01*
X-84607247Y62880544D01*
X-84611972Y62877954D01*
X-84616239Y62874956D01*
X-84621075Y62870588D01*
X-84569300Y62870588D01*
X-84561375Y62869165D01*
X-84554314Y62866727D01*
X-84548218Y62863425D01*
X-84543138Y62859310D01*
X-84539074Y62854535D01*
X-84536127Y62849252D01*
X-84534349Y62843562D01*
X-84533740Y62837568D01*
X-84534298Y62831218D01*
X-84536026Y62825629D01*
X-84538820Y62820753D01*
X-84542731Y62816689D01*
X-84547760Y62813438D01*
X-84553907Y62811050D01*
X-84561070Y62809628D01*
X-84569300Y62809120D01*
X-84569300Y62870588D01*
X-84621075Y62870588D01*
X-84623656Y62867895D01*
X-84626704Y62863882D01*
X-84629294Y62859564D01*
X-84631428Y62855043D01*
X-84633155Y62850217D01*
X-84634374Y62845238D01*
X-84635086Y62840107D01*
X-84635340Y62834774D01*
X-84635086Y62829236D01*
X-84634425Y62824055D01*
X-84633409Y62819229D01*
X-84632038Y62814657D01*
X-84630361Y62810339D01*
X-84628482Y62806275D01*
X-84624164Y62798705D01*
X-84613242Y62804802D01*
X-84617001Y62811050D01*
X-84619795Y62817705D01*
X-84621522Y62824918D01*
X-84622132Y62832742D01*
X-84621776Y62838076D01*
X-84620811Y62843054D01*
X-84619185Y62847677D01*
X-84617001Y62851995D01*
X-84614258Y62855855D01*
X-84610956Y62859361D01*
X-84607146Y62862409D01*
X-84602878Y62865000D01*
X-84598103Y62867082D01*
X-84592972Y62868708D01*
X-84587435Y62869775D01*
X-84581492Y62870334D01*
X-84581492Y62795404D01*
X-84577021Y62794591D01*
X-84571586Y62794388D01*
X-84563915Y62794743D01*
X-84556752Y62795708D01*
X-84550199Y62797334D01*
X-84544154Y62799569D01*
X-84538769Y62802414D01*
X-84534044Y62805818D01*
X-84529930Y62809831D01*
X-84526526Y62814352D01*
X-84523834Y62819483D01*
X-84521852Y62825071D01*
X-84520684Y62831218D01*
X-84520278Y62837822D01*
X-84520532Y62842495D01*
X-84521294Y62847169D01*
X-84522564Y62851690D01*
X-84524291Y62856110D01*
X-84526475Y62860326D01*
X-84529168Y62864390D01*
X-84532266Y62868200D01*
X-84535772Y62871756D01*
X-84539734Y62875007D01*
X-84544052Y62877954D01*
X-84548827Y62880544D01*
X-84553907Y62882729D01*
X-84559394Y62884456D01*
X-84565236Y62885777D01*
X-84571433Y62886590D01*
G37*
G36*
X-84632800Y62766702D02*
G01*
X-84632800Y62750192D01*
X-84561172Y62750192D01*
X-84554568Y62747194D01*
X-84549081Y62743892D01*
X-84544611Y62740387D01*
X-84541055Y62736780D01*
X-84538413Y62733021D01*
X-84536635Y62729313D01*
X-84535619Y62725604D01*
X-84535264Y62721998D01*
X-84535670Y62716511D01*
X-84537042Y62711584D01*
X-84522564Y62708281D01*
X-84521446Y62711025D01*
X-84520735Y62713768D01*
X-84520379Y62716664D01*
X-84520278Y62719966D01*
X-84520684Y62724588D01*
X-84521903Y62729008D01*
X-84523884Y62733275D01*
X-84526577Y62737390D01*
X-84529879Y62741200D01*
X-84533790Y62744756D01*
X-84538210Y62748007D01*
X-84543138Y62750954D01*
X-84543138Y62751716D01*
X-84523072Y62753240D01*
X-84523072Y62766702D01*
G37*
G36*
X-84586826Y62697614D02*
G01*
X-84593226Y62697410D01*
X-84599373Y62696902D01*
X-84605215Y62696039D01*
X-84610854Y62694820D01*
X-84616239Y62693296D01*
X-84621370Y62691467D01*
X-84626246Y62689384D01*
X-84630818Y62686946D01*
X-84635187Y62684253D01*
X-84639251Y62681307D01*
X-84643061Y62678106D01*
X-84646617Y62674703D01*
X-84649868Y62671045D01*
X-84652866Y62667134D01*
X-84655609Y62663019D01*
X-84658047Y62658752D01*
X-84660181Y62654281D01*
X-84662060Y62649607D01*
X-84663686Y62644781D01*
X-84665007Y62639803D01*
X-84666023Y62634723D01*
X-84666734Y62629440D01*
X-84667191Y62624106D01*
X-84667344Y62618620D01*
X-84667140Y62612778D01*
X-84666632Y62607139D01*
X-84665718Y62601602D01*
X-84664448Y62596217D01*
X-84662822Y62590934D01*
X-84660790Y62585752D01*
X-84658403Y62580672D01*
X-84655660Y62575694D01*
X-84645500Y62580266D01*
X-84649716Y62588495D01*
X-84651494Y62592915D01*
X-84654237Y62602211D01*
X-84655152Y62607139D01*
X-84655710Y62612168D01*
X-84655914Y62617350D01*
X-84655710Y62623090D01*
X-84655152Y62628678D01*
X-84654186Y62634114D01*
X-84652916Y62639295D01*
X-84651240Y62644324D01*
X-84649208Y62649100D01*
X-84646820Y62653621D01*
X-84644077Y62657939D01*
X-84640978Y62661952D01*
X-84637575Y62665711D01*
X-84633866Y62669166D01*
X-84629802Y62672315D01*
X-84625434Y62675160D01*
X-84620709Y62677649D01*
X-84615731Y62679834D01*
X-84610448Y62681612D01*
X-84604809Y62683034D01*
X-84598967Y62684050D01*
X-84592769Y62684710D01*
X-84586318Y62684914D01*
X-84579764Y62684710D01*
X-84573364Y62684101D01*
X-84567217Y62683136D01*
X-84561273Y62681815D01*
X-84555584Y62680138D01*
X-84550097Y62678157D01*
X-84544814Y62675871D01*
X-84539836Y62673280D01*
X-84535060Y62670385D01*
X-84530590Y62667286D01*
X-84526323Y62663882D01*
X-84522360Y62660326D01*
X-84518703Y62656516D01*
X-84515299Y62652503D01*
X-84512200Y62648338D01*
X-84509356Y62643969D01*
X-84506866Y62639498D01*
X-84504682Y62634876D01*
X-84502802Y62630151D01*
X-84501228Y62625325D01*
X-84500008Y62620398D01*
X-84499145Y62615470D01*
X-84498637Y62610441D01*
X-84498434Y62605412D01*
X-84498738Y62597995D01*
X-84499653Y62591035D01*
X-84501126Y62584482D01*
X-84503158Y62578437D01*
X-84505698Y62572798D01*
X-84508746Y62567616D01*
X-84512302Y62562892D01*
X-84516315Y62558676D01*
X-84520735Y62554916D01*
X-84525612Y62551614D01*
X-84530844Y62548820D01*
X-84536483Y62546534D01*
X-84542426Y62544756D01*
X-84548726Y62543436D01*
X-84555330Y62542674D01*
X-84562188Y62542420D01*
X-84569401Y62542775D01*
X-84576107Y62543740D01*
X-84582254Y62545264D01*
X-84587842Y62547296D01*
X-84592820Y62549735D01*
X-84597189Y62552579D01*
X-84600948Y62555678D01*
X-84604047Y62559031D01*
X-84606485Y62562587D01*
X-84608263Y62566194D01*
X-84609330Y62569801D01*
X-84609686Y62573407D01*
X-84609279Y62577776D01*
X-84608009Y62581383D01*
X-84605876Y62584228D01*
X-84602929Y62586260D01*
X-84599068Y62587428D01*
X-84594344Y62587835D01*
X-84588756Y62587378D01*
X-84537804Y62577218D01*
X-84537804Y62588648D01*
X-84546948Y62590934D01*
X-84546948Y62591188D01*
X-84541969Y62594794D01*
X-84538515Y62599112D01*
X-84536432Y62603989D01*
X-84535772Y62609476D01*
X-84536330Y62615927D01*
X-84538007Y62621972D01*
X-84540598Y62627510D01*
X-84544001Y62632590D01*
X-84548167Y62637162D01*
X-84552942Y62641175D01*
X-84558225Y62644680D01*
X-84563864Y62647576D01*
X-84569757Y62649862D01*
X-84575802Y62651538D01*
X-84581847Y62652554D01*
X-84587842Y62652910D01*
X-84595106Y62652351D01*
X-84601507Y62650827D01*
X-84606993Y62648338D01*
X-84611565Y62645086D01*
X-84615121Y62641073D01*
X-84617763Y62636501D01*
X-84619338Y62631421D01*
X-84619846Y62625986D01*
X-84619331Y62622938D01*
X-84607908Y62622938D01*
X-84606739Y62629491D01*
X-84603082Y62634723D01*
X-84596528Y62638178D01*
X-84586826Y62639448D01*
X-84580120Y62638940D01*
X-84573313Y62637365D01*
X-84566760Y62634876D01*
X-84560714Y62631472D01*
X-84555482Y62627154D01*
X-84551367Y62622074D01*
X-84548675Y62616232D01*
X-84547710Y62609729D01*
X-84548167Y62605310D01*
X-84549792Y62601449D01*
X-84552739Y62597893D01*
X-84557362Y62594490D01*
X-84594192Y62601094D01*
X-84600389Y62606986D01*
X-84604656Y62612574D01*
X-84607146Y62617857D01*
X-84607908Y62622938D01*
X-84619331Y62622938D01*
X-84618576Y62618467D01*
X-84615223Y62611203D01*
X-84610194Y62604396D01*
X-84604098Y62598300D01*
X-84604098Y62598046D01*
X-84611667Y62595505D01*
X-84617001Y62590476D01*
X-84620100Y62583466D01*
X-84621116Y62574931D01*
X-84620862Y62571071D01*
X-84620150Y62567210D01*
X-84618982Y62563298D01*
X-84617306Y62559438D01*
X-84615223Y62555628D01*
X-84612632Y62551919D01*
X-84609533Y62548414D01*
X-84606028Y62545112D01*
X-84602066Y62542013D01*
X-84597595Y62539168D01*
X-84592718Y62536679D01*
X-84587384Y62534546D01*
X-84581542Y62532818D01*
X-84575294Y62531548D01*
X-84568588Y62530736D01*
X-84561426Y62530481D01*
X-84554923Y62530685D01*
X-84548624Y62531294D01*
X-84542528Y62532361D01*
X-84536737Y62533784D01*
X-84531149Y62535612D01*
X-84525866Y62537797D01*
X-84520836Y62540388D01*
X-84516112Y62543334D01*
X-84511743Y62546636D01*
X-84507628Y62550243D01*
X-84503869Y62554256D01*
X-84500466Y62558574D01*
X-84497418Y62563197D01*
X-84494725Y62568175D01*
X-84492439Y62573458D01*
X-84490509Y62579046D01*
X-84488985Y62584888D01*
X-84487918Y62591035D01*
X-84487207Y62597436D01*
X-84487004Y62604142D01*
X-84487156Y62609476D01*
X-84487613Y62614708D01*
X-84488324Y62619890D01*
X-84490661Y62629999D01*
X-84494116Y62639752D01*
X-84496249Y62644426D01*
X-84498637Y62648998D01*
X-84501278Y62653418D01*
X-84504174Y62657736D01*
X-84507324Y62661850D01*
X-84514334Y62669572D01*
X-84518195Y62673128D01*
X-84522259Y62676481D01*
X-84526577Y62679681D01*
X-84531047Y62682628D01*
X-84535772Y62685320D01*
X-84540699Y62687809D01*
X-84545830Y62689994D01*
X-84551164Y62691975D01*
X-84556650Y62693651D01*
X-84562340Y62695074D01*
X-84568233Y62696140D01*
X-84574227Y62696953D01*
X-84580476Y62697461D01*
G37*
G36*
X-84680044Y62499748D02*
G01*
X-84680044Y62483238D01*
X-84641944Y62483238D01*
X-84622640Y62483492D01*
X-84628075Y62475821D01*
X-84632038Y62468150D01*
X-84634476Y62460428D01*
X-84635082Y62455044D01*
X-84621370Y62455044D01*
X-84620760Y62461190D01*
X-84618728Y62468099D01*
X-84615070Y62475516D01*
X-84609432Y62483238D01*
X-84549996Y62483238D01*
X-84543239Y62475059D01*
X-84538312Y62467286D01*
X-84535264Y62459819D01*
X-84534248Y62452504D01*
X-84534603Y62447322D01*
X-84535619Y62442648D01*
X-84537346Y62438534D01*
X-84539632Y62434876D01*
X-84542528Y62431726D01*
X-84545982Y62429085D01*
X-84549945Y62426850D01*
X-84554415Y62425072D01*
X-84559343Y62423700D01*
X-84564626Y62422786D01*
X-84570366Y62422227D01*
X-84576412Y62422024D01*
X-84583117Y62422328D01*
X-84589366Y62423141D01*
X-84595106Y62424513D01*
X-84600389Y62426342D01*
X-84605114Y62428678D01*
X-84609279Y62431371D01*
X-84612886Y62434520D01*
X-84615883Y62438026D01*
X-84618220Y62441836D01*
X-84619947Y62446001D01*
X-84621014Y62450370D01*
X-84621370Y62455044D01*
X-84635082Y62455044D01*
X-84635340Y62452757D01*
X-84635086Y62448033D01*
X-84634324Y62443410D01*
X-84633104Y62438889D01*
X-84631377Y62434520D01*
X-84629193Y62430355D01*
X-84626551Y62426392D01*
X-84623402Y62422684D01*
X-84619846Y62419229D01*
X-84615832Y62416080D01*
X-84611413Y62413235D01*
X-84606536Y62410746D01*
X-84601253Y62408663D01*
X-84595563Y62406987D01*
X-84589518Y62405768D01*
X-84583016Y62405005D01*
X-84576158Y62404752D01*
X-84569960Y62404955D01*
X-84564067Y62405463D01*
X-84558479Y62406326D01*
X-84553196Y62407596D01*
X-84548218Y62409171D01*
X-84543646Y62411102D01*
X-84539378Y62413337D01*
X-84535568Y62415978D01*
X-84532114Y62418925D01*
X-84529066Y62422176D01*
X-84526424Y62425783D01*
X-84524240Y62429694D01*
X-84522564Y62433962D01*
X-84521294Y62438584D01*
X-84520532Y62443461D01*
X-84520278Y62448694D01*
X-84520633Y62453418D01*
X-84521548Y62458142D01*
X-84523021Y62462765D01*
X-84524951Y62467286D01*
X-84527288Y62471706D01*
X-84532774Y62480088D01*
X-84535772Y62484000D01*
X-84535772Y62484507D01*
X-84523072Y62486286D01*
X-84523072Y62499748D01*
G37*
G36*
X-84577936Y62383162D02*
G01*
X-84584590Y62382907D01*
X-84590839Y62382095D01*
X-84596732Y62380825D01*
X-84602218Y62379047D01*
X-84607349Y62376862D01*
X-84612073Y62374272D01*
X-84616391Y62371325D01*
X-84620252Y62368023D01*
X-84623706Y62364416D01*
X-84626754Y62360505D01*
X-84629345Y62356339D01*
X-84631479Y62351970D01*
X-84633155Y62347398D01*
X-84634374Y62342674D01*
X-84635086Y62337848D01*
X-84635340Y62332870D01*
X-84621624Y62332870D01*
X-84621268Y62337645D01*
X-84620201Y62342115D01*
X-84618474Y62346331D01*
X-84616086Y62350192D01*
X-84613140Y62353698D01*
X-84609584Y62356847D01*
X-84605520Y62359590D01*
X-84600897Y62361876D01*
X-84595817Y62363705D01*
X-84590280Y62365026D01*
X-84584286Y62365839D01*
X-84577936Y62366144D01*
X-84571636Y62365839D01*
X-84565693Y62365026D01*
X-84560156Y62363705D01*
X-84555076Y62361876D01*
X-84550504Y62359590D01*
X-84546389Y62356847D01*
X-84542833Y62353698D01*
X-84539836Y62350192D01*
X-84537448Y62346331D01*
X-84535670Y62342115D01*
X-84534603Y62337645D01*
X-84534248Y62332870D01*
X-84534603Y62328044D01*
X-84535670Y62323522D01*
X-84537448Y62319255D01*
X-84539836Y62315394D01*
X-84542833Y62311838D01*
X-84546389Y62308689D01*
X-84550504Y62305946D01*
X-84555076Y62303609D01*
X-84560156Y62301780D01*
X-84565693Y62300459D01*
X-84571636Y62299646D01*
X-84577936Y62299342D01*
X-84584286Y62299646D01*
X-84590280Y62300459D01*
X-84595817Y62301780D01*
X-84600897Y62303609D01*
X-84605520Y62305946D01*
X-84609584Y62308689D01*
X-84613140Y62311838D01*
X-84616086Y62315394D01*
X-84618474Y62319255D01*
X-84620201Y62323522D01*
X-84621268Y62328044D01*
X-84621624Y62332870D01*
X-84635340Y62332870D01*
X-84635086Y62327840D01*
X-84634374Y62322964D01*
X-84633155Y62318188D01*
X-84631479Y62313616D01*
X-84629345Y62309197D01*
X-84626754Y62305031D01*
X-84623706Y62301120D01*
X-84620252Y62297513D01*
X-84616391Y62294211D01*
X-84612073Y62291214D01*
X-84607349Y62288623D01*
X-84602218Y62286438D01*
X-84596732Y62284660D01*
X-84590839Y62283390D01*
X-84584590Y62282578D01*
X-84577936Y62282324D01*
X-84571281Y62282578D01*
X-84564982Y62283390D01*
X-84559038Y62284660D01*
X-84553501Y62286438D01*
X-84548370Y62288623D01*
X-84543595Y62291214D01*
X-84539277Y62294211D01*
X-84535365Y62297513D01*
X-84531911Y62301120D01*
X-84528863Y62305031D01*
X-84526272Y62309197D01*
X-84524138Y62313616D01*
X-84522462Y62318188D01*
X-84521243Y62322964D01*
X-84520532Y62327840D01*
X-84520278Y62332870D01*
X-84520532Y62337848D01*
X-84521243Y62342674D01*
X-84522462Y62347398D01*
X-84524138Y62351970D01*
X-84526272Y62356339D01*
X-84528863Y62360505D01*
X-84531911Y62364416D01*
X-84535365Y62368023D01*
X-84539277Y62371325D01*
X-84543595Y62374272D01*
X-84548370Y62376862D01*
X-84553501Y62379047D01*
X-84559038Y62380825D01*
X-84564982Y62382095D01*
X-84571281Y62382907D01*
G37*
G36*
X-84620354Y62265052D02*
G01*
X-84623452Y62261038D01*
X-84626348Y62256619D01*
X-84628888Y62251793D01*
X-84631072Y62246713D01*
X-84632850Y62241379D01*
X-84634222Y62235892D01*
X-84635035Y62230203D01*
X-84635340Y62224412D01*
X-84634679Y62215420D01*
X-84632800Y62207546D01*
X-84629853Y62200790D01*
X-84625891Y62195202D01*
X-84621166Y62190782D01*
X-84615731Y62187632D01*
X-84609736Y62185702D01*
X-84603336Y62185042D01*
X-84596173Y62185854D01*
X-84590178Y62188090D01*
X-84585251Y62191595D01*
X-84581136Y62196065D01*
X-84577732Y62201298D01*
X-84574786Y62206987D01*
X-84569808Y62219078D01*
X-84566353Y62228069D01*
X-84562391Y62235689D01*
X-84557158Y62240972D01*
X-84549996Y62242954D01*
X-84543646Y62241684D01*
X-84538413Y62237823D01*
X-84534806Y62231168D01*
X-84533486Y62221618D01*
X-84534248Y62214556D01*
X-84536330Y62208206D01*
X-84539378Y62202212D01*
X-84543138Y62196472D01*
X-84532470Y62188344D01*
X-84527694Y62195202D01*
X-84523783Y62203177D01*
X-84521243Y62212016D01*
X-84520278Y62221618D01*
X-84520887Y62230101D01*
X-84522665Y62237518D01*
X-84525459Y62243919D01*
X-84529168Y62249253D01*
X-84533689Y62253418D01*
X-84538921Y62256466D01*
X-84544712Y62258346D01*
X-84551012Y62258955D01*
X-84557463Y62258194D01*
X-84562950Y62256111D01*
X-84567674Y62252809D01*
X-84571636Y62248592D01*
X-84574989Y62243665D01*
X-84577834Y62238178D01*
X-84580323Y62232387D01*
X-84586165Y62217350D01*
X-84588248Y62213032D01*
X-84590636Y62209172D01*
X-84593328Y62205870D01*
X-84596427Y62203279D01*
X-84599983Y62201653D01*
X-84604098Y62201044D01*
X-84611260Y62202415D01*
X-84617052Y62206631D01*
X-84620963Y62213693D01*
X-84622386Y62223650D01*
X-84621420Y62233403D01*
X-84618728Y62241887D01*
X-84614562Y62249608D01*
X-84609178Y62256924D01*
G37*
G36*
X-84536788Y62176405D02*
G01*
X-84536788Y62159642D01*
X-84599780Y62159642D01*
X-84607450Y62159286D01*
X-84614359Y62158118D01*
X-84620404Y62156086D01*
X-84625535Y62153088D01*
X-84629701Y62149024D01*
X-84632800Y62143792D01*
X-84634679Y62137290D01*
X-84635340Y62129416D01*
X-84634984Y62124640D01*
X-84634070Y62119611D01*
X-84631276Y62109857D01*
X-84618830Y62113160D01*
X-84619947Y62116055D01*
X-84620912Y62119306D01*
X-84621624Y62122659D01*
X-84621878Y62125860D01*
X-84620404Y62134140D01*
X-84616137Y62139474D01*
X-84609330Y62142268D01*
X-84600288Y62143131D01*
X-84536788Y62143131D01*
X-84536788Y62112905D01*
X-84523072Y62112905D01*
X-84523072Y62143131D01*
X-84492084Y62143131D01*
X-84492084Y62157102D01*
X-84523072Y62159134D01*
X-84524088Y62176405D01*
G37*
G36*
X-84577936Y62099444D02*
G01*
X-84584540Y62099190D01*
X-84590737Y62098377D01*
X-84596630Y62097107D01*
X-84602116Y62095329D01*
X-84607247Y62093144D01*
X-84611972Y62090554D01*
X-84616239Y62087556D01*
X-84621075Y62083188D01*
X-84569300Y62083188D01*
X-84561375Y62081765D01*
X-84554314Y62079327D01*
X-84548218Y62076025D01*
X-84543138Y62071910D01*
X-84539074Y62067135D01*
X-84536127Y62061852D01*
X-84534349Y62056162D01*
X-84533740Y62050168D01*
X-84534298Y62043818D01*
X-84536026Y62038229D01*
X-84538820Y62033353D01*
X-84542731Y62029289D01*
X-84547760Y62026038D01*
X-84553907Y62023650D01*
X-84561070Y62022228D01*
X-84569300Y62021720D01*
X-84569300Y62083188D01*
X-84621075Y62083188D01*
X-84623656Y62080495D01*
X-84626704Y62076482D01*
X-84629294Y62072164D01*
X-84631428Y62067643D01*
X-84633155Y62062817D01*
X-84634374Y62057838D01*
X-84635086Y62052707D01*
X-84635340Y62047374D01*
X-84635086Y62041836D01*
X-84634425Y62036655D01*
X-84633409Y62031829D01*
X-84632038Y62027257D01*
X-84630361Y62022939D01*
X-84628482Y62018875D01*
X-84624164Y62011305D01*
X-84613242Y62017402D01*
X-84617001Y62023650D01*
X-84619795Y62030305D01*
X-84621522Y62037518D01*
X-84622132Y62045342D01*
X-84621776Y62050676D01*
X-84620811Y62055654D01*
X-84619185Y62060277D01*
X-84617001Y62064595D01*
X-84614258Y62068455D01*
X-84610956Y62071961D01*
X-84607146Y62075009D01*
X-84602878Y62077600D01*
X-84598103Y62079682D01*
X-84592972Y62081308D01*
X-84587435Y62082375D01*
X-84581492Y62082934D01*
X-84581492Y62008004D01*
X-84577021Y62007191D01*
X-84571586Y62006988D01*
X-84563915Y62007343D01*
X-84556752Y62008308D01*
X-84550199Y62009934D01*
X-84544154Y62012169D01*
X-84538769Y62015014D01*
X-84534044Y62018418D01*
X-84529930Y62022431D01*
X-84526526Y62026952D01*
X-84523834Y62032083D01*
X-84521852Y62037671D01*
X-84520684Y62043818D01*
X-84520278Y62050422D01*
X-84520532Y62055095D01*
X-84521294Y62059769D01*
X-84522564Y62064290D01*
X-84524291Y62068710D01*
X-84526475Y62072926D01*
X-84529168Y62076990D01*
X-84532266Y62080800D01*
X-84535772Y62084356D01*
X-84539734Y62087607D01*
X-84544052Y62090554D01*
X-84548827Y62093144D01*
X-84553907Y62095329D01*
X-84559394Y62097056D01*
X-84565236Y62098377D01*
X-84571433Y62099190D01*
G37*
G36*
X-84577936Y61987684D02*
G01*
X-84584590Y61987429D01*
X-84590839Y61986617D01*
X-84596732Y61985347D01*
X-84602218Y61983620D01*
X-84607349Y61981435D01*
X-84612073Y61978895D01*
X-84616391Y61975949D01*
X-84620252Y61972647D01*
X-84623706Y61969040D01*
X-84626754Y61965128D01*
X-84629345Y61960963D01*
X-84631479Y61956594D01*
X-84633155Y61952022D01*
X-84634374Y61947298D01*
X-84635086Y61942370D01*
X-84635340Y61937392D01*
X-84621624Y61937392D01*
X-84621268Y61942218D01*
X-84620201Y61946739D01*
X-84618474Y61950955D01*
X-84616086Y61954816D01*
X-84613140Y61958321D01*
X-84609584Y61961471D01*
X-84605520Y61964163D01*
X-84600897Y61966449D01*
X-84595817Y61968227D01*
X-84590280Y61969599D01*
X-84584286Y61970412D01*
X-84577936Y61970666D01*
X-84571636Y61970412D01*
X-84565693Y61969599D01*
X-84560156Y61968278D01*
X-84555076Y61966449D01*
X-84550504Y61964163D01*
X-84546389Y61961471D01*
X-84542833Y61958321D01*
X-84539836Y61954816D01*
X-84537448Y61950955D01*
X-84535670Y61946739D01*
X-84534603Y61942218D01*
X-84534248Y61937392D01*
X-84534603Y61932566D01*
X-84535670Y61928044D01*
X-84537448Y61923777D01*
X-84539836Y61919916D01*
X-84542833Y61916360D01*
X-84546389Y61913211D01*
X-84550504Y61910468D01*
X-84555076Y61908131D01*
X-84560156Y61906302D01*
X-84565693Y61904981D01*
X-84571636Y61904168D01*
X-84577936Y61903864D01*
X-84584286Y61904168D01*
X-84590280Y61904981D01*
X-84595817Y61906302D01*
X-84600897Y61908131D01*
X-84605520Y61910468D01*
X-84609584Y61913211D01*
X-84613140Y61916360D01*
X-84616086Y61919916D01*
X-84618474Y61923777D01*
X-84620201Y61928044D01*
X-84621268Y61932566D01*
X-84621624Y61937392D01*
X-84635340Y61937392D01*
X-84635086Y61932362D01*
X-84634374Y61927486D01*
X-84633155Y61922710D01*
X-84631479Y61918138D01*
X-84629345Y61913719D01*
X-84626754Y61909553D01*
X-84623706Y61905642D01*
X-84620252Y61902035D01*
X-84616391Y61898733D01*
X-84612073Y61895736D01*
X-84607349Y61893145D01*
X-84602218Y61890960D01*
X-84596732Y61889182D01*
X-84590839Y61887912D01*
X-84584590Y61887100D01*
X-84577936Y61886846D01*
X-84571281Y61887100D01*
X-84564982Y61887912D01*
X-84559038Y61889182D01*
X-84553501Y61890960D01*
X-84548370Y61893145D01*
X-84543595Y61895736D01*
X-84539277Y61898733D01*
X-84535365Y61902035D01*
X-84531911Y61905642D01*
X-84528863Y61909553D01*
X-84526272Y61913719D01*
X-84524138Y61918138D01*
X-84522462Y61922710D01*
X-84521243Y61927486D01*
X-84520532Y61932362D01*
X-84520278Y61937392D01*
X-84520532Y61942370D01*
X-84521243Y61947298D01*
X-84522462Y61952022D01*
X-84524138Y61956594D01*
X-84526272Y61960963D01*
X-84528863Y61965128D01*
X-84531911Y61969040D01*
X-84535365Y61972647D01*
X-84539277Y61975949D01*
X-84543595Y61978895D01*
X-84548370Y61981435D01*
X-84553501Y61983620D01*
X-84559038Y61985347D01*
X-84564982Y61986617D01*
X-84571281Y61987429D01*
G37*
G36*
X-84622386Y61863731D02*
G01*
X-84627720Y61862716D01*
X-84631834Y61859972D01*
X-84634425Y61856010D01*
X-84635340Y61851286D01*
X-84634425Y61846409D01*
X-84631834Y61842345D01*
X-84627720Y61839602D01*
X-84622386Y61838586D01*
X-84616848Y61839602D01*
X-84612581Y61842345D01*
X-84609889Y61846409D01*
X-84608924Y61851286D01*
X-84609889Y61856010D01*
X-84612581Y61859972D01*
X-84616848Y61862716D01*
G37*
G36*
X-84577936Y61815218D02*
G01*
X-84584641Y61815014D01*
X-84590991Y61814405D01*
X-84596935Y61813440D01*
X-84602421Y61812068D01*
X-84607552Y61810290D01*
X-84612276Y61808207D01*
X-84616594Y61805769D01*
X-84620455Y61802975D01*
X-84623910Y61799876D01*
X-84626907Y61796472D01*
X-84629447Y61792764D01*
X-84631530Y61788751D01*
X-84633206Y61784484D01*
X-84634374Y61779912D01*
X-84635086Y61775086D01*
X-84635340Y61770005D01*
X-84635122Y61766450D01*
X-84621370Y61766450D01*
X-84621014Y61771276D01*
X-84619998Y61775746D01*
X-84618372Y61779861D01*
X-84616086Y61783518D01*
X-84613191Y61786820D01*
X-84609736Y61789716D01*
X-84605723Y61792205D01*
X-84601151Y61794237D01*
X-84596071Y61795863D01*
X-84590483Y61797031D01*
X-84584438Y61797692D01*
X-84577936Y61797946D01*
X-84571687Y61797641D01*
X-84565794Y61796777D01*
X-84560308Y61795405D01*
X-84555228Y61793526D01*
X-84550605Y61791138D01*
X-84546490Y61788395D01*
X-84542884Y61785246D01*
X-84539886Y61781740D01*
X-84537448Y61777930D01*
X-84535721Y61773816D01*
X-84534603Y61769447D01*
X-84534248Y61764926D01*
X-84534959Y61757864D01*
X-84537092Y61751006D01*
X-84540902Y61744047D01*
X-84546440Y61736731D01*
X-84605876Y61736731D01*
X-84612581Y61744098D01*
X-84617407Y61751413D01*
X-84620354Y61758829D01*
X-84621370Y61766450D01*
X-84635122Y61766450D01*
X-84635035Y61765027D01*
X-84634070Y61760252D01*
X-84632647Y61755680D01*
X-84630717Y61751260D01*
X-84628380Y61747095D01*
X-84625688Y61743132D01*
X-84622741Y61739424D01*
X-84619592Y61735970D01*
X-84619592Y61735462D01*
X-84632800Y61733938D01*
X-84632800Y61720476D01*
X-84471002Y61720476D01*
X-84471002Y61736731D01*
X-84514182Y61736731D01*
X-84533232Y61735970D01*
X-84527796Y61743234D01*
X-84523681Y61750600D01*
X-84521141Y61758474D01*
X-84520278Y61767466D01*
X-84520532Y61772139D01*
X-84521294Y61776762D01*
X-84522564Y61781232D01*
X-84524342Y61785550D01*
X-84526526Y61789665D01*
X-84529218Y61793628D01*
X-84532317Y61797336D01*
X-84535873Y61800790D01*
X-84539836Y61803940D01*
X-84544154Y61806734D01*
X-84548929Y61809223D01*
X-84554009Y61811306D01*
X-84559495Y61812982D01*
X-84565337Y61814202D01*
X-84571484Y61814964D01*
G37*
G36*
X-84577936Y61690504D02*
G01*
X-84584540Y61690250D01*
X-84590737Y61689437D01*
X-84596630Y61688167D01*
X-84602116Y61686440D01*
X-84607247Y61684255D01*
X-84611972Y61681664D01*
X-84616239Y61678667D01*
X-84621173Y61674248D01*
X-84569300Y61674248D01*
X-84561375Y61672825D01*
X-84554314Y61670387D01*
X-84548218Y61667085D01*
X-84543138Y61662970D01*
X-84539074Y61658195D01*
X-84536127Y61652912D01*
X-84534349Y61647222D01*
X-84533740Y61641228D01*
X-84534298Y61634878D01*
X-84536026Y61629290D01*
X-84538820Y61624413D01*
X-84542731Y61620349D01*
X-84547760Y61617098D01*
X-84553907Y61614710D01*
X-84561070Y61613288D01*
X-84569300Y61612779D01*
X-84569300Y61674248D01*
X-84621173Y61674248D01*
X-84623656Y61671657D01*
X-84626704Y61667644D01*
X-84629294Y61663326D01*
X-84631428Y61658804D01*
X-84633155Y61653978D01*
X-84634374Y61649000D01*
X-84635086Y61643768D01*
X-84635340Y61638434D01*
X-84635086Y61632896D01*
X-84634425Y61627715D01*
X-84633409Y61622889D01*
X-84632038Y61618317D01*
X-84630361Y61614050D01*
X-84628482Y61610036D01*
X-84624164Y61602620D01*
X-84613242Y61608716D01*
X-84617001Y61614964D01*
X-84619795Y61621619D01*
X-84621522Y61628731D01*
X-84622132Y61636402D01*
X-84621776Y61641786D01*
X-84620811Y61646765D01*
X-84619185Y61651438D01*
X-84617001Y61655756D01*
X-84614258Y61659617D01*
X-84610956Y61663122D01*
X-84607146Y61666120D01*
X-84602878Y61668710D01*
X-84598103Y61670793D01*
X-84592972Y61672368D01*
X-84587435Y61673486D01*
X-84581492Y61673994D01*
X-84581492Y61599064D01*
X-84577021Y61598505D01*
X-84571586Y61598302D01*
X-84563915Y61598606D01*
X-84556752Y61599572D01*
X-84550199Y61601197D01*
X-84544154Y61603381D01*
X-84538769Y61606226D01*
X-84534044Y61609630D01*
X-84529930Y61613592D01*
X-84526526Y61618114D01*
X-84523834Y61623143D01*
X-84521852Y61628781D01*
X-84520684Y61634878D01*
X-84520278Y61641481D01*
X-84520532Y61646155D01*
X-84521294Y61650829D01*
X-84522564Y61655350D01*
X-84524291Y61659770D01*
X-84526475Y61663986D01*
X-84529168Y61668050D01*
X-84532266Y61671860D01*
X-84535772Y61675416D01*
X-84539734Y61678667D01*
X-84544052Y61681614D01*
X-84548827Y61684204D01*
X-84553907Y61686389D01*
X-84559394Y61688116D01*
X-84565236Y61689437D01*
X-84571433Y61690250D01*
G37*
G36*
X-84705698Y64540384D02*
G01*
X-84711540Y64540180D01*
X-84717178Y64539520D01*
X-84722614Y64538453D01*
X-84727846Y64536980D01*
X-84732876Y64535050D01*
X-84737651Y64532764D01*
X-84742223Y64530122D01*
X-84746490Y64527023D01*
X-84750503Y64523620D01*
X-84754262Y64519810D01*
X-84757666Y64515644D01*
X-84760816Y64511123D01*
X-84763610Y64506297D01*
X-84766099Y64501115D01*
X-84768232Y64495578D01*
X-84770010Y64489787D01*
X-84771433Y64483640D01*
X-84772449Y64477188D01*
X-84773058Y64470432D01*
X-84773262Y64463422D01*
X-84773058Y64456310D01*
X-84772449Y64449553D01*
X-84771484Y64443051D01*
X-84770112Y64436904D01*
X-84768385Y64431011D01*
X-84766302Y64425525D01*
X-84763864Y64420343D01*
X-84761120Y64415466D01*
X-84758072Y64410996D01*
X-84754669Y64406830D01*
X-84751011Y64403071D01*
X-84747100Y64399668D01*
X-84742883Y64396620D01*
X-84738413Y64393978D01*
X-84733739Y64391692D01*
X-84728761Y64389812D01*
X-84723630Y64388390D01*
X-84718245Y64387323D01*
X-84712708Y64386663D01*
X-84706968Y64386460D01*
X-84699703Y64386764D01*
X-84692845Y64387729D01*
X-84686343Y64389254D01*
X-84680348Y64391235D01*
X-84674811Y64393724D01*
X-84669782Y64396620D01*
X-84665362Y64399922D01*
X-84661502Y64403478D01*
X-84661502Y64465200D01*
X-84709508Y64465200D01*
X-84709508Y64451229D01*
X-84676996Y64451229D01*
X-84676996Y64410590D01*
X-84682431Y64406678D01*
X-84689289Y64403681D01*
X-84697163Y64401852D01*
X-84705444Y64401192D01*
X-84711336Y64401496D01*
X-84716874Y64402309D01*
X-84722106Y64403681D01*
X-84726932Y64405560D01*
X-84731453Y64407948D01*
X-84735619Y64410844D01*
X-84739378Y64414196D01*
X-84742832Y64418057D01*
X-84745830Y64422324D01*
X-84748522Y64427049D01*
X-84750757Y64432179D01*
X-84752637Y64437717D01*
X-84754110Y64443660D01*
X-84755126Y64449960D01*
X-84755786Y64456665D01*
X-84755990Y64463676D01*
X-84755736Y64470686D01*
X-84755075Y64477341D01*
X-84753958Y64483640D01*
X-84752434Y64489533D01*
X-84750452Y64495070D01*
X-84748116Y64500150D01*
X-84745372Y64504824D01*
X-84742223Y64509040D01*
X-84738768Y64512850D01*
X-84734958Y64516152D01*
X-84730793Y64518997D01*
X-84726322Y64521384D01*
X-84721496Y64523213D01*
X-84716416Y64524585D01*
X-84711082Y64525398D01*
X-84705444Y64525652D01*
X-84694826Y64524534D01*
X-84686038Y64521486D01*
X-84678723Y64516965D01*
X-84672678Y64511428D01*
X-84663280Y64522350D01*
X-84666734Y64525601D01*
X-84670646Y64528801D01*
X-84675065Y64531849D01*
X-84679993Y64534592D01*
X-84685530Y64536980D01*
X-84691626Y64538758D01*
X-84698332Y64539977D01*
G37*
G36*
X-84625434Y64537844D02*
G01*
X-84625434Y64389000D01*
X-84609686Y64389000D01*
X-84609736Y64476325D01*
X-84610397Y64493444D01*
X-84611718Y64515746D01*
X-84610702Y64515746D01*
X-84594446Y64485266D01*
X-84538566Y64389000D01*
X-84521040Y64389000D01*
X-84521040Y64537844D01*
X-84537042Y64537844D01*
X-84536991Y64451585D01*
X-84535924Y64428116D01*
X-84534756Y64410844D01*
X-84535772Y64410844D01*
X-84552028Y64441324D01*
X-84608162Y64537844D01*
G37*
G36*
X-84479638Y64537844D02*
G01*
X-84479638Y64523874D01*
X-84444332Y64523874D01*
X-84437778Y64523620D01*
X-84431682Y64522857D01*
X-84425993Y64521588D01*
X-84420760Y64519860D01*
X-84415934Y64517625D01*
X-84411515Y64514933D01*
X-84407552Y64511783D01*
X-84403996Y64508176D01*
X-84400898Y64504112D01*
X-84398205Y64499642D01*
X-84395919Y64494714D01*
X-84394040Y64489380D01*
X-84392617Y64483589D01*
X-84391550Y64477442D01*
X-84390941Y64470889D01*
X-84390738Y64463929D01*
X-84390941Y64457021D01*
X-84391550Y64450417D01*
X-84392617Y64444219D01*
X-84394040Y64438377D01*
X-84395919Y64432942D01*
X-84398205Y64427912D01*
X-84400898Y64423290D01*
X-84403996Y64419124D01*
X-84407552Y64415365D01*
X-84411515Y64412114D01*
X-84415934Y64409269D01*
X-84420760Y64406983D01*
X-84425993Y64405103D01*
X-84431682Y64403782D01*
X-84437778Y64402970D01*
X-84444332Y64402716D01*
X-84462620Y64402716D01*
X-84462620Y64523874D01*
X-84479638Y64523874D01*
X-84479638Y64389000D01*
X-84442300Y64389000D01*
X-84435696Y64389203D01*
X-84429447Y64389812D01*
X-84423504Y64390879D01*
X-84417865Y64392302D01*
X-84412582Y64394130D01*
X-84407603Y64396366D01*
X-84402980Y64398956D01*
X-84398662Y64401903D01*
X-84394649Y64405255D01*
X-84391042Y64408964D01*
X-84387740Y64412977D01*
X-84384743Y64417346D01*
X-84382102Y64422070D01*
X-84379816Y64427150D01*
X-84377885Y64432484D01*
X-84376310Y64438174D01*
X-84375091Y64444168D01*
X-84374177Y64450468D01*
X-84373669Y64457072D01*
X-84373466Y64463929D01*
X-84373669Y64470788D01*
X-84374177Y64477341D01*
X-84375091Y64483640D01*
X-84376310Y64489584D01*
X-84377885Y64495172D01*
X-84379866Y64500505D01*
X-84382152Y64505484D01*
X-84384794Y64510157D01*
X-84387791Y64514425D01*
X-84391093Y64518438D01*
X-84394802Y64522045D01*
X-84398815Y64525296D01*
X-84403184Y64528192D01*
X-84407857Y64530731D01*
X-84412886Y64532865D01*
X-84418271Y64534643D01*
X-84423961Y64536015D01*
X-84430006Y64537031D01*
X-84436356Y64537640D01*
X-84443062Y64537844D01*
G37*
G36*
X-84569554Y64794384D02*
G01*
X-84575091Y64794180D01*
X-84580526Y64793520D01*
X-84585759Y64792453D01*
X-84590788Y64790980D01*
X-84595614Y64789050D01*
X-84600237Y64786764D01*
X-84604606Y64784122D01*
X-84608771Y64781023D01*
X-84612683Y64777620D01*
X-84616290Y64773810D01*
X-84619642Y64769644D01*
X-84622690Y64765123D01*
X-84625434Y64760297D01*
X-84627821Y64755115D01*
X-84629904Y64749578D01*
X-84631631Y64743787D01*
X-84633003Y64737640D01*
X-84634019Y64731188D01*
X-84634628Y64724432D01*
X-84634832Y64717422D01*
X-84634628Y64710310D01*
X-84634019Y64703553D01*
X-84633054Y64697051D01*
X-84631733Y64690904D01*
X-84630006Y64685011D01*
X-84627974Y64679525D01*
X-84625586Y64674343D01*
X-84622894Y64669466D01*
X-84619896Y64664996D01*
X-84616645Y64660830D01*
X-84613089Y64657071D01*
X-84609279Y64653668D01*
X-84605215Y64650620D01*
X-84600897Y64647978D01*
X-84596376Y64645692D01*
X-84591601Y64643812D01*
X-84586673Y64642390D01*
X-84581542Y64641323D01*
X-84576259Y64640663D01*
X-84570824Y64640460D01*
X-84563813Y64640815D01*
X-84557209Y64641882D01*
X-84551062Y64643609D01*
X-84545271Y64645997D01*
X-84539836Y64648994D01*
X-84534806Y64652652D01*
X-84530031Y64656919D01*
X-84525612Y64661796D01*
X-84534756Y64672210D01*
X-84538515Y64668349D01*
X-84542426Y64664945D01*
X-84546440Y64662050D01*
X-84550707Y64659611D01*
X-84555126Y64657681D01*
X-84559851Y64656309D01*
X-84564778Y64655496D01*
X-84570062Y64655192D01*
X-84575396Y64655496D01*
X-84580476Y64656309D01*
X-84585302Y64657681D01*
X-84589823Y64659560D01*
X-84594039Y64661948D01*
X-84597951Y64664844D01*
X-84601507Y64668196D01*
X-84604758Y64672057D01*
X-84607654Y64676324D01*
X-84610244Y64681049D01*
X-84612429Y64686179D01*
X-84614258Y64691717D01*
X-84615680Y64697660D01*
X-84616696Y64703960D01*
X-84617356Y64710665D01*
X-84617560Y64717676D01*
X-84617356Y64724686D01*
X-84616696Y64731341D01*
X-84615629Y64737640D01*
X-84614105Y64743533D01*
X-84612226Y64749070D01*
X-84609990Y64754150D01*
X-84607349Y64758824D01*
X-84604402Y64763040D01*
X-84601050Y64766850D01*
X-84597392Y64770152D01*
X-84593430Y64772997D01*
X-84589162Y64775384D01*
X-84584590Y64777213D01*
X-84579764Y64778585D01*
X-84574634Y64779398D01*
X-84569300Y64779652D01*
X-84560105Y64778585D01*
X-84551926Y64775689D01*
X-84544763Y64771168D01*
X-84538566Y64765428D01*
X-84529168Y64776350D01*
X-84532622Y64779804D01*
X-84536584Y64783157D01*
X-84541004Y64786205D01*
X-84545830Y64788897D01*
X-84551113Y64791132D01*
X-84556854Y64792910D01*
X-84563000Y64793977D01*
G37*
G36*
X-84446872Y64794384D02*
G01*
X-84452409Y64794180D01*
X-84457844Y64793520D01*
X-84463077Y64792453D01*
X-84468106Y64790980D01*
X-84472932Y64789050D01*
X-84477555Y64786764D01*
X-84481924Y64784122D01*
X-84486089Y64781023D01*
X-84490001Y64777620D01*
X-84493608Y64773810D01*
X-84496960Y64769644D01*
X-84500008Y64765123D01*
X-84502752Y64760297D01*
X-84505139Y64755115D01*
X-84507222Y64749578D01*
X-84508949Y64743787D01*
X-84510321Y64737640D01*
X-84511337Y64731188D01*
X-84511946Y64724432D01*
X-84512150Y64717422D01*
X-84511946Y64710310D01*
X-84511337Y64703553D01*
X-84510372Y64697051D01*
X-84509051Y64690904D01*
X-84507324Y64685011D01*
X-84505292Y64679525D01*
X-84502904Y64674343D01*
X-84500212Y64669466D01*
X-84497214Y64664996D01*
X-84493963Y64660830D01*
X-84490407Y64657071D01*
X-84486597Y64653668D01*
X-84482533Y64650620D01*
X-84478215Y64647978D01*
X-84473694Y64645692D01*
X-84468919Y64643812D01*
X-84463991Y64642390D01*
X-84458860Y64641323D01*
X-84453577Y64640663D01*
X-84448142Y64640460D01*
X-84441131Y64640815D01*
X-84434527Y64641882D01*
X-84428330Y64643609D01*
X-84422538Y64645997D01*
X-84417103Y64648994D01*
X-84411972Y64652652D01*
X-84407197Y64656919D01*
X-84402676Y64661796D01*
X-84412074Y64672210D01*
X-84415833Y64668349D01*
X-84419744Y64664945D01*
X-84423758Y64662050D01*
X-84428025Y64659611D01*
X-84432444Y64657681D01*
X-84437169Y64656309D01*
X-84442096Y64655496D01*
X-84447380Y64655192D01*
X-84452714Y64655496D01*
X-84457794Y64656309D01*
X-84462620Y64657681D01*
X-84467141Y64659560D01*
X-84471357Y64661948D01*
X-84475269Y64664844D01*
X-84478825Y64668196D01*
X-84482076Y64672057D01*
X-84484972Y64676324D01*
X-84487562Y64681049D01*
X-84489747Y64686179D01*
X-84491576Y64691717D01*
X-84492998Y64697660D01*
X-84494014Y64703960D01*
X-84494674Y64710665D01*
X-84494878Y64717676D01*
X-84494674Y64724686D01*
X-84494014Y64731341D01*
X-84492947Y64737640D01*
X-84491423Y64743533D01*
X-84489544Y64749070D01*
X-84487308Y64754150D01*
X-84484667Y64758824D01*
X-84481720Y64763040D01*
X-84478368Y64766850D01*
X-84474710Y64770152D01*
X-84470748Y64772997D01*
X-84466480Y64775384D01*
X-84461908Y64777213D01*
X-84457082Y64778585D01*
X-84451952Y64779398D01*
X-84446618Y64779652D01*
X-84437423Y64778585D01*
X-84429244Y64775689D01*
X-84422081Y64771168D01*
X-84415884Y64765428D01*
X-84406486Y64776350D01*
X-84409889Y64779804D01*
X-84413801Y64783157D01*
X-84418170Y64786205D01*
X-84423046Y64788897D01*
X-84428380Y64791132D01*
X-84434121Y64792910D01*
X-84440318Y64793977D01*
G37*
G36*
X-84759292Y64791844D02*
G01*
X-84711540Y64643000D01*
X-84692236Y64643000D01*
X-84644738Y64791844D01*
X-84661756Y64791844D01*
X-84699297Y64666926D01*
X-84701380Y64660526D01*
X-84702142Y64660526D01*
X-84709558Y64685011D01*
X-84716620Y64709548D01*
X-84741766Y64791844D01*
G37*
G36*
X-84696808Y65048384D02*
G01*
X-84703259Y65048028D01*
X-84709406Y65047063D01*
X-84715146Y65045488D01*
X-84720480Y65043354D01*
X-84725357Y65040611D01*
X-84729675Y65037411D01*
X-84733536Y65033753D01*
X-84736736Y65029638D01*
X-84739327Y65025117D01*
X-84741207Y65020240D01*
X-84742375Y65015059D01*
X-84742782Y65009522D01*
X-84742070Y65001952D01*
X-84739988Y64995348D01*
X-84736838Y64989659D01*
X-84732825Y64984782D01*
X-84728151Y64980616D01*
X-84723071Y64977111D01*
X-84717788Y64974165D01*
X-84712556Y64971676D01*
X-84685784Y64959941D01*
X-84681009Y64957553D01*
X-84676691Y64955013D01*
X-84672932Y64952168D01*
X-84669833Y64948866D01*
X-84667547Y64945005D01*
X-84666074Y64940383D01*
X-84665566Y64934846D01*
X-84666124Y64929359D01*
X-84667852Y64924431D01*
X-84670595Y64920012D01*
X-84674303Y64916304D01*
X-84679028Y64913306D01*
X-84684616Y64911071D01*
X-84691067Y64909649D01*
X-84698332Y64909192D01*
X-84704174Y64909547D01*
X-84709965Y64910512D01*
X-84715553Y64912138D01*
X-84720988Y64914322D01*
X-84726170Y64917015D01*
X-84731098Y64920215D01*
X-84735720Y64923924D01*
X-84739988Y64927988D01*
X-84750148Y64916557D01*
X-84745068Y64911681D01*
X-84739581Y64907312D01*
X-84733688Y64903553D01*
X-84727389Y64900352D01*
X-84720684Y64897812D01*
X-84713622Y64895984D01*
X-84706155Y64894866D01*
X-84698332Y64894460D01*
X-84690966Y64894815D01*
X-84684057Y64895933D01*
X-84677707Y64897660D01*
X-84671865Y64900048D01*
X-84666632Y64903045D01*
X-84662010Y64906550D01*
X-84657996Y64910512D01*
X-84654694Y64914932D01*
X-84652053Y64919758D01*
X-84650122Y64924940D01*
X-84648954Y64930375D01*
X-84648548Y64936116D01*
X-84649157Y64943837D01*
X-84650935Y64950594D01*
X-84653780Y64956436D01*
X-84657539Y64961465D01*
X-84662060Y64965783D01*
X-84667293Y64969542D01*
X-84673084Y64972844D01*
X-84679282Y64975740D01*
X-84705240Y64986814D01*
X-84713775Y64991284D01*
X-84717585Y64994028D01*
X-84720887Y64997228D01*
X-84723478Y65001038D01*
X-84725154Y65005508D01*
X-84725764Y65010792D01*
X-84725205Y65015770D01*
X-84723681Y65020240D01*
X-84721141Y65024152D01*
X-84717788Y65027454D01*
X-84713572Y65030096D01*
X-84708593Y65032026D01*
X-84703005Y65033245D01*
X-84696808Y65033652D01*
X-84691626Y65033398D01*
X-84686749Y65032636D01*
X-84682126Y65031416D01*
X-84677758Y65029791D01*
X-84673643Y65027708D01*
X-84669731Y65025270D01*
X-84666023Y65022526D01*
X-84662518Y65019428D01*
X-84653628Y65030096D01*
X-84657692Y65033956D01*
X-84662162Y65037462D01*
X-84667090Y65040560D01*
X-84672373Y65043253D01*
X-84678012Y65045386D01*
X-84684006Y65047012D01*
X-84690254Y65048028D01*
G37*
G36*
X-84618830Y65045844D02*
G01*
X-84618830Y65031874D01*
X-84583524Y65031874D01*
X-84576970Y65031620D01*
X-84570874Y65030857D01*
X-84565185Y65029588D01*
X-84559952Y65027860D01*
X-84555126Y65025625D01*
X-84550707Y65022933D01*
X-84546744Y65019783D01*
X-84543188Y65016176D01*
X-84540090Y65012112D01*
X-84537397Y65007642D01*
X-84535111Y65002714D01*
X-84533232Y64997380D01*
X-84531809Y64991589D01*
X-84530742Y64985442D01*
X-84530133Y64978889D01*
X-84529930Y64971929D01*
X-84530133Y64965021D01*
X-84530742Y64958417D01*
X-84531809Y64952219D01*
X-84533232Y64946377D01*
X-84535111Y64940942D01*
X-84537397Y64935912D01*
X-84540090Y64931290D01*
X-84543188Y64927124D01*
X-84546744Y64923365D01*
X-84550707Y64920114D01*
X-84555126Y64917269D01*
X-84559952Y64914983D01*
X-84565185Y64913103D01*
X-84570874Y64911782D01*
X-84576970Y64910970D01*
X-84583524Y64910716D01*
X-84601812Y64910716D01*
X-84601812Y65031874D01*
X-84618830Y65031874D01*
X-84618830Y64897000D01*
X-84581492Y64897000D01*
X-84574888Y64897203D01*
X-84568639Y64897812D01*
X-84562696Y64898879D01*
X-84557057Y64900302D01*
X-84551774Y64902130D01*
X-84546795Y64904366D01*
X-84542172Y64906956D01*
X-84537854Y64909903D01*
X-84533841Y64913255D01*
X-84530234Y64916964D01*
X-84526932Y64920977D01*
X-84523935Y64925346D01*
X-84521294Y64930070D01*
X-84519008Y64935150D01*
X-84517077Y64940484D01*
X-84515502Y64946174D01*
X-84514283Y64952168D01*
X-84513369Y64958468D01*
X-84512861Y64965072D01*
X-84512658Y64971929D01*
X-84512861Y64978788D01*
X-84513369Y64985341D01*
X-84514283Y64991640D01*
X-84515502Y64997584D01*
X-84517077Y65003172D01*
X-84519058Y65008505D01*
X-84521344Y65013484D01*
X-84523986Y65018157D01*
X-84526983Y65022425D01*
X-84530285Y65026438D01*
X-84533994Y65030045D01*
X-84538007Y65033296D01*
X-84542376Y65036192D01*
X-84547049Y65038731D01*
X-84552078Y65040865D01*
X-84557463Y65042643D01*
X-84563153Y65044015D01*
X-84569198Y65045031D01*
X-84575548Y65045640D01*
X-84582254Y65045844D01*
G37*
G36*
X-84451190Y65045844D02*
G01*
X-84481444Y64957198D01*
X-84465668Y64957198D01*
X-84449970Y65006169D01*
X-84442554Y65031620D01*
X-84441792Y65031620D01*
X-84430463Y64993824D01*
X-84426298Y64981328D01*
X-84418678Y64957198D01*
X-84481444Y64957198D01*
X-84501990Y64897000D01*
X-84484972Y64897000D01*
X-84469732Y64943990D01*
X-84414360Y64943990D01*
X-84399628Y64897000D01*
X-84381594Y64897000D01*
X-84432648Y65045844D01*
G37*
G36*
X-84696808Y65327784D02*
G01*
X-84703259Y65327428D01*
X-84709406Y65326463D01*
X-84715146Y65324888D01*
X-84720480Y65322754D01*
X-84725357Y65320011D01*
X-84729675Y65316811D01*
X-84733536Y65313153D01*
X-84736736Y65309038D01*
X-84739327Y65304517D01*
X-84741207Y65299640D01*
X-84742375Y65294459D01*
X-84742782Y65288922D01*
X-84742070Y65281352D01*
X-84739988Y65274748D01*
X-84736838Y65269059D01*
X-84732825Y65264182D01*
X-84728151Y65260016D01*
X-84723071Y65256511D01*
X-84717788Y65253565D01*
X-84712556Y65251076D01*
X-84685784Y65239341D01*
X-84681009Y65236953D01*
X-84676691Y65234413D01*
X-84672932Y65231568D01*
X-84669833Y65228266D01*
X-84667547Y65224405D01*
X-84666074Y65219783D01*
X-84665566Y65214246D01*
X-84666124Y65208759D01*
X-84667852Y65203831D01*
X-84670595Y65199412D01*
X-84674303Y65195704D01*
X-84679028Y65192706D01*
X-84684616Y65190471D01*
X-84691067Y65189049D01*
X-84698332Y65188592D01*
X-84704174Y65188947D01*
X-84709965Y65189912D01*
X-84715553Y65191538D01*
X-84720988Y65193722D01*
X-84726170Y65196415D01*
X-84731098Y65199615D01*
X-84735720Y65203324D01*
X-84739988Y65207388D01*
X-84750148Y65195957D01*
X-84745068Y65191081D01*
X-84739581Y65186712D01*
X-84733688Y65182953D01*
X-84727389Y65179752D01*
X-84720684Y65177212D01*
X-84713622Y65175384D01*
X-84706155Y65174266D01*
X-84698332Y65173860D01*
X-84690966Y65174215D01*
X-84684057Y65175333D01*
X-84677707Y65177060D01*
X-84671865Y65179448D01*
X-84666632Y65182445D01*
X-84662010Y65185950D01*
X-84657996Y65189912D01*
X-84654694Y65194332D01*
X-84652053Y65199158D01*
X-84650122Y65204340D01*
X-84648954Y65209775D01*
X-84648548Y65215516D01*
X-84649157Y65223237D01*
X-84650935Y65229994D01*
X-84653780Y65235836D01*
X-84657539Y65240865D01*
X-84662060Y65245183D01*
X-84667293Y65248942D01*
X-84673084Y65252244D01*
X-84679282Y65255140D01*
X-84705240Y65266214D01*
X-84713775Y65270684D01*
X-84717585Y65273428D01*
X-84720887Y65276628D01*
X-84723478Y65280438D01*
X-84725154Y65284908D01*
X-84725764Y65290192D01*
X-84725205Y65295170D01*
X-84723681Y65299640D01*
X-84721141Y65303552D01*
X-84717788Y65306854D01*
X-84713572Y65309496D01*
X-84708593Y65311426D01*
X-84703005Y65312645D01*
X-84696808Y65313052D01*
X-84691626Y65312798D01*
X-84686749Y65312036D01*
X-84682126Y65310816D01*
X-84677758Y65309191D01*
X-84673643Y65307108D01*
X-84669731Y65304670D01*
X-84666023Y65301926D01*
X-84662518Y65298828D01*
X-84653628Y65309496D01*
X-84657692Y65313356D01*
X-84662162Y65316862D01*
X-84667090Y65319960D01*
X-84672373Y65322653D01*
X-84678012Y65324786D01*
X-84684006Y65326412D01*
X-84690254Y65327428D01*
G37*
G36*
X-84562188Y65327784D02*
G01*
X-84567725Y65327580D01*
X-84573160Y65326920D01*
X-84578393Y65325853D01*
X-84583422Y65324380D01*
X-84588248Y65322450D01*
X-84592871Y65320164D01*
X-84597240Y65317522D01*
X-84601405Y65314423D01*
X-84605317Y65311020D01*
X-84608924Y65307210D01*
X-84612276Y65303044D01*
X-84615324Y65298523D01*
X-84618068Y65293697D01*
X-84620455Y65288515D01*
X-84622538Y65282978D01*
X-84624265Y65277187D01*
X-84625637Y65271040D01*
X-84626653Y65264588D01*
X-84627262Y65257832D01*
X-84627466Y65250822D01*
X-84627262Y65243710D01*
X-84626653Y65236953D01*
X-84625688Y65230451D01*
X-84624367Y65224304D01*
X-84622640Y65218411D01*
X-84620608Y65212925D01*
X-84618220Y65207743D01*
X-84615528Y65202866D01*
X-84612530Y65198396D01*
X-84609279Y65194230D01*
X-84605723Y65190471D01*
X-84601913Y65187068D01*
X-84597849Y65184020D01*
X-84593531Y65181378D01*
X-84589010Y65179092D01*
X-84584235Y65177212D01*
X-84579307Y65175790D01*
X-84574176Y65174723D01*
X-84568893Y65174063D01*
X-84563458Y65173860D01*
X-84556447Y65174215D01*
X-84549843Y65175282D01*
X-84543696Y65177009D01*
X-84537905Y65179397D01*
X-84532470Y65182394D01*
X-84527440Y65186052D01*
X-84522665Y65190319D01*
X-84518246Y65195196D01*
X-84527644Y65205610D01*
X-84531352Y65201749D01*
X-84535162Y65198345D01*
X-84539175Y65195450D01*
X-84543341Y65193011D01*
X-84547811Y65191081D01*
X-84552485Y65189709D01*
X-84557412Y65188896D01*
X-84562696Y65188592D01*
X-84568030Y65188896D01*
X-84573110Y65189709D01*
X-84577936Y65191081D01*
X-84582457Y65192960D01*
X-84586673Y65195348D01*
X-84590585Y65198244D01*
X-84594141Y65201596D01*
X-84597392Y65205457D01*
X-84600288Y65209724D01*
X-84602878Y65214449D01*
X-84605063Y65219579D01*
X-84606892Y65225117D01*
X-84608314Y65231060D01*
X-84609330Y65237360D01*
X-84609990Y65244065D01*
X-84610194Y65251076D01*
X-84609990Y65258086D01*
X-84609330Y65264741D01*
X-84608263Y65271040D01*
X-84606739Y65276933D01*
X-84604910Y65282470D01*
X-84602624Y65287550D01*
X-84600034Y65292224D01*
X-84597036Y65296440D01*
X-84593734Y65300250D01*
X-84590077Y65303552D01*
X-84586165Y65306397D01*
X-84581898Y65308784D01*
X-84577377Y65310613D01*
X-84572551Y65311985D01*
X-84567522Y65312798D01*
X-84562188Y65313052D01*
X-84552840Y65311985D01*
X-84544611Y65309089D01*
X-84537397Y65304568D01*
X-84531200Y65298828D01*
X-84521802Y65309750D01*
X-84525256Y65313204D01*
X-84529218Y65316557D01*
X-84533638Y65319605D01*
X-84538464Y65322297D01*
X-84543747Y65324532D01*
X-84549488Y65326310D01*
X-84555634Y65327377D01*
G37*
G36*
X-84490052Y65325244D02*
G01*
X-84490052Y65176400D01*
X-84407248Y65176400D01*
X-84407248Y65190624D01*
X-84473034Y65190624D01*
X-84473034Y65325244D01*
G37*
G36*
X-83794600Y65841372D02*
G01*
X-83794600Y65824607D01*
X-83659726Y65824607D01*
X-83659726Y65806320D01*
X-83659980Y65799766D01*
X-83660742Y65793670D01*
X-83662012Y65787981D01*
X-83663739Y65782748D01*
X-83665974Y65777922D01*
X-83668666Y65773503D01*
X-83671816Y65769540D01*
X-83675423Y65765984D01*
X-83679487Y65762886D01*
X-83683957Y65760193D01*
X-83688885Y65757907D01*
X-83694219Y65756028D01*
X-83700010Y65754605D01*
X-83706157Y65753538D01*
X-83712710Y65752929D01*
X-83719670Y65752726D01*
X-83726578Y65752929D01*
X-83733182Y65753538D01*
X-83739380Y65754605D01*
X-83745222Y65756028D01*
X-83750658Y65757907D01*
X-83755687Y65760193D01*
X-83760310Y65762886D01*
X-83764475Y65765984D01*
X-83768234Y65769540D01*
X-83771486Y65773503D01*
X-83774330Y65777922D01*
X-83776616Y65782748D01*
X-83778496Y65787981D01*
X-83779817Y65793670D01*
X-83780630Y65799766D01*
X-83780884Y65806320D01*
X-83780884Y65824607D01*
X-83794600Y65824607D01*
X-83794600Y65804288D01*
X-83794396Y65797684D01*
X-83793787Y65791384D01*
X-83792720Y65785390D01*
X-83791298Y65779751D01*
X-83789469Y65774468D01*
X-83787234Y65769490D01*
X-83784643Y65764816D01*
X-83781696Y65760549D01*
X-83778344Y65756536D01*
X-83774635Y65752929D01*
X-83770622Y65749627D01*
X-83766253Y65746680D01*
X-83761529Y65744039D01*
X-83756449Y65741753D01*
X-83751115Y65739873D01*
X-83745425Y65738248D01*
X-83739431Y65737028D01*
X-83733132Y65736165D01*
X-83726528Y65735606D01*
X-83719670Y65735454D01*
X-83712812Y65735606D01*
X-83706258Y65736165D01*
X-83699959Y65737028D01*
X-83694016Y65738298D01*
X-83688428Y65739873D01*
X-83683094Y65741804D01*
X-83678115Y65744090D01*
X-83673442Y65746680D01*
X-83669174Y65749678D01*
X-83665161Y65752979D01*
X-83661554Y65756637D01*
X-83658303Y65760650D01*
X-83655408Y65764968D01*
X-83652868Y65769642D01*
X-83650734Y65774671D01*
X-83648956Y65780005D01*
X-83647584Y65785695D01*
X-83646568Y65791740D01*
X-83645959Y65798090D01*
X-83645756Y65804796D01*
X-83645756Y65841372D01*
G37*
G36*
X-83649820Y65707260D02*
G01*
X-83654595Y65706447D01*
X-83658202Y65704110D01*
X-83660488Y65700503D01*
X-83661250Y65695829D01*
X-83660488Y65691257D01*
X-83658202Y65687651D01*
X-83654595Y65685263D01*
X-83649820Y65684400D01*
X-83645197Y65685263D01*
X-83641641Y65687651D01*
X-83639406Y65691257D01*
X-83638644Y65695829D01*
X-83639406Y65700503D01*
X-83641641Y65704110D01*
X-83645197Y65706447D01*
G37*
G36*
X-83794600Y65704212D02*
G01*
X-83794600Y65687702D01*
X-83684872Y65687702D01*
X-83684872Y65704212D01*
G37*
G36*
X-83782154Y65662302D02*
G01*
X-83785252Y65658187D01*
X-83788148Y65653716D01*
X-83790688Y65648941D01*
X-83792872Y65643861D01*
X-83794650Y65638527D01*
X-83796022Y65632990D01*
X-83796835Y65627250D01*
X-83797140Y65621407D01*
X-83796479Y65612416D01*
X-83794600Y65604593D01*
X-83791653Y65597887D01*
X-83787691Y65592350D01*
X-83782966Y65587981D01*
X-83777531Y65584831D01*
X-83771536Y65582952D01*
X-83765136Y65582292D01*
X-83757973Y65583104D01*
X-83751978Y65585340D01*
X-83747051Y65588743D01*
X-83742936Y65593163D01*
X-83739532Y65598344D01*
X-83736586Y65604034D01*
X-83731608Y65616074D01*
X-83728153Y65625218D01*
X-83724191Y65632888D01*
X-83718958Y65638222D01*
X-83711796Y65640204D01*
X-83705446Y65638883D01*
X-83700213Y65634971D01*
X-83696606Y65628316D01*
X-83695286Y65618868D01*
X-83696048Y65611705D01*
X-83698130Y65605202D01*
X-83701178Y65599208D01*
X-83704938Y65593468D01*
X-83694270Y65585340D01*
X-83689494Y65592248D01*
X-83685583Y65600275D01*
X-83683043Y65609216D01*
X-83682078Y65618868D01*
X-83682687Y65627250D01*
X-83684465Y65634666D01*
X-83687259Y65641067D01*
X-83690968Y65646401D01*
X-83695489Y65650618D01*
X-83700721Y65653716D01*
X-83706512Y65655545D01*
X-83712812Y65656205D01*
X-83719263Y65655444D01*
X-83724750Y65653310D01*
X-83729474Y65650008D01*
X-83733436Y65645741D01*
X-83736789Y65640813D01*
X-83739634Y65635327D01*
X-83742123Y65629536D01*
X-83747965Y65614448D01*
X-83750048Y65610130D01*
X-83752436Y65606218D01*
X-83755128Y65602866D01*
X-83758227Y65600275D01*
X-83761783Y65598649D01*
X-83765898Y65598040D01*
X-83773060Y65599462D01*
X-83778852Y65603780D01*
X-83782763Y65610892D01*
X-83784186Y65620900D01*
X-83783220Y65630501D01*
X-83780528Y65638934D01*
X-83776362Y65646604D01*
X-83770978Y65653920D01*
G37*
G36*
X-83841844Y65555368D02*
G01*
X-83841844Y65538857D01*
X-83803744Y65538857D01*
X-83784440Y65539366D01*
X-83789875Y65531542D01*
X-83793838Y65523770D01*
X-83796276Y65516048D01*
X-83796854Y65510918D01*
X-83783170Y65510918D01*
X-83782560Y65516912D01*
X-83780528Y65523770D01*
X-83776870Y65531136D01*
X-83771232Y65538857D01*
X-83711796Y65538857D01*
X-83705039Y65530679D01*
X-83700112Y65522906D01*
X-83697064Y65515439D01*
X-83696048Y65508124D01*
X-83696403Y65502942D01*
X-83697419Y65498268D01*
X-83699146Y65494154D01*
X-83701432Y65490496D01*
X-83704328Y65487346D01*
X-83707782Y65484705D01*
X-83711745Y65482470D01*
X-83716215Y65480692D01*
X-83721143Y65479320D01*
X-83726426Y65478405D01*
X-83732166Y65477847D01*
X-83738212Y65477644D01*
X-83744917Y65477948D01*
X-83751166Y65478761D01*
X-83756906Y65480184D01*
X-83762189Y65482012D01*
X-83766914Y65484349D01*
X-83771079Y65487143D01*
X-83774686Y65490293D01*
X-83777683Y65493849D01*
X-83780020Y65497659D01*
X-83781747Y65501824D01*
X-83782814Y65506244D01*
X-83783170Y65510918D01*
X-83796854Y65510918D01*
X-83797140Y65508378D01*
X-83796886Y65503653D01*
X-83796124Y65499030D01*
X-83794904Y65494509D01*
X-83793177Y65490140D01*
X-83790993Y65485975D01*
X-83788351Y65482012D01*
X-83785202Y65478304D01*
X-83781646Y65474850D01*
X-83777632Y65471700D01*
X-83773213Y65468855D01*
X-83768336Y65466366D01*
X-83763053Y65464283D01*
X-83757363Y65462607D01*
X-83751318Y65461388D01*
X-83744816Y65460626D01*
X-83737958Y65460372D01*
X-83731760Y65460575D01*
X-83725867Y65461083D01*
X-83720279Y65461946D01*
X-83714996Y65463216D01*
X-83710018Y65464791D01*
X-83705446Y65466722D01*
X-83701178Y65468957D01*
X-83697368Y65471598D01*
X-83693914Y65474545D01*
X-83690866Y65477796D01*
X-83688224Y65481403D01*
X-83686040Y65485314D01*
X-83684364Y65489581D01*
X-83683094Y65494204D01*
X-83682332Y65499081D01*
X-83682078Y65504314D01*
X-83682433Y65509140D01*
X-83683348Y65513864D01*
X-83684821Y65518487D01*
X-83686751Y65523008D01*
X-83689088Y65527377D01*
X-83691730Y65531644D01*
X-83697572Y65539620D01*
X-83697572Y65540381D01*
X-83684872Y65541905D01*
X-83684872Y65555368D01*
G37*
G36*
X-83774534Y65430400D02*
G01*
X-83784186Y65429384D01*
X-83791247Y65426183D01*
X-83795666Y65420646D01*
X-83797140Y65412620D01*
X-83796784Y65406778D01*
X-83795870Y65402460D01*
X-83782916Y65405000D01*
X-83783373Y65407286D01*
X-83783424Y65408810D01*
X-83782966Y65410791D01*
X-83781595Y65412416D01*
X-83779258Y65413483D01*
X-83775804Y65413890D01*
X-83632802Y65413890D01*
X-83632802Y65430400D01*
G37*
G36*
X-83766406Y65380870D02*
G01*
X-83773416Y65380209D01*
X-83779563Y65378380D01*
X-83784846Y65375485D01*
X-83789215Y65371624D01*
X-83792618Y65366900D01*
X-83795108Y65361464D01*
X-83796632Y65355419D01*
X-83797140Y65348866D01*
X-83796880Y65344548D01*
X-83783932Y65344548D01*
X-83782916Y65352422D01*
X-83779614Y65358924D01*
X-83773873Y65363242D01*
X-83765390Y65364868D01*
X-83761783Y65364563D01*
X-83758379Y65363699D01*
X-83755179Y65362175D01*
X-83752232Y65359991D01*
X-83749489Y65357095D01*
X-83747000Y65353387D01*
X-83744714Y65348916D01*
X-83742631Y65343582D01*
X-83740802Y65337334D01*
X-83739126Y65330171D01*
X-83737653Y65321992D01*
X-83736434Y65312798D01*
X-83768692Y65312798D01*
X-83775245Y65320926D01*
X-83780020Y65328698D01*
X-83782966Y65336420D01*
X-83783932Y65344548D01*
X-83796880Y65344548D01*
X-83795870Y65338807D01*
X-83794396Y65333930D01*
X-83792466Y65329206D01*
X-83790129Y65324634D01*
X-83787386Y65320265D01*
X-83784389Y65316049D01*
X-83781138Y65312036D01*
X-83781138Y65311274D01*
X-83794600Y65310004D01*
X-83794600Y65296288D01*
X-83726528Y65296288D01*
X-83720127Y65296491D01*
X-83714082Y65297202D01*
X-83708443Y65298370D01*
X-83703261Y65300047D01*
X-83698588Y65302231D01*
X-83694422Y65304924D01*
X-83690764Y65308175D01*
X-83687716Y65312036D01*
X-83685329Y65316455D01*
X-83683551Y65321434D01*
X-83682433Y65327072D01*
X-83682078Y65333372D01*
X-83682433Y65339925D01*
X-83683449Y65346224D01*
X-83684973Y65352218D01*
X-83686954Y65357857D01*
X-83689190Y65363090D01*
X-83691628Y65367916D01*
X-83696556Y65376044D01*
X-83707986Y65369440D01*
X-83703617Y65362581D01*
X-83699705Y65354606D01*
X-83696860Y65345767D01*
X-83695794Y65336166D01*
X-83696454Y65329663D01*
X-83698334Y65324431D01*
X-83701229Y65320316D01*
X-83704988Y65317268D01*
X-83709459Y65315033D01*
X-83714437Y65313661D01*
X-83719771Y65312950D01*
X-83725258Y65312798D01*
X-83727544Y65329206D01*
X-83728966Y65336521D01*
X-83730541Y65343278D01*
X-83732319Y65349424D01*
X-83734249Y65354962D01*
X-83736434Y65359991D01*
X-83738770Y65364461D01*
X-83741361Y65368373D01*
X-83744206Y65371726D01*
X-83747254Y65374570D01*
X-83750556Y65376856D01*
X-83754112Y65378634D01*
X-83757922Y65379854D01*
X-83762037Y65380616D01*
G37*
G36*
X-83684872Y65276729D02*
G01*
X-83795108Y65232534D01*
X-83803744Y65234820D01*
X-83808874Y65236852D01*
X-83813650Y65239239D01*
X-83817866Y65241881D01*
X-83821524Y65244878D01*
X-83824521Y65248231D01*
X-83826756Y65251939D01*
X-83828128Y65256003D01*
X-83828636Y65260474D01*
X-83828483Y65262810D01*
X-83826858Y65269110D01*
X-83840320Y65272412D01*
X-83841336Y65269770D01*
X-83842047Y65266773D01*
X-83842453Y65263471D01*
X-83842606Y65259966D01*
X-83842250Y65254835D01*
X-83841234Y65250110D01*
X-83839608Y65245742D01*
X-83837424Y65241728D01*
X-83834681Y65238020D01*
X-83831480Y65234667D01*
X-83827874Y65231568D01*
X-83823810Y65228774D01*
X-83819441Y65226234D01*
X-83814818Y65223898D01*
X-83809890Y65221764D01*
X-83684872Y65177924D01*
X-83684872Y65194179D01*
X-83755128Y65217090D01*
X-83778598Y65224152D01*
X-83778598Y65225168D01*
X-83747610Y65236090D01*
X-83684872Y65259457D01*
G37*
G36*
X-83794600Y65109344D02*
G01*
X-83794600Y65092579D01*
X-83645756Y65092579D01*
X-83645756Y65109344D01*
G37*
G36*
X-83665060Y65063624D02*
G01*
X-83674204Y65053972D01*
X-83670597Y65050619D01*
X-83667295Y65047114D01*
X-83664298Y65043405D01*
X-83661707Y65039544D01*
X-83659624Y65035480D01*
X-83657998Y65031213D01*
X-83657033Y65026794D01*
X-83656678Y65022222D01*
X-83657287Y65015465D01*
X-83659014Y65009674D01*
X-83661758Y65004797D01*
X-83665466Y65000886D01*
X-83669987Y64997838D01*
X-83675220Y64995704D01*
X-83681062Y64994434D01*
X-83687412Y64994028D01*
X-83691272Y64994180D01*
X-83699299Y64995450D01*
X-83707630Y64998041D01*
X-83716317Y65002003D01*
X-83720838Y65004492D01*
X-83730134Y65010487D01*
X-83739939Y65017954D01*
X-83750251Y65026844D01*
X-83761122Y65037258D01*
X-83772603Y65049146D01*
X-83784694Y65062607D01*
X-83794600Y65062607D01*
X-83794600Y64970660D01*
X-83780376Y64970660D01*
X-83780477Y65019123D01*
X-83781646Y65037716D01*
X-83771486Y65027149D01*
X-83761478Y65017446D01*
X-83751724Y65008658D01*
X-83742123Y65000835D01*
X-83732624Y64994028D01*
X-83727950Y64991030D01*
X-83718654Y64985900D01*
X-83709408Y64981988D01*
X-83700264Y64979296D01*
X-83695743Y64978483D01*
X-83691171Y64977924D01*
X-83686650Y64977772D01*
X-83680249Y64978127D01*
X-83674254Y64979092D01*
X-83668717Y64980718D01*
X-83663637Y64982953D01*
X-83659065Y64985798D01*
X-83655001Y64989202D01*
X-83651547Y64993164D01*
X-83648600Y64997634D01*
X-83646264Y65002613D01*
X-83644587Y65008099D01*
X-83643571Y65014043D01*
X-83643216Y65020444D01*
X-83643622Y65027048D01*
X-83644790Y65033245D01*
X-83646619Y65038986D01*
X-83649159Y65044421D01*
X-83652360Y65049552D01*
X-83656068Y65054429D01*
X-83660335Y65059102D01*
G37*
G36*
X-83720178Y64948307D02*
G01*
X-83727290Y64948104D01*
X-83734046Y64947495D01*
X-83740548Y64946529D01*
X-83746695Y64945158D01*
X-83752588Y64943431D01*
X-83758074Y64941399D01*
X-83763256Y64939011D01*
X-83768133Y64936319D01*
X-83772603Y64933322D01*
X-83776769Y64930020D01*
X-83780528Y64926464D01*
X-83783932Y64922654D01*
X-83786980Y64918539D01*
X-83789621Y64914272D01*
X-83791907Y64909750D01*
X-83793787Y64905026D01*
X-83795209Y64900098D01*
X-83796276Y64894968D01*
X-83796936Y64889735D01*
X-83797140Y64884300D01*
X-83796784Y64877289D01*
X-83795717Y64870685D01*
X-83793990Y64864488D01*
X-83791602Y64858696D01*
X-83788605Y64853261D01*
X-83784948Y64848130D01*
X-83780680Y64843355D01*
X-83775804Y64838834D01*
X-83765390Y64848231D01*
X-83769250Y64851940D01*
X-83772654Y64855801D01*
X-83775550Y64859814D01*
X-83777988Y64864030D01*
X-83779918Y64868501D01*
X-83781290Y64873174D01*
X-83782103Y64878102D01*
X-83782408Y64883284D01*
X-83782103Y64888668D01*
X-83781290Y64893799D01*
X-83779918Y64898625D01*
X-83778039Y64903197D01*
X-83775651Y64907414D01*
X-83772756Y64911325D01*
X-83769403Y64914932D01*
X-83765542Y64918234D01*
X-83761275Y64921129D01*
X-83756550Y64923720D01*
X-83751420Y64925905D01*
X-83745882Y64927734D01*
X-83739939Y64929156D01*
X-83733640Y64930172D01*
X-83726934Y64930832D01*
X-83719924Y64931036D01*
X-83712913Y64930832D01*
X-83706258Y64930172D01*
X-83699959Y64929054D01*
X-83694066Y64927581D01*
X-83688529Y64925651D01*
X-83683449Y64923416D01*
X-83678776Y64920774D01*
X-83674559Y64917777D01*
X-83670749Y64914424D01*
X-83667447Y64910766D01*
X-83664602Y64906804D01*
X-83662215Y64902537D01*
X-83660386Y64897965D01*
X-83659014Y64893139D01*
X-83658202Y64888110D01*
X-83657948Y64882776D01*
X-83659014Y64873581D01*
X-83661910Y64865402D01*
X-83666431Y64858138D01*
X-83672172Y64851788D01*
X-83661250Y64842644D01*
X-83657795Y64846047D01*
X-83654442Y64849959D01*
X-83651394Y64854328D01*
X-83648702Y64859204D01*
X-83646467Y64864538D01*
X-83644689Y64870279D01*
X-83643622Y64876476D01*
X-83643216Y64883029D01*
X-83643419Y64888567D01*
X-83644079Y64894002D01*
X-83645146Y64899235D01*
X-83646619Y64904264D01*
X-83648550Y64909090D01*
X-83650836Y64913713D01*
X-83653477Y64918081D01*
X-83656576Y64922247D01*
X-83659980Y64926159D01*
X-83663790Y64929766D01*
X-83667955Y64933118D01*
X-83672476Y64936166D01*
X-83677302Y64938910D01*
X-83682484Y64941297D01*
X-83688021Y64943380D01*
X-83693812Y64945107D01*
X-83699959Y64946479D01*
X-83706411Y64947495D01*
X-83713167Y64948104D01*
G37*
G36*
X-83720178Y64774064D02*
G01*
X-83727290Y64773860D01*
X-83734046Y64773251D01*
X-83740548Y64772286D01*
X-83746695Y64770965D01*
X-83752588Y64769238D01*
X-83758074Y64767205D01*
X-83763256Y64764818D01*
X-83768133Y64762126D01*
X-83772603Y64759128D01*
X-83776769Y64755877D01*
X-83780528Y64752321D01*
X-83783932Y64748511D01*
X-83786980Y64744447D01*
X-83789621Y64740129D01*
X-83791907Y64735608D01*
X-83793787Y64730833D01*
X-83795209Y64725905D01*
X-83796276Y64720774D01*
X-83796936Y64715491D01*
X-83797140Y64710055D01*
X-83796784Y64703045D01*
X-83795717Y64696441D01*
X-83793990Y64690294D01*
X-83791602Y64684503D01*
X-83788605Y64679068D01*
X-83784948Y64674038D01*
X-83780680Y64669263D01*
X-83775804Y64664844D01*
X-83765390Y64673988D01*
X-83769250Y64677747D01*
X-83772654Y64681658D01*
X-83775550Y64685672D01*
X-83777988Y64689939D01*
X-83779918Y64694358D01*
X-83781290Y64699083D01*
X-83782103Y64704010D01*
X-83782408Y64709294D01*
X-83782103Y64714628D01*
X-83781290Y64719707D01*
X-83779918Y64724534D01*
X-83778039Y64729055D01*
X-83775651Y64733271D01*
X-83772756Y64737183D01*
X-83769403Y64740739D01*
X-83765542Y64743990D01*
X-83761275Y64746886D01*
X-83756550Y64749476D01*
X-83751420Y64751661D01*
X-83745882Y64753490D01*
X-83739939Y64754912D01*
X-83733640Y64755928D01*
X-83726934Y64756588D01*
X-83719924Y64756792D01*
X-83712913Y64756588D01*
X-83706258Y64755928D01*
X-83699959Y64754861D01*
X-83694066Y64753337D01*
X-83688529Y64751457D01*
X-83683449Y64749222D01*
X-83678776Y64746581D01*
X-83674559Y64743634D01*
X-83670749Y64740281D01*
X-83667447Y64736624D01*
X-83664602Y64732662D01*
X-83662215Y64728394D01*
X-83660386Y64723822D01*
X-83659014Y64718996D01*
X-83658202Y64713866D01*
X-83657948Y64708531D01*
X-83659014Y64699337D01*
X-83661910Y64691158D01*
X-83666431Y64683995D01*
X-83672172Y64677798D01*
X-83661250Y64668400D01*
X-83657795Y64671854D01*
X-83654442Y64675816D01*
X-83651394Y64680236D01*
X-83648702Y64685062D01*
X-83646467Y64690345D01*
X-83644689Y64696086D01*
X-83643622Y64702232D01*
X-83643216Y64708786D01*
X-83643419Y64714323D01*
X-83644079Y64719758D01*
X-83645146Y64724991D01*
X-83646619Y64730020D01*
X-83648550Y64734846D01*
X-83650836Y64739469D01*
X-83653477Y64743838D01*
X-83656576Y64748003D01*
X-83659980Y64751915D01*
X-83663790Y64755522D01*
X-83667955Y64758874D01*
X-83672476Y64761922D01*
X-83677302Y64764666D01*
X-83682484Y64767053D01*
X-83688021Y64769136D01*
X-83693812Y64770863D01*
X-83699959Y64772235D01*
X-83706411Y64773251D01*
X-83713167Y64773860D01*
G37*
G36*
X-83739736Y64646555D02*
G01*
X-83746390Y64646302D01*
X-83752639Y64645489D01*
X-83758532Y64644219D01*
X-83764018Y64642441D01*
X-83769149Y64640256D01*
X-83773873Y64637666D01*
X-83778191Y64634668D01*
X-83782052Y64631366D01*
X-83785506Y64627760D01*
X-83788554Y64623848D01*
X-83791145Y64619682D01*
X-83793279Y64615263D01*
X-83794955Y64610691D01*
X-83796174Y64605916D01*
X-83796886Y64601039D01*
X-83797140Y64596010D01*
X-83783424Y64596010D01*
X-83783068Y64600836D01*
X-83782001Y64605357D01*
X-83780274Y64609573D01*
X-83777886Y64613434D01*
X-83774940Y64616939D01*
X-83771384Y64620089D01*
X-83767320Y64622781D01*
X-83762697Y64625067D01*
X-83757617Y64626896D01*
X-83752080Y64628217D01*
X-83746086Y64629029D01*
X-83739736Y64629284D01*
X-83733436Y64629029D01*
X-83727493Y64628217D01*
X-83721956Y64626896D01*
X-83716876Y64625067D01*
X-83712304Y64622781D01*
X-83708189Y64620089D01*
X-83704633Y64616939D01*
X-83701636Y64613434D01*
X-83699248Y64609573D01*
X-83697470Y64605357D01*
X-83696403Y64600836D01*
X-83696048Y64596010D01*
X-83696403Y64591234D01*
X-83697470Y64586713D01*
X-83699248Y64582497D01*
X-83701636Y64578636D01*
X-83704633Y64575080D01*
X-83708189Y64571930D01*
X-83712304Y64569136D01*
X-83716876Y64566850D01*
X-83721956Y64564971D01*
X-83727493Y64563599D01*
X-83733436Y64562786D01*
X-83739736Y64562481D01*
X-83746086Y64562786D01*
X-83752080Y64563599D01*
X-83757617Y64564971D01*
X-83762697Y64566850D01*
X-83767320Y64569136D01*
X-83771384Y64571930D01*
X-83774940Y64575080D01*
X-83777886Y64578636D01*
X-83780274Y64582497D01*
X-83782001Y64586713D01*
X-83783068Y64591234D01*
X-83783424Y64596010D01*
X-83797140Y64596010D01*
X-83796886Y64591031D01*
X-83796174Y64586205D01*
X-83794955Y64581430D01*
X-83793279Y64576858D01*
X-83791145Y64572489D01*
X-83788554Y64568273D01*
X-83785506Y64564361D01*
X-83782052Y64560754D01*
X-83778191Y64557402D01*
X-83773873Y64554404D01*
X-83769149Y64551814D01*
X-83764018Y64549629D01*
X-83758532Y64547851D01*
X-83752639Y64546530D01*
X-83746390Y64545718D01*
X-83739736Y64545464D01*
X-83733081Y64545718D01*
X-83726782Y64546530D01*
X-83720838Y64547851D01*
X-83715301Y64549629D01*
X-83710170Y64551814D01*
X-83705395Y64554404D01*
X-83701077Y64557402D01*
X-83697165Y64560754D01*
X-83693711Y64564361D01*
X-83690663Y64568273D01*
X-83688072Y64572489D01*
X-83685938Y64576858D01*
X-83684262Y64581430D01*
X-83683043Y64586205D01*
X-83682332Y64591031D01*
X-83682078Y64596010D01*
X-83682332Y64601039D01*
X-83683043Y64605916D01*
X-83684262Y64610691D01*
X-83685938Y64615263D01*
X-83688072Y64619682D01*
X-83690663Y64623848D01*
X-83693711Y64627760D01*
X-83697165Y64631366D01*
X-83701077Y64634668D01*
X-83705395Y64637666D01*
X-83710170Y64640256D01*
X-83715301Y64642441D01*
X-83720838Y64644219D01*
X-83726782Y64645489D01*
X-83733081Y64646302D01*
G37*
G36*
X-83794600Y64515492D02*
G01*
X-83794600Y64499236D01*
X-83714336Y64499236D01*
X-83706614Y64491158D01*
X-83703566Y64487348D01*
X-83701077Y64483589D01*
X-83699096Y64479830D01*
X-83697673Y64475969D01*
X-83696860Y64471956D01*
X-83696556Y64467740D01*
X-83697013Y64462456D01*
X-83698334Y64457935D01*
X-83700569Y64454227D01*
X-83703769Y64451229D01*
X-83708036Y64448944D01*
X-83713269Y64447369D01*
X-83719619Y64446454D01*
X-83727036Y64446150D01*
X-83794600Y64446150D01*
X-83794600Y64429386D01*
X-83725004Y64429386D01*
X-83718247Y64429589D01*
X-83712050Y64430300D01*
X-83706411Y64431418D01*
X-83701331Y64432992D01*
X-83696860Y64435075D01*
X-83692949Y64437564D01*
X-83689647Y64440562D01*
X-83686954Y64444067D01*
X-83684821Y64448029D01*
X-83683297Y64452500D01*
X-83682382Y64457427D01*
X-83682078Y64462914D01*
X-83682433Y64468349D01*
X-83683551Y64473531D01*
X-83685278Y64478407D01*
X-83687564Y64483081D01*
X-83690358Y64487552D01*
X-83693558Y64491819D01*
X-83697064Y64495934D01*
X-83700874Y64499998D01*
X-83700874Y64500505D01*
X-83684872Y64502284D01*
X-83684872Y64515492D01*
G37*
G36*
X-83698588Y64406272D02*
G01*
X-83698588Y64389507D01*
X-83761580Y64389507D01*
X-83769250Y64389152D01*
X-83776159Y64388034D01*
X-83782204Y64386053D01*
X-83787335Y64383056D01*
X-83791501Y64378992D01*
X-83794600Y64373760D01*
X-83796479Y64367206D01*
X-83797140Y64359281D01*
X-83796784Y64354506D01*
X-83795870Y64349528D01*
X-83793076Y64339724D01*
X-83780630Y64343026D01*
X-83782712Y64349426D01*
X-83783424Y64352779D01*
X-83783678Y64355979D01*
X-83782204Y64364260D01*
X-83777937Y64369594D01*
X-83771130Y64372388D01*
X-83762088Y64373252D01*
X-83698588Y64373252D01*
X-83698588Y64342772D01*
X-83684872Y64342772D01*
X-83684872Y64373252D01*
X-83653884Y64373252D01*
X-83653884Y64386968D01*
X-83684872Y64389000D01*
X-83685888Y64406272D01*
G37*
G36*
X-83794600Y64317626D02*
G01*
X-83794600Y64301116D01*
X-83722972Y64301116D01*
X-83716368Y64298169D01*
X-83710881Y64294918D01*
X-83706411Y64291413D01*
X-83702855Y64287806D01*
X-83700213Y64284047D01*
X-83698435Y64280237D01*
X-83697419Y64276528D01*
X-83697064Y64272922D01*
X-83697470Y64267537D01*
X-83698842Y64262507D01*
X-83684364Y64259460D01*
X-83683246Y64262101D01*
X-83682535Y64264794D01*
X-83682179Y64267689D01*
X-83682078Y64270890D01*
X-83682484Y64275512D01*
X-83683703Y64279932D01*
X-83685684Y64284250D01*
X-83688377Y64288314D01*
X-83691679Y64292175D01*
X-83695590Y64295781D01*
X-83700010Y64299134D01*
X-83704938Y64302131D01*
X-83704938Y64302640D01*
X-83684872Y64304164D01*
X-83684872Y64317626D01*
G37*
G36*
X-83739736Y64251331D02*
G01*
X-83746390Y64251078D01*
X-83752639Y64250265D01*
X-83758532Y64248995D01*
X-83764018Y64247268D01*
X-83769149Y64245083D01*
X-83773873Y64242543D01*
X-83778191Y64239597D01*
X-83782052Y64236295D01*
X-83785506Y64232688D01*
X-83788554Y64228776D01*
X-83791145Y64224611D01*
X-83793279Y64220242D01*
X-83794955Y64215670D01*
X-83796174Y64210946D01*
X-83796886Y64206018D01*
X-83797140Y64201040D01*
X-83783424Y64201040D01*
X-83783068Y64205866D01*
X-83782001Y64210387D01*
X-83780274Y64214603D01*
X-83777886Y64218464D01*
X-83774940Y64221969D01*
X-83771384Y64225119D01*
X-83767320Y64227811D01*
X-83762697Y64230097D01*
X-83757617Y64231926D01*
X-83752080Y64233247D01*
X-83746086Y64234060D01*
X-83739736Y64234314D01*
X-83733436Y64234060D01*
X-83727493Y64233247D01*
X-83721956Y64231926D01*
X-83716876Y64230097D01*
X-83712304Y64227811D01*
X-83708189Y64225119D01*
X-83704633Y64221969D01*
X-83701636Y64218464D01*
X-83699248Y64214603D01*
X-83697470Y64210387D01*
X-83696403Y64205866D01*
X-83696048Y64201040D01*
X-83696403Y64196214D01*
X-83697470Y64191692D01*
X-83699248Y64187425D01*
X-83701636Y64183564D01*
X-83704633Y64180008D01*
X-83708189Y64176859D01*
X-83712304Y64174116D01*
X-83716876Y64171779D01*
X-83721956Y64169950D01*
X-83727493Y64168629D01*
X-83733436Y64167816D01*
X-83739736Y64167512D01*
X-83746086Y64167816D01*
X-83752080Y64168629D01*
X-83757617Y64169950D01*
X-83762697Y64171779D01*
X-83767320Y64174116D01*
X-83771384Y64176859D01*
X-83774940Y64180008D01*
X-83777886Y64183564D01*
X-83780274Y64187425D01*
X-83782001Y64191692D01*
X-83783068Y64196214D01*
X-83783424Y64201040D01*
X-83797140Y64201040D01*
X-83796886Y64196010D01*
X-83796174Y64191134D01*
X-83794955Y64186358D01*
X-83793279Y64181786D01*
X-83791145Y64177367D01*
X-83788554Y64173201D01*
X-83785506Y64169290D01*
X-83782052Y64165683D01*
X-83778191Y64162381D01*
X-83773873Y64159384D01*
X-83769149Y64156793D01*
X-83764018Y64154608D01*
X-83758532Y64152830D01*
X-83752639Y64151560D01*
X-83746390Y64150748D01*
X-83739736Y64150494D01*
X-83733081Y64150748D01*
X-83726782Y64151560D01*
X-83720838Y64152830D01*
X-83715301Y64154608D01*
X-83710170Y64156793D01*
X-83705395Y64159384D01*
X-83701077Y64162381D01*
X-83697165Y64165683D01*
X-83693711Y64169290D01*
X-83690663Y64173201D01*
X-83688072Y64177367D01*
X-83685938Y64181786D01*
X-83684262Y64186358D01*
X-83683043Y64191134D01*
X-83682332Y64196010D01*
X-83682078Y64201040D01*
X-83682332Y64206018D01*
X-83683043Y64210946D01*
X-83684262Y64215670D01*
X-83685938Y64220242D01*
X-83688072Y64224611D01*
X-83690663Y64228776D01*
X-83693711Y64232688D01*
X-83697165Y64236295D01*
X-83701077Y64239597D01*
X-83705395Y64242543D01*
X-83710170Y64245083D01*
X-83715301Y64247268D01*
X-83720838Y64248995D01*
X-83726782Y64250265D01*
X-83733081Y64251078D01*
G37*
G36*
X-83774534Y64120522D02*
G01*
X-83784186Y64119505D01*
X-83791247Y64116305D01*
X-83795666Y64110768D01*
X-83797140Y64102742D01*
X-83796784Y64096950D01*
X-83795870Y64092836D01*
X-83782916Y64095122D01*
X-83783373Y64097407D01*
X-83783424Y64098931D01*
X-83782966Y64101014D01*
X-83781595Y64102640D01*
X-83779258Y64103656D01*
X-83775804Y64104012D01*
X-83632802Y64104012D01*
X-83632802Y64120522D01*
G37*
G36*
X-83774534Y64063879D02*
G01*
X-83784186Y64062864D01*
X-83791247Y64059663D01*
X-83795666Y64054126D01*
X-83797140Y64046100D01*
X-83796784Y64040257D01*
X-83795870Y64035940D01*
X-83782916Y64038479D01*
X-83783373Y64040766D01*
X-83783424Y64042290D01*
X-83782966Y64044271D01*
X-83781595Y64045896D01*
X-83779258Y64046963D01*
X-83775804Y64047370D01*
X-83632802Y64047370D01*
X-83632802Y64063879D01*
G37*
G36*
X-83739736Y64015620D02*
G01*
X-83746340Y64015366D01*
X-83752537Y64014553D01*
X-83758430Y64013283D01*
X-83763916Y64011555D01*
X-83769047Y64009371D01*
X-83773772Y64006780D01*
X-83778039Y64003834D01*
X-83781950Y64000481D01*
X-83785456Y63996824D01*
X-83788504Y63992810D01*
X-83791094Y63988543D01*
X-83793228Y63984022D01*
X-83794955Y63979247D01*
X-83796174Y63974268D01*
X-83796886Y63969138D01*
X-83797140Y63963804D01*
X-83796886Y63958266D01*
X-83796225Y63953085D01*
X-83795209Y63948259D01*
X-83793838Y63943687D01*
X-83792161Y63939369D01*
X-83790282Y63935305D01*
X-83785964Y63927736D01*
X-83775042Y63933831D01*
X-83778801Y63940080D01*
X-83781595Y63946735D01*
X-83783322Y63953948D01*
X-83783932Y63961772D01*
X-83783576Y63967105D01*
X-83782611Y63972084D01*
X-83780985Y63976707D01*
X-83778801Y63981025D01*
X-83776058Y63984886D01*
X-83772756Y63988391D01*
X-83768946Y63991439D01*
X-83764678Y63994029D01*
X-83759903Y63996112D01*
X-83754772Y63997738D01*
X-83749235Y63998805D01*
X-83743292Y63999364D01*
X-83731100Y63999364D01*
X-83723175Y63998043D01*
X-83716114Y63995655D01*
X-83710018Y63992404D01*
X-83704938Y63988340D01*
X-83700874Y63983565D01*
X-83697927Y63978281D01*
X-83696149Y63972592D01*
X-83695540Y63966598D01*
X-83696098Y63960197D01*
X-83697826Y63954558D01*
X-83700620Y63949681D01*
X-83704531Y63945617D01*
X-83709560Y63942417D01*
X-83715707Y63940080D01*
X-83722870Y63938657D01*
X-83731100Y63938150D01*
X-83731100Y63999364D01*
X-83743292Y63999364D01*
X-83743292Y63924179D01*
X-83738821Y63923621D01*
X-83733386Y63923418D01*
X-83725715Y63923773D01*
X-83718552Y63924738D01*
X-83711999Y63926364D01*
X-83705954Y63928599D01*
X-83700569Y63931444D01*
X-83695844Y63934848D01*
X-83691730Y63938861D01*
X-83688326Y63943382D01*
X-83685634Y63948513D01*
X-83683652Y63954101D01*
X-83682484Y63960248D01*
X-83682078Y63966852D01*
X-83682332Y63971525D01*
X-83683094Y63976148D01*
X-83684364Y63980669D01*
X-83686091Y63985089D01*
X-83688275Y63989305D01*
X-83690968Y63993318D01*
X-83694066Y63997128D01*
X-83697572Y64000684D01*
X-83701534Y64003885D01*
X-83705852Y64006831D01*
X-83710627Y64009371D01*
X-83715707Y64011555D01*
X-83721194Y64013283D01*
X-83727036Y64014553D01*
X-83733233Y64015366D01*
G37*
G36*
X-83794600Y63895731D02*
G01*
X-83794600Y63879222D01*
X-83722972Y63879222D01*
X-83716368Y63876174D01*
X-83710881Y63872872D01*
X-83706411Y63869366D01*
X-83702855Y63865709D01*
X-83700213Y63861950D01*
X-83698435Y63858241D01*
X-83697419Y63854533D01*
X-83697064Y63851028D01*
X-83697470Y63845541D01*
X-83698842Y63840614D01*
X-83684364Y63837312D01*
X-83683246Y63839953D01*
X-83682535Y63842696D01*
X-83682179Y63845643D01*
X-83682078Y63848996D01*
X-83682484Y63853517D01*
X-83683703Y63857886D01*
X-83685684Y63862153D01*
X-83688377Y63866217D01*
X-83691679Y63870027D01*
X-83695590Y63873634D01*
X-83700010Y63876986D01*
X-83704938Y63879984D01*
X-83704938Y63880492D01*
X-83684872Y63882270D01*
X-83684872Y63895731D01*
G37*
D19*
X-82748628Y61823600D02*
G01*
X-82845656Y61823600D01*
X-82748628Y61823600D02*
G01*
X-82845656Y61786770D01*
X-82748628Y61749686D02*
G01*
X-82845656Y61786770D01*
X-82748628Y61749686D02*
G01*
X-82845656Y61749686D01*
X-82748628Y61686948D02*
G01*
X-82845656Y61686948D01*
X-82748628Y61719205D02*
G01*
X-82748628Y61654690D01*
X-82748628Y61624210D02*
G01*
X-82845656Y61559440D01*
X-82748628Y61559440D02*
G01*
X-82845656Y61624210D01*
X-82748628Y61457840D02*
G01*
X-82845656Y61457840D01*
X-82748628Y61457840D02*
G01*
X-82748628Y61416184D01*
X-82753200Y61402468D01*
X-82757772Y61397896D01*
X-82767170Y61393070D01*
X-82776314Y61393070D01*
X-82785458Y61397896D01*
X-82790030Y61402468D01*
X-82794856Y61416184D01*
X-82794856Y61457840D01*
X-82794856Y61425581D02*
G01*
X-82845656Y61393070D01*
X-82808572Y61362590D02*
G01*
X-82808572Y61307218D01*
X-82799428Y61307218D01*
X-82790030Y61311790D01*
X-82785458Y61316616D01*
X-82780886Y61325760D01*
X-82780886Y61339729D01*
X-82785458Y61348874D01*
X-82794856Y61358018D01*
X-82808572Y61362590D01*
X-82817970Y61362590D01*
X-82831686Y61358018D01*
X-82840830Y61348874D01*
X-82845656Y61339729D01*
X-82845656Y61325760D01*
X-82840830Y61316616D01*
X-82831686Y61307218D01*
X-82794856Y61221366D02*
G01*
X-82785458Y61230510D01*
X-82780886Y61239907D01*
X-82780886Y61253624D01*
X-82785458Y61263022D01*
X-82794856Y61272166D01*
X-82808572Y61276738D01*
X-82817970Y61276738D01*
X-82831686Y61272166D01*
X-82840830Y61263022D01*
X-82845656Y61253624D01*
X-82845656Y61239907D01*
X-82840830Y61230510D01*
X-82831686Y61221366D01*
X-82748628Y61190886D02*
G01*
X-82845656Y61190886D01*
X-82799428Y61190886D02*
G01*
X-82785458Y61177170D01*
X-82780886Y61167772D01*
X-82780886Y61154055D01*
X-82785458Y61144657D01*
X-82799428Y61140086D01*
X-82845656Y61140086D01*
X-82748628Y61095890D02*
G01*
X-82827114Y61095890D01*
X-82840830Y61091064D01*
X-82845656Y61081920D01*
X-82845656Y61072776D01*
X-82780886Y61109605D02*
G01*
X-82780886Y61077348D01*
X-82794856Y60991496D02*
G01*
X-82785458Y60996068D01*
X-82780886Y61009784D01*
X-82780886Y61023754D01*
X-82785458Y61037470D01*
X-82794856Y61042296D01*
X-82804000Y61037470D01*
X-82808572Y61028326D01*
X-82813144Y61005211D01*
X-82817970Y60996068D01*
X-82827114Y60991496D01*
X-82831686Y60991496D01*
X-82840830Y60996068D01*
X-82845656Y61009784D01*
X-82845656Y61023754D01*
X-82840830Y61037470D01*
X-82831686Y61042296D01*
X-82748628Y65811400D02*
G01*
X-82845656Y65811400D01*
X-82748628Y65811400D02*
G01*
X-82845656Y65774570D01*
X-82748628Y65737486D02*
G01*
X-82845656Y65774570D01*
X-82748628Y65737486D02*
G01*
X-82845656Y65737486D01*
X-82748628Y65674748D02*
G01*
X-82845656Y65674748D01*
X-82748628Y65707005D02*
G01*
X-82748628Y65642490D01*
X-82748628Y65612010D02*
G01*
X-82845656Y65547240D01*
X-82748628Y65547240D02*
G01*
X-82845656Y65612010D01*
X-82748628Y65445640D02*
G01*
X-82845656Y65445640D01*
X-82845656Y65445640D02*
G01*
X-82845656Y65390268D01*
X-82748628Y65359788D02*
G01*
X-82753200Y65355216D01*
X-82748628Y65350390D01*
X-82744056Y65355216D01*
X-82748628Y65359788D01*
X-82780886Y65355216D02*
G01*
X-82845656Y65355216D01*
X-82780886Y65319910D02*
G01*
X-82845656Y65319910D01*
X-82799428Y65319910D02*
G01*
X-82785458Y65306194D01*
X-82780886Y65297050D01*
X-82780886Y65283079D01*
X-82785458Y65273936D01*
X-82799428Y65269110D01*
X-82845656Y65269110D01*
X-82748628Y65238629D02*
G01*
X-82845656Y65238629D01*
X-82780886Y65192655D02*
G01*
X-82827114Y65238629D01*
X-82808572Y65220342D02*
G01*
X-82845656Y65187829D01*
X-82794856Y65106550D02*
G01*
X-82785458Y65111376D01*
X-82780886Y65125092D01*
X-82780886Y65139061D01*
X-82785458Y65152778D01*
X-82794856Y65157350D01*
X-82804000Y65152778D01*
X-82808572Y65143634D01*
X-82813144Y65120520D01*
X-82817970Y65111376D01*
X-82827114Y65106550D01*
X-82831686Y65106550D01*
X-82840830Y65111376D01*
X-82845656Y65125092D01*
X-82845656Y65139061D01*
X-82840830Y65152778D01*
X-82831686Y65157350D01*
X-82667856Y63931800D02*
G01*
X-82861658Y63931800D01*
X-82667856Y63931800D02*
G01*
X-82861658Y63857886D01*
X-82667856Y63783972D02*
G01*
X-82861658Y63857886D01*
X-82667856Y63783972D02*
G01*
X-82861658Y63783972D01*
X-82732372Y63612268D02*
G01*
X-82861658Y63612268D01*
X-82760058Y63612268D02*
G01*
X-82741770Y63630810D01*
X-82732372Y63649098D01*
X-82732372Y63676784D01*
X-82741770Y63695326D01*
X-82760058Y63713868D01*
X-82787744Y63723011D01*
X-82806286Y63723011D01*
X-82833972Y63713868D01*
X-82852514Y63695326D01*
X-82861658Y63676784D01*
X-82861658Y63649098D01*
X-82852514Y63630810D01*
X-82833972Y63612268D01*
X-82667856Y63523622D02*
G01*
X-82824828Y63523622D01*
X-82852514Y63514224D01*
X-82861658Y63495936D01*
X-82861658Y63477394D01*
X-82732372Y63551307D02*
G01*
X-82732372Y63486538D01*
X-82732372Y63416434D02*
G01*
X-82861658Y63416434D01*
X-82787744Y63416434D02*
G01*
X-82760058Y63407290D01*
X-82741770Y63388748D01*
X-82732372Y63370205D01*
X-82732372Y63342520D01*
X-82667856Y63281560D02*
G01*
X-82677000Y63272416D01*
X-82667856Y63263018D01*
X-82658458Y63272416D01*
X-82667856Y63281560D01*
X-82732372Y63272416D02*
G01*
X-82861658Y63272416D01*
X-82732372Y63202057D02*
G01*
X-82861658Y63100457D01*
X-82732372Y63100457D02*
G01*
X-82861658Y63202057D01*
D10*
X-84302600Y64312800D02*
G01*
X-84302600Y65379600D01*
X-83997800Y65379600D01*
X-83997800Y64312800D01*
X-84302600Y64312800D01*
X-84302600Y64592200D02*
G01*
X-83997800Y64592200D01*
X-82649603Y60833000D02*
G01*
X-82649603Y65913000D01*
X-82399598Y60833000D02*
G01*
X-82399598Y65913000D01*
X-82649603Y65913000D02*
G01*
X-82399598Y65913000D01*
X-82649603Y60833000D02*
G01*
X-82399598Y60833000D01*
X-82399596Y61087000D02*
G01*
X-82649601Y61087000D01*
M02*
