G04 Layer: BottomSolderMaskLayer*
G04 EasyEDA v6.5.3, 2022-04-04 14:49:07*
G04 cbda9177925744229a5c16aaf3607e86,be635ba5e1a24524a6f9dddda72dafc0,10*
G04 Gerber Generator version 0.2*
G04 Scale: 100 percent, Rotated: No, Reflected: No *
G04 Dimensions in millimeters *
G04 leading zeros omitted , absolute positions ,4 integer and 5 decimal *
%FSLAX45Y45*%
%MOMM*%

%ADD21C,2.0032*%
%ADD22C,1.8032*%
%ADD23R,1.8032X1.8032*%
%ADD24C,1.7272*%
%ADD25C,1.7732*%

%LPD*%
G36*
X-90270076Y64923924D02*
G01*
X-90270076Y65124076D01*
X-90069924Y65124076D01*
X-90069924Y64923924D01*
G37*
D21*
G01*
X-90170000Y64770000D03*
G01*
X-90170000Y64516000D03*
G01*
X-90170000Y64262000D03*
D22*
G01*
X-82524600Y65786000D03*
G01*
X-82524600Y65532000D03*
G01*
X-82524600Y65278000D03*
G01*
X-82524600Y65024000D03*
G01*
X-82524600Y64770000D03*
G01*
X-82524600Y64516000D03*
G01*
X-82524600Y64262000D03*
G01*
X-82524600Y64008000D03*
G01*
X-82524600Y63754000D03*
G01*
X-82524600Y63500000D03*
G01*
X-82524600Y63246000D03*
G01*
X-82524600Y62992000D03*
G01*
X-82524600Y62738000D03*
G01*
X-82524600Y62484000D03*
G01*
X-82524600Y62230000D03*
G01*
X-82524600Y61976000D03*
G01*
X-82524600Y61722000D03*
G01*
X-82524600Y61468000D03*
G01*
X-82524600Y61214000D03*
D23*
G01*
X-82524600Y60960000D03*
D24*
G01*
X-84074000Y65786000D03*
G01*
X-84328000Y65786000D03*
G01*
X-84582000Y65786000D03*
G01*
X-84836000Y65786000D03*
G01*
X-85090000Y65786000D03*
G01*
X-85344000Y65786000D03*
G01*
X-85598000Y65786000D03*
G01*
X-85852000Y65786000D03*
G01*
X-88138000Y60960000D03*
G01*
X-88392000Y60960000D03*
G01*
X-88646000Y60960000D03*
G01*
X-88900000Y60960000D03*
G01*
X-89154000Y60960000D03*
G01*
X-89408000Y60960000D03*
G01*
X-89662000Y60960000D03*
G01*
X-89916000Y60960000D03*
D25*
G01*
X-83312000Y65786000D03*
G36*
X-83146646Y65697354D02*
G01*
X-83146646Y65874646D01*
X-82969354Y65874646D01*
X-82969354Y65697354D01*
G37*
G01*
X-83058000Y65532000D03*
G01*
X-83312000Y65532000D03*
G01*
X-83058000Y65278000D03*
G01*
X-83312000Y65278000D03*
G01*
X-83058000Y65024000D03*
G01*
X-83312000Y65024000D03*
G01*
X-83058000Y64770000D03*
G01*
X-83312000Y64770000D03*
G01*
X-83058000Y64516000D03*
G01*
X-83312000Y64516000D03*
G01*
X-83058000Y64262000D03*
G01*
X-83312000Y64262000D03*
G01*
X-83058000Y64008000D03*
G01*
X-83312000Y64008000D03*
G01*
X-83058000Y63754000D03*
G01*
X-83312000Y63754000D03*
G01*
X-83058000Y63500000D03*
G01*
X-83312000Y63500000D03*
G01*
X-83058000Y63246000D03*
G01*
X-83312000Y63246000D03*
G01*
X-83058000Y62992000D03*
G01*
X-83312000Y62992000D03*
G01*
X-83058000Y62738000D03*
G01*
X-83312000Y62738000D03*
G01*
X-83058000Y62484000D03*
G01*
X-83312000Y62484000D03*
G01*
X-83058000Y62230000D03*
G01*
X-83312000Y62230000D03*
G01*
X-83058000Y61976000D03*
G01*
X-83312000Y61976000D03*
G01*
X-83058000Y61722000D03*
G01*
X-83312000Y61722000D03*
G01*
X-83058000Y61468000D03*
G01*
X-83312000Y61468000D03*
M02*
